<?xml version="1.0" encoding="utf-8" ?>
<svg xmlns="http://www.w3.org/2000/svg" xmlns:xlink="http://www.w3.org/1999/xlink" width="1024" height="1024">
	<path fill="#2A4B99" d="M0 0L1024 0L1024 103.214L1024 162.182L1024 248.533L1024 333.694L1024 417.406L1024 479.095L1024 568.312L1024 667.673L1024 702.202L1024 746.668L1024 785.311L1024 791.316L1024 796.363L1024 858.709L1024 1024L721.033 1024L0 1024L0 863.365L0 725.008L0 649.214L0 602.748L0 529.264L0 482.527L0 399.628L0 264.247L0 170.241L0 117.996L0 0Z"/>
	<path fill="#6F83A5" d="M894.939 667.226C900.297 669.396 906.578 675.991 911.053 679.739C933.846 698.827 955.39 718.208 976.472 739.185C976.305 739.166 976.136 739.163 975.972 739.13C971.276 738.19 932.757 715.176 928.908 711.475C922.695 705.502 917.296 696.529 912.011 689.595C906.384 682.21 899.839 675.096 894.939 667.226Z"/>
	<path fill="#B8F461" d="M703.934 607.962C712.506 610.762 720.856 615.837 729.099 619.571C760.971 634.011 792.395 649.679 823.926 664.858Q839.635 672.589 855.625 679.721C863.787 683.361 872.597 686.501 880.18 691.255C892.184 698.782 903.029 708.669 914.714 716.791C939.816 734.24 964.467 749.7 990.606 765.468C1001.65 772.13 1012.55 779.368 1024 785.311L1024 791.316L1024 796.363C1015.03 797.146 1005.81 798.039 997.007 799.979C996.56 798.33 996.174 796.62 995.567 795.025C994.708 796.948 993.665 798.911 992.96 800.887C975.557 803.027 958.228 805.799 940.835 808.057C933.121 809.058 925.054 810.596 917.269 810.578C906.314 810.553 895.143 807.737 884.183 806.903C881.316 798.837 878.861 790.577 876.195 782.439C874.222 777.241 872.787 771.799 870.882 766.557C869.542 771.568 868.407 776.624 867.027 781.63C856.569 780.775 805.732 766.555 798.831 760.578Q787.374 762.494 775.895 764.271C763.49 766.083 751.232 769.361 739.037 772.24Q705.799 780.014 672.782 788.678C666.916 790.182 641.779 797.799 637.872 797.379C618.781 788.638 599.326 780.85 579.882 772.945C565.575 767.129 551.376 761.015 536.831 755.804C539.265 753.441 541.96 751.298 544.545 749.101C551.421 742.459 559.531 736.458 566.802 730.157C571.332 727.162 575.696 723.474 579.824 719.953C581.339 718.492 583.197 717.219 584.848 715.901C594.029 707.126 604.208 699.198 613.722 690.763Q639.352 667.743 664.524 644.223C676.595 633.117 689.068 622.399 700.617 610.742C701.679 609.597 702.632 608.826 703.934 607.962Z"/>
	<path fill="#43C563" d="M876.195 782.439L1024 791.316L1024 796.363C1015.03 797.146 1005.81 798.039 997.007 799.979C996.56 798.33 996.174 796.62 995.567 795.025C994.708 796.948 993.665 798.911 992.96 800.887C975.557 803.027 958.228 805.799 940.835 808.057C933.121 809.058 925.054 810.596 917.269 810.578C906.314 810.553 895.143 807.737 884.183 806.903C881.316 798.837 878.861 790.577 876.195 782.439Z"/>
	<path fill="#43C563" d="M707.134 611.1C713.081 613.614 721.018 621.79 726.094 626.123C747.884 644.722 773.965 665.987 792.587 687.328C816.268 690.859 839.03 694.678 862.607 698.765C868.475 705.774 873.998 717.513 878.926 725.595C884.972 735.511 891.835 744.962 897.742 754.936C885.989 755.042 874.246 755.6 862.493 755.5C862.634 741.627 861.82 727.675 860.911 713.834C839.504 709.868 817.845 707.435 796.459 703.266C789.815 701.971 782.138 701.008 775.915 698.284C767.518 687.27 758.162 676.986 749.324 666.331Q734.943 648.743 721.222 630.636C716.871 624.967 709.948 617.484 707.134 611.1Z"/>
	<path fill="#1A775F" d="M700.617 610.742C701.679 609.597 702.632 608.826 703.934 607.962C704.964 609.063 705.959 610.148 707.134 611.1C709.948 617.484 716.871 624.967 721.222 630.636Q734.943 648.743 749.324 666.331C758.162 676.986 767.518 687.27 775.915 698.284C782.138 701.008 789.815 701.971 796.459 703.266C817.845 707.435 839.504 709.868 860.911 713.834C861.82 727.675 862.634 741.627 862.493 755.5C848.995 755.716 834.991 756.329 821.593 757.953C821.497 757.771 821.421 757.576 821.305 757.405C820.534 756.267 765.485 715.202 762.159 713.638C753.629 709.627 741.089 706.888 731.799 704.7C719.952 673.936 712.334 641.543 700.617 610.742Z"/>
	<path fill="#164137" d="M700.617 610.742C712.334 641.543 719.952 673.936 731.799 704.7C741.089 706.888 753.629 709.627 762.159 713.638C765.485 715.202 820.534 756.267 821.305 757.405C821.421 757.576 821.497 757.771 821.593 757.953C814.052 758.58 806.28 759.254 798.831 760.578Q787.374 762.494 775.895 764.271C763.49 766.083 751.232 769.361 739.037 772.24Q705.799 780.014 672.782 788.678C666.916 790.182 641.779 797.799 637.872 797.379C618.781 788.638 599.326 780.85 579.882 772.945C565.575 767.129 551.376 761.015 536.831 755.804C539.265 753.441 541.96 751.298 544.545 749.101C551.421 742.459 559.531 736.458 566.802 730.157C571.332 727.162 575.696 723.474 579.824 719.953C581.339 718.492 583.197 717.219 584.848 715.901C594.029 707.126 604.208 699.198 613.722 690.763Q639.352 667.743 664.524 644.223C676.595 633.117 689.068 622.399 700.617 610.742Z"/>
	<path fill="#1C3C88" d="M428.877 165.484C432.199 161.777 434.431 156.448 437.174 152.248L478.261 88.9908C480.701 85.2329 489.004 70.0568 491.005 68.7671L491.852 69.3475C486.705 89.9308 485.095 114.005 482.387 135.213C481.607 141.321 481.086 147.684 479.84 153.708C475.769 158.295 452.768 185.675 451.263 189.185C448.992 194.479 448.433 202.187 447.26 207.928L439.182 245.957L427.926 297.255C425.879 306.385 422.702 316.33 422.045 325.582C421.891 326.542 421.674 327.527 421.602 328.495C426.643 325.407 431.37 320.937 435.886 317.111Q449.222 305.693 462.418 294.115C462.447 305.393 463.3 316.72 463.804 327.988C464.161 335.967 464.021 344.166 465 352.084C481.507 331.592 496.609 309.241 511.484 287.522Q512.53 295.269 513.121 303.064L512.064 300.511L511.652 300.407L512.752 301.384L512.662 301.001C511.902 301.554 512.049 301.647 511.041 301.573C507.425 312.512 505.465 324.259 503.21 335.561Q498.396 359.473 493.966 383.459C488.695 412.319 482.518 441.009 477.038 469.831C480.582 478.651 483.905 487.561 487.691 496.281C499.114 522.589 511.951 548.453 524.696 574.152C534.094 593.101 544.701 611.746 552.787 631.284C546.844 625.407 541.289 615.451 536.313 608.51C531.927 602.392 527.109 596.557 522.835 590.367C512.206 574.972 501.908 559.512 490.894 544.366C487.136 539.199 483.532 533.741 479.456 528.838C479.514 539.216 480.337 549.605 480.8 559.972L482.41 601.272C482.714 607.691 484.605 623.909 483.412 628.867Q444.468 593.598 407.713 556.054C399.445 547.742 391.902 538.147 383.291 530.273C380.074 525.971 377.497 521.099 374.624 516.557L352.11 480.451L279.009 365.655C290.931 351.866 301.493 336.454 311.898 321.494C314.848 317.67 318.172 313.857 320.664 309.714C324.527 303.291 326.895 295.587 329.592 288.595C337.86 269.006 344.866 248.687 352.411 228.798Q357.052 216.702 361.34 204.477C362.497 201.11 363.128 197.109 364.705 193.981L365.057 194.883L365.454 194.859L366.309 194.219Q374.859 201.466 383.628 208.446C387.499 211.542 391.786 214.541 395.238 218.09C406.353 200.527 418.124 183.266 428.877 165.484Z"/>
	<path fill="#4DB9CA" d="M428.877 165.484C432.199 161.777 434.431 156.448 437.174 152.248L478.261 88.9908C480.701 85.2329 489.004 70.0568 491.005 68.7671L491.852 69.3475C486.705 89.9308 485.095 114.005 482.387 135.213C481.607 141.321 481.086 147.684 479.84 153.708C475.769 158.295 452.768 185.675 451.263 189.185C448.992 194.479 448.433 202.187 447.26 207.928L439.182 245.957L427.926 297.255C425.879 306.385 422.702 316.33 422.045 325.582C421.891 326.542 421.674 327.527 421.602 328.495C418.041 336.97 416.203 346.499 412.094 354.695C408.999 360.869 387.646 376.123 381.008 381.604C374.677 407.751 372.437 434.88 365.976 461.052C360.576 435.22 360.125 408.314 355.242 382.392C345.065 387.665 336.21 395.57 326.115 401.139C325.006 399.791 323.96 398.387 322.895 397.004C325.347 390.697 329.462 384.534 332.761 378.586Q342.103 361.883 351.155 345.021C353.733 340.266 357.284 334.958 358.872 329.785C360.83 323.408 360.262 307.002 360.51 299.505L362.49 236.272C362.976 222.462 363.056 208.576 365.057 194.883L365.454 194.859L366.309 194.219Q374.859 201.466 383.628 208.446C387.499 211.542 391.786 214.541 395.238 218.09C406.353 200.527 418.124 183.266 428.877 165.484Z"/>
	<path fill="#FAFBFC" d="M365.454 194.859L366.309 194.219Q374.859 201.466 383.628 208.446C387.499 211.542 391.786 214.541 395.238 218.09L389.785 227.033C385.397 224.795 381.036 222.704 376.424 220.963C373.237 212.071 368.334 203.87 365.454 194.859Z"/>
	<path fill="#9ADFF3" d="M491.852 69.3475L492.35 68.7713C493.107 69.5232 493.583 70.192 494.102 71.1239Q512.339 98.991 530.165 127.123C537.314 138.495 544.05 150.142 551.427 161.369Q560.14 174.003 568.546 186.844C571.942 192.053 575.317 199.409 579.86 203.628C585.562 208.922 609.127 221.087 617.178 225.64C621.038 227.823 626.051 229.994 628.938 233.379C633.639 238.89 637.119 247.017 640.651 253.385C645.199 261.637 649.326 270.488 654.438 278.382C661.792 292.053 669.729 305.41 676.922 319.158C679.501 324.088 682.82 329.569 684.379 334.92C682.612 338.224 672.957 406.837 671.477 417.051C658.667 399.38 644.616 382.591 630.924 365.606C618.042 349.626 605.555 333.393 592.385 317.64C595.846 328.323 600.035 338.83 603.93 349.368C615.726 381.284 628.582 412.846 641.008 444.529Q660.601 451.187 680.517 456.805C689.339 459.315 698.494 461.293 706.95 464.905C725.929 473.011 752.928 513.869 769.282 530.247C783.134 543.77 795.37 558.779 809.621 572.343C838.234 599.578 871.011 622.578 903.855 644.389C913.723 650.942 923.768 658.445 934.338 663.76C944.283 668.761 955.156 672.346 965.497 676.484C985.097 684.326 1005.21 692.588 1024 702.202L1024 746.668C1008.34 733.648 990.968 722.318 974.473 710.386C947.825 691.108 921.412 671.244 893.639 653.6C873.32 640.691 851.631 629.331 830.499 617.782C825.271 624.864 820.437 632.321 815.393 639.542C808.973 634.733 803.636 628.025 797.099 623.604C791.527 619.836 784.941 617.137 778.889 614.231L750.492 600.5Q733.491 592.15 716.617 583.547C709.94 580.143 703.305 576.436 696.444 573.428C690.035 579.77 683.693 586.231 677.01 592.285C663.155 573.774 650.528 553.989 637.929 534.605C635.471 538.087 633.446 541.878 631.336 545.576C629.954 541.77 620.579 515.979 618.761 514.812C616.523 516.621 602.626 554.178 600.538 560.103C593.725 522.789 585.459 485.731 579.373 448.289C574.689 453.244 570.572 459.018 566.264 464.319C556.639 476.161 547.117 487.997 537.737 500.039C536.557 494.595 536.18 488.805 535.454 483.27L531.182 449.683L518.649 346.515L515.137 317.546C514.571 312.887 514.429 307.552 513.121 303.064Q512.53 295.269 511.484 287.522C496.609 309.241 481.507 331.592 465 352.084C464.021 344.166 464.161 335.967 463.804 327.988C463.3 316.72 462.447 305.393 462.418 294.115Q449.222 305.693 435.886 317.111C431.37 320.937 426.643 325.407 421.602 328.495C421.674 327.527 421.891 326.542 422.045 325.582C422.702 316.33 425.879 306.385 427.926 297.255L439.182 245.957L447.26 207.928C448.433 202.187 448.992 194.479 451.263 189.185C452.768 185.675 475.769 158.295 479.84 153.708C481.086 147.684 481.607 141.321 482.387 135.213C485.095 114.005 486.705 89.9308 491.852 69.3475Z"/>
	<path fill="#1DE6DE" d="M491.852 69.3475L492.35 68.7713C493.107 69.5232 493.583 70.192 494.102 71.1239C492.162 77.3346 497.065 118.212 497.844 128.759C498.946 143.665 500.31 158.959 500.121 173.894C494.022 182.819 488.973 193.341 483.853 202.889C491.365 221.42 498.153 240.188 505.513 258.765C508.837 267.156 515.999 281.389 517.434 289.67L516.716 289.519C512.726 278.363 508.05 267.737 503.781 256.736C500.025 247.058 496.709 237.211 492.97 227.528C490.138 220.195 485.852 212.503 483.958 204.934C483.451 202.908 483.622 201.909 484.516 200.004C486.885 194.961 499.177 175.44 499.253 171.767C499.683 150.895 496.864 129.443 495.547 108.606C495.377 105.924 493.025 99.9961 493.708 97.848L491.757 98.4166C491.563 96.8776 491.571 95.0784 490.666 93.7757C489.232 94.5323 488.594 96.2744 488.141 97.794C486.145 104.482 485.92 112.087 485.494 118.989C485.235 123.204 483.861 127.403 483.509 131.64C482.972 138.091 482.864 145.815 480.798 151.96C478.708 158.179 463.6 175.486 458.597 181.321C456.69 183.546 454.102 185.764 452.709 188.351C449.685 193.967 449.06 204.38 447.655 210.893L433.702 275.11C432.559 280.392 423.559 323.724 422.912 324.86C422.725 325.186 422.334 325.341 422.045 325.582C422.702 316.33 425.879 306.385 427.926 297.255L439.182 245.957L447.26 207.928C448.433 202.187 448.992 194.479 451.263 189.185C452.768 185.675 475.769 158.295 479.84 153.708C481.086 147.684 481.607 141.321 482.387 135.213C485.095 114.005 486.705 89.9308 491.852 69.3475Z"/>
	<path fill="#FAFBFC" d="M494.102 71.1239Q512.339 98.991 530.165 127.123C537.314 138.495 544.05 150.142 551.427 161.369Q560.14 174.003 568.546 186.844C571.942 192.053 575.317 199.409 579.86 203.628C585.562 208.922 609.127 221.087 617.178 225.64C621.038 227.823 626.051 229.994 628.938 233.379C633.639 238.89 637.119 247.017 640.651 253.385C645.199 261.637 649.326 270.488 654.438 278.382C661.792 292.053 669.729 305.41 676.922 319.158C679.501 324.088 682.82 329.569 684.379 334.92C682.612 338.224 672.957 406.837 671.477 417.051C658.667 399.38 644.616 382.591 630.924 365.606C618.042 349.626 605.555 333.393 592.385 317.64C595.846 328.323 600.035 338.83 603.93 349.368C615.726 381.284 628.582 412.846 641.008 444.529Q660.601 451.187 680.517 456.805C689.339 459.315 698.494 461.293 706.95 464.905C725.929 473.011 752.928 513.869 769.282 530.247C765.421 535.191 759.36 539.486 754.654 543.746Q744.757 552.812 735.274 562.31C727.71 554.222 720.721 545.554 713.402 537.238C707.007 529.971 700.306 522.967 693.985 515.637Q670.231 487.546 646.969 459.047C642.233 465.734 636.04 472.883 629.421 477.75C624.228 468.966 620.883 458.698 616.411 449.46Q599.82 415.085 582.081 381.289C575.076 387.786 568.887 395.758 562.269 402.706C554.318 382.932 545.895 363.298 538.369 343.358C533.82 331.308 529.059 319.39 524.378 307.397C522.096 301.553 520.216 295.271 517.434 289.67C515.999 281.389 508.837 267.156 505.513 258.765C498.153 240.188 491.365 221.42 483.853 202.889C488.973 193.341 494.022 182.819 500.121 173.894C500.31 158.959 498.946 143.665 497.844 128.759C497.065 118.212 492.162 77.3346 494.102 71.1239Z"/>
	<path fill="#1C3C88" d="M917.609 293.312C921.403 287.026 925.723 281.263 931.111 276.248C957.823 251.382 989.258 247.456 1024 248.533L1024 333.694L1024 417.406L1024 479.095L1024 568.312L1024 667.673L1024 702.202C1005.21 692.588 985.097 684.326 965.497 676.484C955.156 672.346 944.283 668.761 934.338 663.76C923.768 658.445 913.723 650.942 903.855 644.389C871.011 622.578 838.234 599.578 809.621 572.343C795.37 558.779 783.134 543.77 769.282 530.247C752.928 513.869 725.929 473.011 706.95 464.905C698.494 461.293 689.339 459.315 680.517 456.805Q660.601 451.187 641.008 444.529C628.582 412.846 615.726 381.284 603.93 349.368C600.035 338.83 595.846 328.323 592.385 317.64C605.555 333.393 618.042 349.626 630.924 365.606C644.616 382.591 658.667 399.38 671.477 417.051C672.957 406.837 682.612 338.224 684.379 334.92C682.82 329.569 679.501 324.088 676.922 319.158C669.729 305.41 661.792 292.053 654.438 278.382C665.744 275.433 680.379 275.925 691.402 279.852C695.205 277.273 699.017 274.718 703.028 272.466Q704.111 271.87 705.209 271.301Q706.306 270.732 707.417 270.19Q708.528 269.647 709.652 269.131Q710.776 268.616 711.911 268.128Q713.047 267.639 714.194 267.178Q715.342 266.718 716.5 266.285Q717.658 265.852 718.826 265.447Q719.994 265.042 721.172 264.666Q722.349 264.289 723.536 263.941Q724.722 263.593 725.916 263.274Q727.111 262.955 728.312 262.664Q729.514 262.374 730.723 262.113Q731.931 261.851 733.145 261.619Q734.36 261.387 735.579 261.185Q736.799 260.982 738.023 260.809Q739.247 260.636 740.475 260.492Q741.703 260.349 742.934 260.235Q744.165 260.121 745.399 260.037Q746.632 259.953 747.867 259.898Q749.102 259.844 750.338 259.819Q751.574 259.795 752.811 259.8Q754.047 259.806 755.283 259.841Q756.519 259.876 757.753 259.941Q758.988 260.006 760.22 260.101Q761.453 260.196 762.683 260.32Q763.913 260.445 765.14 260.599Q766.367 260.753 767.589 260.937Q768.812 261.12 770.03 261.333Q771.247 261.547 772.46 261.789Q773.672 262.032 774.878 262.303Q776.084 262.575 777.283 262.876Q778.482 263.176 779.674 263.506C799.456 269.086 816.842 280.222 827.007 298.345C842.338 287.954 858.368 281.867 876.983 281.782C890.249 281.721 907.651 283.415 917.609 293.312Z"/>
	<path fill="#1DE6DE" d="M734.208 379.449C742.379 385.603 757.198 395.002 763.73 402.025C766.921 405.456 769.548 409.545 772.285 413.346C778.224 421.593 783.947 430.159 790.237 438.133C795.585 444.911 803.582 450.001 810.164 455.601C815.358 460.02 820.617 465.518 826.314 469.241C821.443 477.976 799.123 508.646 792.286 515.646Q781.843 491.613 771.069 467.727C767.454 459.655 764.121 451.307 759.902 443.532C758.547 447.566 757.93 452.009 757.03 456.171Q754.952 465.513 752.679 474.81C752.688 466.063 750.711 457.653 749.116 449.09C744.768 425.738 738.453 402.78 734.208 379.449Z"/>
	<path fill="#FAFBFC" d="M718.344 293.183C720.903 294.047 739.557 318.5 742.273 322.337C746.924 330.685 754.872 338.261 761.111 345.544C775.765 362.648 790.872 380.691 806.776 396.553C813.305 403.064 820.487 409.061 827.435 415.127C834.014 420.871 840.534 426.699 847.708 431.702C844.564 438.396 841.639 445.471 837.955 451.875C834.506 457.87 830.262 463.561 826.314 469.241C820.617 465.518 815.358 460.02 810.164 455.601C803.582 450.001 795.585 444.911 790.237 438.133C783.947 430.159 778.224 421.593 772.285 413.346C769.548 409.545 766.921 405.456 763.73 402.025C757.198 395.002 742.379 385.603 734.208 379.449C732.408 373.869 728.622 368.838 726.918 363.134C724.61 355.412 724.437 346.633 723.461 338.632C721.618 323.518 719.461 308.372 718.344 293.183Z"/>
	<path fill="#2A4B99" d="M906.04 540.932L906.952 541.552C907.875 539.402 897.086 484.141 896.088 477.342C893.695 461.028 890.485 443.389 891.161 426.848Q898.913 447.57 907.334 468.03C910.746 476.502 913.756 485.426 918.334 493.36C921.593 499.007 925.907 504.05 930.005 509.1C942.545 524.555 953.863 535.767 969.313 548.286L968.931 547.377C964.855 537.787 956.957 527.789 955.51 517.429L956.063 516.95C957.619 517.406 958.737 518.207 959.984 519.223C964.034 522.525 967.611 526.46 971.382 530.075C975.892 534.397 980.767 538.495 985.693 542.337C997.845 551.813 1010.85 560.303 1024 568.312L1024 667.673C1013.04 657.346 1001.38 647.74 990.82 637C983.441 629.493 976.73 621.209 969.906 613.195C961.82 603.699 953.588 594.281 945.749 584.58C952.177 603.31 962.104 620.745 968.4 639.604C963.106 633.008 958.626 625.544 953.954 618.487Q940.306 598.175 927.525 577.307L915.822 558.322C913.963 555.312 912.111 551.547 909.79 548.9C908.648 547.598 907.132 546.643 905.924 545.394L905.401 544.846C906.266 544.847 906.633 545.279 907.349 545.735L907.657 545.229L905.943 541.79L906.04 540.932Z"/>
	<path fill="#116BAB" d="M884.587 354.393C884.807 353.385 885.469 352.378 885.938 351.455C886.97 358.85 887.573 366.541 888.059 373.997C888.525 381.134 889.959 424.313 891.161 426.848C890.485 443.389 893.695 461.028 896.088 477.342C897.086 484.141 907.875 539.402 906.952 541.552L906.04 540.932L905.943 541.79L907.657 545.229L907.349 545.735C906.633 545.279 906.266 544.847 905.401 544.846C896.923 539.712 888.705 534.576 880.778 528.616L886.058 586.818C871.519 570.699 857.675 553.561 844.607 536.232C828.198 533.087 812.147 528.94 795.976 524.76C794.972 521.597 793.675 518.656 792.286 515.646C799.123 508.646 821.443 477.976 826.314 469.241C830.262 463.561 834.506 457.87 837.955 451.875C841.639 445.471 844.564 438.396 847.708 431.702C860.783 406.408 872.462 380.166 884.587 354.393Z"/>
	<path fill="#1DE6DE" d="M884.587 354.393C884.807 353.385 885.469 352.378 885.938 351.455C886.97 358.85 887.573 366.541 888.059 373.997C888.525 381.134 889.959 424.313 891.161 426.848C890.485 443.389 893.695 461.028 896.088 477.342C897.086 484.141 907.875 539.402 906.952 541.552L906.04 540.932C904.654 534.916 899.425 528.298 896.595 522.7Q884.286 498.286 873.471 473.175C870.363 466.005 866.333 458.282 864.858 450.609C864.049 446.399 867.52 436.278 868.623 431.736C871.856 418.422 885.433 364.266 884.637 354.887C884.623 354.722 884.603 354.558 884.587 354.393Z"/>
	<path fill="#FAFBFC" d="M913.789 371.311C918.408 369.798 929.39 360.319 934.449 357.275C961.481 341.004 992.395 332.233 1024 333.694L1024 417.406L1024 479.095L1024 568.312C1010.85 560.303 997.845 551.813 985.693 542.337C980.767 538.495 975.892 534.397 971.382 530.075C967.611 526.46 964.034 522.525 959.984 519.223C958.737 518.207 957.619 517.406 956.063 516.95L955.51 517.429C956.957 527.789 964.855 537.787 968.931 547.377L969.313 548.286C953.863 535.767 942.545 524.555 930.005 509.1C925.907 504.05 921.593 499.007 918.334 493.36C913.756 485.426 910.746 476.502 907.334 468.03Q898.913 447.57 891.161 426.848C889.959 424.313 888.525 381.134 888.059 373.997C887.573 366.541 886.97 358.85 885.938 351.455C886.022 350.052 885.788 349.109 886.73 348.012C895.263 352.74 904.942 366.285 913.346 372.253L913.789 371.311Z"/>
	<path fill="#F1DB79" d="M944.971 404.654C963.538 396.943 985.702 397.424 1004.25 405.03C1011.63 408.056 1017.82 412.436 1024 417.406L1024 479.095C994.62 457.815 971.042 429.537 944.971 404.654Z"/>
	<path fill="#94D5B1" d="M913.789 371.311C918.408 369.798 929.39 360.319 934.449 357.275C961.481 341.004 992.395 332.233 1024 333.694L1024 417.406C1017.82 412.436 1011.63 408.056 1004.25 405.03C985.702 397.424 963.538 396.943 944.971 404.654C934.858 393.483 924.055 382.849 913.346 372.253L913.789 371.311Z"/>
	<path fill="#78CBBB" d="M917.609 293.312C921.403 287.026 925.723 281.263 931.111 276.248C957.823 251.382 989.258 247.456 1024 248.533L1024 333.694C992.395 332.233 961.481 341.004 934.449 357.275C929.39 360.319 918.408 369.798 913.789 371.311L913.346 372.253C904.942 366.285 895.263 352.74 886.73 348.012C885.788 349.109 886.022 350.052 885.938 351.455C885.469 352.378 884.807 353.385 884.587 354.393C872.462 380.166 860.783 406.408 847.708 431.702C840.534 426.699 834.014 420.871 827.435 415.127C820.487 409.061 813.305 403.064 806.776 396.553C790.872 380.691 775.765 362.648 761.111 345.544C754.872 338.261 746.924 330.685 742.273 322.337C739.557 318.5 720.903 294.047 718.344 293.183L717.581 291.393L716.994 291.491C712.758 298.467 689.463 330.788 684.379 334.92C682.82 329.569 679.501 324.088 676.922 319.158C669.729 305.41 661.792 292.053 654.438 278.382C665.744 275.433 680.379 275.925 691.402 279.852C695.205 277.273 699.017 274.718 703.028 272.466Q704.111 271.87 705.209 271.301Q706.306 270.732 707.417 270.19Q708.528 269.647 709.652 269.131Q710.776 268.616 711.911 268.128Q713.047 267.639 714.194 267.178Q715.342 266.718 716.5 266.285Q717.658 265.852 718.826 265.447Q719.994 265.042 721.172 264.666Q722.349 264.289 723.536 263.941Q724.722 263.593 725.916 263.274Q727.111 262.955 728.312 262.664Q729.514 262.374 730.723 262.113Q731.931 261.851 733.145 261.619Q734.36 261.387 735.579 261.185Q736.799 260.982 738.023 260.809Q739.247 260.636 740.475 260.492Q741.703 260.349 742.934 260.235Q744.165 260.121 745.399 260.037Q746.632 259.953 747.867 259.898Q749.102 259.844 750.338 259.819Q751.574 259.795 752.811 259.8Q754.047 259.806 755.283 259.841Q756.519 259.876 757.753 259.941Q758.988 260.006 760.22 260.101Q761.453 260.196 762.683 260.32Q763.913 260.445 765.14 260.599Q766.367 260.753 767.589 260.937Q768.812 261.12 770.03 261.333Q771.247 261.547 772.46 261.789Q773.672 262.032 774.878 262.303Q776.084 262.575 777.283 262.876Q778.482 263.176 779.674 263.506C799.456 269.086 816.842 280.222 827.007 298.345C842.338 287.954 858.368 281.867 876.983 281.782C890.249 281.721 907.651 283.415 917.609 293.312Z"/>
	<path fill="#F1DB79" d="M742.273 322.337C752.449 318.727 762.2 314.646 772.755 312.136C798.622 305.986 828.349 309.322 852.268 320.74C875.363 331.764 899.641 349.755 913.789 371.311L913.346 372.253C904.942 366.285 895.263 352.74 886.73 348.012C885.788 349.109 886.022 350.052 885.938 351.455C885.469 352.378 884.807 353.385 884.587 354.393C872.462 380.166 860.783 406.408 847.708 431.702C840.534 426.699 834.014 420.871 827.435 415.127C820.487 409.061 813.305 403.064 806.776 396.553C790.872 380.691 775.765 362.648 761.111 345.544C754.872 338.261 746.924 330.685 742.273 322.337Z"/>
	<path fill="#1A1840" d="M114.506 374.694L116.092 372.312C138.107 339.558 176.781 315.489 215.319 307.988C242.715 302.656 268.523 305.206 294.816 314.292C300.265 316.175 307.145 318.284 311.898 321.494C301.493 336.454 290.931 351.866 279.009 365.655L352.11 480.451L374.624 516.557C377.497 521.099 380.074 525.971 383.291 530.273C391.902 538.147 399.445 547.742 407.713 556.054Q444.468 593.598 483.412 628.867C516.547 658.729 550.921 686.968 584.848 715.901C583.197 717.219 581.339 718.492 579.824 719.953C575.696 723.474 571.332 727.162 566.802 730.157C559.531 736.458 551.421 742.459 544.545 749.101C541.96 751.298 539.265 753.441 536.831 755.804Q515.74 748.366 494.839 740.407C478.999 735.656 463.488 728.86 447.884 723.302C429.671 716.815 410.911 711.248 392.917 704.26C384.876 701.104 376.232 698.92 368.027 696.15C354.829 691.695 341.719 687.107 328.369 683.108C309.633 677.495 290.671 672.741 271.732 667.873C242.107 659.658 211.415 654.072 181.087 649.17C164.424 646.476 147.517 643.537 130.667 642.394C128.598 641.448 125.771 641.343 123.515 641.003C122.936 641.01 122.346 640.915 121.777 641.026C118.494 641.669 10.3696 717.137 0 725.008L0 649.214L0 602.748L0 529.264L0 482.527L0 399.628C7.03621 400.406 14.3868 401.489 20.7418 404.766Q24.5061 401.034 28.7122 397.808Q29.8396 396.936 30.9882 396.092Q32.1367 395.249 33.3058 394.433Q34.4748 393.618 35.6637 392.832Q36.8525 392.046 38.0604 391.29Q39.2682 390.533 40.4944 389.807Q41.7206 389.08 42.9644 388.385Q44.2081 387.689 45.4687 387.024Q46.7292 386.359 48.0058 385.725Q49.2824 385.091 50.5742 384.49Q51.8661 383.888 53.1724 383.318Q54.4787 382.748 55.7987 382.211Q57.1187 381.673 58.4515 381.168Q59.7844 380.664 61.1293 380.192Q62.4742 379.721 63.8303 379.282Q65.1865 378.844 66.553 378.44Q67.9196 378.035 69.2957 377.664Q70.6718 377.293 72.0567 376.957Q73.4415 376.62 74.8343 376.318Q76.2271 376.015 77.6268 375.748Q79.0266 375.48 80.4326 375.246Q81.8386 375.013 83.2499 374.815Q84.6612 374.616 86.077 374.453Q87.4928 374.289 88.9122 374.161Q90.3315 374.032 91.7537 373.939Q93.1758 373.845 94.5998 373.787Q96.0238 373.729 97.4488 373.706Q98.8738 373.683 100.299 373.695Q101.724 373.707 103.148 373.754Q104.573 373.801 105.996 373.884Q107.419 373.966 108.839 374.084Q110.259 374.201 111.676 374.354Q113.093 374.506 114.506 374.694Z"/>
	<path fill="#9ADFF3" d="M85.3834 446.08C85.8558 445.468 86.3802 444.899 86.8906 444.318L87.9518 444.415L89.7838 446.199Q107.413 465.806 125.473 485.017C129.857 489.762 134.721 494.284 138.84 499.242C127.779 511.802 116.586 524.117 104.968 536.167C102.811 538.569 100.558 540.929 98.4852 543.401C93.4427 550.898 81.1918 564.06 74.5788 570.927C66.1795 582.715 54.5685 592.613 44.824 603.323L18.7873 632.298C15.0148 636.427 11.368 640.873 7.26521 644.664C5.0657 646.696 2.74927 648.044 0 649.214L0 602.748L0 529.264C7.61009 523.599 14.3691 515.284 20.8689 508.41C29.5262 499.255 38.5858 490.235 46.6497 480.552L50.3644 483.282L52.5417 484.853C52.8376 484.793 53.1634 484.817 53.4293 484.674C54.5455 484.074 83.0222 449.499 85.3834 446.08Z"/>
	<path fill="#FAFBFC" d="M87.9518 444.415L89.7838 446.199Q107.413 465.806 125.473 485.017C129.857 489.762 134.721 494.284 138.84 499.242C127.779 511.802 116.586 524.117 104.968 536.167C102.597 533.042 84.4814 482.501 84.3616 478.405C84.0296 467.049 87.904 455.996 87.9559 444.837C87.9565 444.696 87.9531 444.556 87.9518 444.415Z"/>
	<path fill="#4DB9CA" d="M46.6497 480.552L50.3644 483.282C48.1226 488.965 30.9991 565.615 31.8407 567.978C31.8952 568.131 31.9916 568.266 32.0671 568.41C27.1921 574.391 21.4714 579.937 16.1655 585.556C10.7854 591.253 5.56279 597.237 0 602.748L0 529.264C7.61009 523.599 14.3691 515.284 20.8689 508.41C29.5262 499.255 38.5858 490.235 46.6497 480.552Z"/>
	<path fill="#1C3C88" d="M76.772 519.045C77.4057 518.069 77.7475 517.191 78.7954 516.642L78.9884 517.732L79.2106 516.957C85.997 524.913 93.2437 534.365 98.4852 543.401C93.4427 550.898 81.1918 564.06 74.5788 570.927C66.1795 582.715 54.5685 592.613 44.824 603.323L18.7873 632.298C15.0148 636.427 11.368 640.873 7.26521 644.664C5.0657 646.696 2.74927 648.044 0 649.214L0 602.748C5.56279 597.237 10.7854 591.253 16.1655 585.556C21.4714 579.937 27.1921 574.391 32.0671 568.41C46.7161 551.737 62.5567 536.087 76.772 519.045Z"/>
	<path fill="#2A4B99" d="M76.772 519.045C77.4057 518.069 77.7475 517.191 78.7954 516.642L78.9884 517.732L79.2106 516.957C85.997 524.913 93.2437 534.365 98.4852 543.401C93.4427 550.898 81.1918 564.06 74.5788 570.927C73.3202 562.074 79.755 524.205 76.772 519.045Z"/>
	<path fill="#1C3C88" d="M261.556 342.924C263.011 349.887 263.377 357.307 264.027 364.393C262.024 372.35 263.519 433.903 264.754 442.93C265.095 445.418 265.853 447.53 267.142 449.687C273.825 460.873 283.461 470.338 289.882 481.72C297.995 496.099 304.129 511.919 310.946 526.943L348.058 607.899C357.109 627.322 365.846 646.945 375.146 666.242C378.464 673.126 381.593 680.125 384.956 686.979C387.643 692.454 391.275 698.382 392.917 704.26C384.876 701.104 376.232 698.92 368.027 696.15C354.829 691.695 341.719 687.107 328.369 683.108C309.633 677.495 290.671 672.741 271.732 667.873C275.758 656.963 277.948 641.896 280.571 630.307L295.041 568.981C288.614 584.096 278.53 598.046 269.996 612.051C264.685 620.767 259.829 630.371 253.983 638.685Q261.557 599.176 268.604 559.569C263.01 552.032 256.512 545.119 250.382 538.022Q239.595 525.295 229.158 512.279C229.829 506.328 231.349 500.395 232.54 494.52Q235.197 481.229 237.537 467.878C243.172 435.674 248.236 403.319 254.571 371.248C255.459 366.752 256.278 362.206 257.497 357.786C258.504 354.132 259.999 350.42 260.617 346.69C260.834 345.384 261.155 344.184 261.556 342.924Z"/>
	<path fill="#F1DB79" d="M114.506 374.694L116.092 372.312C138.107 339.558 176.781 315.489 215.319 307.988C242.715 302.656 268.523 305.206 294.816 314.292C300.265 316.175 307.145 318.284 311.898 321.494C301.493 336.454 290.931 351.866 279.009 365.655C274.768 358.851 267.991 345.843 261.437 341.673C261.093 341.819 260.674 341.852 260.405 342.112C258.074 344.363 255.904 348.638 253.994 351.363Q248.047 359.821 241.688 367.975C217.003 400.166 192.846 432.795 167.834 464.724C158.535 476.507 148.5 487.752 138.84 499.242C134.721 494.284 129.857 489.762 125.473 485.017Q107.413 465.806 89.7838 446.199L87.9518 444.415L86.8906 444.318C86.3802 444.899 85.8558 445.468 85.3834 446.08C83.0222 449.499 54.5455 484.074 53.4293 484.674C53.1634 484.817 52.8376 484.793 52.5417 484.853L50.3644 483.282L46.6497 480.552C38.5858 490.235 29.5262 499.255 20.8689 508.41C14.3691 515.284 7.61009 523.599 0 529.264L0 482.527L0 399.628C7.03621 400.406 14.3868 401.489 20.7418 404.766Q24.5061 401.034 28.7122 397.808Q29.8396 396.936 30.9882 396.092Q32.1367 395.249 33.3058 394.433Q34.4748 393.618 35.6637 392.832Q36.8525 392.046 38.0604 391.29Q39.2682 390.533 40.4944 389.807Q41.7206 389.08 42.9644 388.385Q44.2081 387.689 45.4687 387.024Q46.7292 386.359 48.0058 385.725Q49.2824 385.091 50.5742 384.49Q51.8661 383.888 53.1724 383.318Q54.4787 382.748 55.7987 382.211Q57.1187 381.673 58.4515 381.168Q59.7844 380.664 61.1293 380.192Q62.4742 379.721 63.8303 379.282Q65.1865 378.844 66.553 378.44Q67.9196 378.035 69.2957 377.664Q70.6718 377.293 72.0567 376.957Q73.4415 376.62 74.8343 376.318Q76.2271 376.015 77.6268 375.748Q79.0266 375.48 80.4326 375.246Q81.8386 375.013 83.2499 374.815Q84.6612 374.616 86.077 374.453Q87.4928 374.289 88.9122 374.161Q90.3315 374.032 91.7537 373.939Q93.1758 373.845 94.5998 373.787Q96.0238 373.729 97.4488 373.706Q98.8738 373.683 100.299 373.695Q101.724 373.707 103.148 373.754Q104.573 373.801 105.996 373.884Q107.419 373.966 108.839 374.084Q110.259 374.201 111.676 374.354Q113.093 374.506 114.506 374.694Z"/>
	<path fill="#6F83A5" d="M261.437 341.673C267.991 345.843 274.768 358.851 279.009 365.655L352.11 480.451L374.624 516.557C377.497 521.099 380.074 525.971 383.291 530.273C391.902 538.147 399.445 547.742 407.713 556.054Q444.468 593.598 483.412 628.867C516.547 658.729 550.921 686.968 584.848 715.901C583.197 717.219 581.339 718.492 579.824 719.953C575.696 723.474 571.332 727.162 566.802 730.157C559.531 736.458 551.421 742.459 544.545 749.101C541.96 751.298 539.265 753.441 536.831 755.804Q515.74 748.366 494.839 740.407C478.999 735.656 463.488 728.86 447.884 723.302C429.671 716.815 410.911 711.248 392.917 704.26C391.275 698.382 387.643 692.454 384.956 686.979C381.593 680.125 378.464 673.126 375.146 666.242C365.846 646.945 357.109 627.322 348.058 607.899L310.946 526.943C304.129 511.919 297.995 496.099 289.882 481.72C283.461 470.338 273.825 460.873 267.142 449.687C265.853 447.53 265.095 445.418 264.754 442.93C263.519 433.903 262.024 372.35 264.027 364.393C263.377 357.307 263.011 349.887 261.556 342.924L261.437 341.673Z"/>
	<path fill="#FAFBFC" d="M261.437 341.673C267.991 345.843 274.768 358.851 279.009 365.655L352.11 480.451L374.624 516.557C377.497 521.099 380.074 525.971 383.291 530.273C382.393 530.153 381.988 529.936 381.226 529.424C369.549 521.581 358.872 511.661 347.866 502.868L323.439 483.343C318.847 479.633 313.841 475.932 309.725 471.696C305.72 467.575 279.121 430.072 277.369 425.622C275.182 420.071 274.143 413.787 272.831 407.975C269.557 393.467 266.974 378.951 264.027 364.393C263.377 357.307 263.011 349.887 261.556 342.924L261.437 341.673Z"/>
	<path fill="#1C3C88" d="M371.828 595.568Q390.468 608.912 409.621 621.509C415.398 625.372 421.031 629.49 426.929 633.168C444.243 643.965 462.293 653.808 479.982 663.985C499.294 675.096 518.493 686.331 537.992 697.122L564.302 711.845C569.284 714.625 574.466 718.012 579.824 719.953C575.696 723.474 571.332 727.162 566.802 730.157C559.531 736.458 551.421 742.459 544.545 749.101C541.96 751.298 539.265 753.441 536.831 755.804Q515.74 748.366 494.839 740.407C494.28 738.259 471.253 713.079 467.961 709.2L405.206 636.319C393.886 622.961 382.879 609.159 371.828 595.568Z"/>
	<path fill="#6F83A5" d="M483.2 686.767C494.372 692.826 505.305 699.45 516.622 705.221C533.265 713.709 550.319 721.326 566.802 730.157C559.531 736.458 551.421 742.459 544.545 749.101C539.219 746.092 534.194 739.226 529.921 734.814L509.007 713.413C500.432 704.644 490.877 696.301 483.2 686.767Z"/>
	<path fill="#359DE0" d="M0 0L1024 0L1024 103.214L1024 162.182L1024 248.533C989.258 247.456 957.823 251.382 931.111 276.248C925.723 281.263 921.403 287.026 917.609 293.312C907.651 283.415 890.249 281.721 876.983 281.782C858.368 281.867 842.338 287.954 827.007 298.345C816.842 280.222 799.456 269.086 779.674 263.506Q778.482 263.176 777.283 262.876Q776.084 262.575 774.878 262.303Q773.672 262.032 772.46 261.789Q771.247 261.547 770.03 261.333Q768.812 261.12 767.589 260.937Q766.367 260.753 765.14 260.599Q763.913 260.445 762.683 260.32Q761.453 260.196 760.22 260.101Q758.988 260.006 757.753 259.941Q756.519 259.876 755.283 259.841Q754.047 259.806 752.811 259.8Q751.574 259.795 750.338 259.819Q749.102 259.844 747.867 259.898Q746.632 259.953 745.399 260.037Q744.165 260.121 742.934 260.235Q741.703 260.349 740.475 260.492Q739.247 260.636 738.023 260.809Q736.799 260.982 735.579 261.185Q734.36 261.387 733.145 261.619Q731.931 261.851 730.723 262.113Q729.514 262.374 728.312 262.664Q727.111 262.955 725.916 263.274Q724.722 263.593 723.536 263.941Q722.349 264.289 721.172 264.666Q719.994 265.042 718.826 265.447Q717.658 265.852 716.5 266.285Q715.342 266.718 714.194 267.178Q713.047 267.639 711.911 268.128Q710.776 268.616 709.652 269.131Q708.528 269.647 707.417 270.19Q706.306 270.732 705.209 271.301Q704.111 271.87 703.028 272.466C699.017 274.718 695.205 277.273 691.402 279.852C680.379 275.925 665.744 275.433 654.438 278.382C649.326 270.488 645.199 261.637 640.651 253.385C637.119 247.017 633.639 238.89 628.938 233.379C626.051 229.994 621.038 227.823 617.178 225.64C609.127 221.087 585.562 208.922 579.86 203.628C575.317 199.409 571.942 192.053 568.546 186.844Q560.14 174.003 551.427 161.369C544.05 150.142 537.314 138.495 530.165 127.123Q512.339 98.9912 494.102 71.1239C493.583 70.192 493.107 69.5232 492.35 68.7713L491.852 69.3475L491.005 68.7671C489.004 70.0568 480.701 85.2329 478.261 88.9908L437.174 152.248C434.431 156.448 432.199 161.777 428.877 165.484C418.124 183.266 406.353 200.527 395.238 218.09C391.786 214.541 387.499 211.542 383.628 208.446Q374.859 201.466 366.309 194.219L365.454 194.859L365.057 194.883L364.705 193.981C363.128 197.109 362.497 201.11 361.34 204.477Q357.052 216.702 352.411 228.798C344.866 248.687 337.86 269.006 329.592 288.595C326.895 295.587 324.527 303.291 320.664 309.714C318.172 313.857 314.848 317.67 311.898 321.494C307.145 318.284 300.265 316.175 294.816 314.292C268.523 305.206 242.715 302.656 215.319 307.988C176.781 315.489 138.107 339.558 116.092 372.312L114.506 374.694Q113.093 374.506 111.676 374.354Q110.259 374.201 108.839 374.084Q107.419 373.966 105.996 373.884Q104.573 373.801 103.148 373.754Q101.724 373.707 100.299 373.695Q98.8738 373.683 97.4488 373.706Q96.0238 373.729 94.5998 373.787Q93.1758 373.845 91.7537 373.939Q90.3315 374.032 88.9122 374.161Q87.4928 374.289 86.077 374.453Q84.6612 374.616 83.2499 374.815Q81.8386 375.013 80.4326 375.246Q79.0266 375.48 77.6268 375.748Q76.2271 376.015 74.8343 376.318Q73.4415 376.62 72.0567 376.957Q70.6718 377.293 69.2957 377.664Q67.9196 378.035 66.553 378.44Q65.1865 378.844 63.8303 379.282Q62.4742 379.721 61.1293 380.192Q59.7844 380.664 58.4515 381.168Q57.1187 381.673 55.7987 382.211Q54.4787 382.748 53.1724 383.318Q51.8661 383.888 50.5742 384.49Q49.2824 385.091 48.0058 385.725Q46.7292 386.359 45.4687 387.024Q44.2081 387.689 42.9644 388.385Q41.7206 389.081 40.4944 389.807Q39.2682 390.533 38.0604 391.29Q36.8525 392.046 35.6637 392.832Q34.4748 393.618 33.3058 394.433Q32.1367 395.249 30.9882 396.092Q29.8396 396.936 28.7122 397.808Q24.5061 401.034 20.7418 404.766C14.3868 401.489 7.03621 400.406 0 399.628L0 264.247L0 170.241L0 117.996L0 0Z"/>
	<path fill="#44B4DC" d="M0 117.996C25.4344 127.109 50.4163 137.932 77.7368 139.967C104.568 141.965 126.389 130.942 151.257 124.327C176.092 117.72 208.201 115.902 233.672 119.52C250.661 121.933 268.324 128.18 282.776 137.479C299.472 148.223 312.968 162.434 333.401 166.126C342.079 167.694 351.202 167.461 359.256 163.549C363.517 161.48 367.513 158.632 371.915 156.896C384.597 151.896 401.243 154.956 413.743 159.117Q421.568 161.688 428.877 165.484C418.124 183.266 406.353 200.527 395.238 218.09C391.786 214.541 387.499 211.542 383.628 208.446Q374.859 201.466 366.309 194.219L365.454 194.859L365.057 194.883L364.705 193.981C363.128 197.109 362.497 201.11 361.34 204.477Q357.052 216.702 352.411 228.798C336.385 226.768 317.163 231.584 302.562 238.009Q297.689 232.316 292.415 226.991Q291.56 226.133 290.685 225.295Q289.809 224.458 288.913 223.643Q288.017 222.828 287.101 222.035Q286.185 221.242 285.25 220.472Q284.315 219.702 283.361 218.955Q282.407 218.209 281.435 217.486Q280.463 216.763 279.474 216.064Q278.484 215.365 277.478 214.691Q276.471 214.017 275.449 213.368Q274.426 212.719 273.387 212.095Q272.349 211.472 271.295 210.874Q270.242 210.276 269.174 209.704Q268.105 209.133 267.024 208.588Q265.942 208.042 264.847 207.524Q263.752 207.006 262.645 206.515Q261.537 206.024 260.418 205.56Q259.299 205.097 258.169 204.661Q257.038 204.225 255.898 203.817Q254.757 203.41 253.607 203.03Q252.456 202.651 251.297 202.3Q250.137 201.949 248.97 201.626Q247.802 201.304 246.627 201.011Q245.451 200.717 244.269 200.453Q243.087 200.189 241.899 199.954Q240.71 199.719 239.516 199.513Q238.323 199.307 237.124 199.131Q235.926 198.955 234.723 198.809Q233.521 198.662 232.315 198.546Q231.109 198.429 229.901 198.342Q228.693 198.255 227.483 198.198Q226.273 198.141 225.061 198.114Q223.85 198.086 222.639 198.089C195.379 198.137 169.829 209.463 150.709 228.623C145.335 226.975 140.136 224.889 134.678 223.475C118.136 219.189 99.3664 219.423 82.9096 223.947C78.2226 217.431 72.1787 211.571 66.2238 206.193C45.8303 187.776 26.0571 177.894 0 170.241L0 117.996Z"/>
	<path fill="#4DB9CA" d="M0 170.241C26.0571 177.894 45.8303 187.776 66.2238 206.193C72.1787 211.571 78.2226 217.431 82.9096 223.947C99.3664 219.423 118.136 219.189 134.678 223.475C140.136 224.889 145.335 226.975 150.709 228.623C169.829 209.463 195.379 198.137 222.639 198.089Q223.85 198.086 225.061 198.114Q226.273 198.141 227.483 198.198Q228.693 198.255 229.901 198.342Q231.109 198.429 232.315 198.546Q233.521 198.662 234.723 198.809Q235.926 198.955 237.124 199.131Q238.323 199.307 239.516 199.513Q240.71 199.719 241.899 199.954Q243.087 200.189 244.269 200.453Q245.451 200.717 246.627 201.011Q247.802 201.304 248.97 201.626Q250.137 201.949 251.297 202.3Q252.456 202.651 253.607 203.03Q254.757 203.41 255.898 203.817Q257.038 204.225 258.169 204.661Q259.299 205.097 260.418 205.56Q261.537 206.024 262.645 206.515Q263.752 207.006 264.847 207.524Q265.942 208.042 267.024 208.588Q268.105 209.133 269.173 209.704Q270.242 210.276 271.295 210.874Q272.349 211.472 273.387 212.095Q274.426 212.719 275.449 213.368Q276.471 214.017 277.478 214.691Q278.484 215.365 279.474 216.064Q280.463 216.763 281.435 217.486Q282.407 218.209 283.361 218.955Q284.315 219.702 285.25 220.472Q286.185 221.242 287.101 222.035Q288.017 222.828 288.913 223.643Q289.809 224.458 290.685 225.295Q291.56 226.133 292.415 226.991Q297.689 232.316 302.562 238.009C317.163 231.584 336.385 226.768 352.411 228.798C344.866 248.687 337.86 269.006 329.592 288.595C326.895 295.587 324.527 303.291 320.664 309.714C318.172 313.857 314.848 317.67 311.898 321.494C307.145 318.284 300.265 316.175 294.816 314.292C268.523 305.206 242.715 302.656 215.319 307.988C176.781 315.489 138.107 339.558 116.092 372.312L114.506 374.694Q113.093 374.506 111.676 374.354Q110.259 374.201 108.839 374.084Q107.419 373.966 105.996 373.884Q104.573 373.801 103.148 373.754Q101.724 373.707 100.299 373.695Q98.8738 373.683 97.4488 373.706Q96.0238 373.729 94.5998 373.787Q93.1758 373.845 91.7537 373.939Q90.3315 374.032 88.9122 374.161Q87.4928 374.289 86.077 374.453Q84.6612 374.616 83.2499 374.815Q81.8386 375.013 80.4326 375.246Q79.0266 375.48 77.6268 375.748Q76.2271 376.015 74.8343 376.318Q73.4415 376.62 72.0567 376.957Q70.6718 377.293 69.2957 377.664Q67.9196 378.035 66.553 378.44Q65.1865 378.844 63.8303 379.282Q62.4742 379.721 61.1293 380.192Q59.7844 380.664 58.4515 381.168Q57.1187 381.673 55.7987 382.211Q54.4787 382.748 53.1724 383.318Q51.8661 383.888 50.5742 384.49Q49.2824 385.091 48.0058 385.725Q46.7292 386.359 45.4687 387.024Q44.2081 387.689 42.9644 388.385Q41.7206 389.081 40.4944 389.807Q39.2682 390.533 38.0604 391.29Q36.8525 392.046 35.6637 392.832Q34.4748 393.618 33.3058 394.433Q32.1367 395.249 30.9882 396.092Q29.8396 396.936 28.7122 397.808Q24.5061 401.034 20.7418 404.766C14.3868 401.489 7.03621 400.406 0 399.628L0 264.247L0 170.241Z"/>
	<path fill="#78CBBB" d="M181.032 301.429C183.939 289.878 195.108 277.44 205.192 271.432C229.18 257.137 255.572 253.841 282.509 260.983C299.818 265.572 317.567 275.147 329.592 288.595C326.895 295.587 324.527 303.291 320.664 309.714C318.172 313.857 314.848 317.67 311.898 321.494C307.145 318.284 300.265 316.175 294.816 314.292C268.523 305.206 242.715 302.656 215.319 307.988C176.781 315.489 138.107 339.558 116.092 372.312L114.506 374.694Q113.093 374.506 111.676 374.354Q110.259 374.201 108.839 374.084Q107.419 373.966 105.996 373.884Q104.573 373.801 103.148 373.754Q101.724 373.707 100.299 373.695Q98.8738 373.683 97.4488 373.706Q96.0238 373.729 94.5998 373.787Q93.1758 373.845 91.7537 373.939Q90.3315 374.032 88.9122 374.161Q87.4928 374.289 86.077 374.453Q84.6612 374.616 83.2499 374.815Q81.8386 375.013 80.4326 375.246Q79.0266 375.48 77.6268 375.748Q76.2271 376.015 74.8343 376.318Q73.4415 376.62 72.0567 376.957Q70.6718 377.293 69.2957 377.664Q67.9196 378.035 66.553 378.44Q65.1865 378.844 63.8303 379.282Q62.4742 379.721 61.1293 380.192Q59.7844 380.664 58.4515 381.168Q57.1187 381.673 55.7987 382.211Q54.4787 382.748 53.1724 383.318Q51.8661 383.888 50.5742 384.49Q49.2824 385.091 48.0058 385.725Q46.7292 386.359 45.4687 387.024Q44.2081 387.689 42.9644 388.385Q41.7206 389.081 40.4944 389.807Q39.2682 390.533 38.0604 391.29Q36.8525 392.046 35.6637 392.832Q34.4748 393.618 33.3058 394.433Q32.1367 395.249 30.9882 396.092Q29.8396 396.936 28.7122 397.808Q24.5061 401.034 20.7418 404.766C14.3868 401.489 7.03621 400.406 0 399.628L0 264.247C26.3027 266.529 52.5531 276.133 69.8809 296.987Q72.5919 300.255 74.6096 303.991C90.566 288.908 111.234 280.585 133.275 281.166C151.685 281.651 167.728 288.938 181.032 301.429Z"/>
	<path fill="#44B4DC" d="M551.427 161.369C556.888 161.803 562.59 164.292 567.838 165.932C580.065 169.755 592.787 173.634 605.644 174.331C632.321 175.778 655.86 160.251 682.46 159.963C715.023 159.61 731.365 181.99 765.774 170.54C779.704 165.905 790.472 157.999 802.545 150.017C822.463 136.848 845.27 125.861 869.111 122.559C885.9 120.233 902.709 120.936 919.362 123.978C935.658 126.956 952.324 131.841 969.052 130.255C989.268 128.337 1010.93 119.087 1024 103.214L1024 162.182L1024 248.533C989.258 247.456 957.823 251.382 931.111 276.248C925.723 281.263 921.403 287.026 917.609 293.312C907.651 283.415 890.249 281.721 876.983 281.782C858.368 281.867 842.338 287.954 827.007 298.345C816.842 280.222 799.456 269.086 779.674 263.506Q778.482 263.176 777.283 262.876Q776.084 262.575 774.878 262.303Q773.672 262.032 772.46 261.789Q771.247 261.547 770.03 261.333Q768.812 261.12 767.589 260.937Q766.367 260.753 765.14 260.599Q763.913 260.445 762.683 260.32Q761.453 260.196 760.22 260.101Q758.988 260.006 757.753 259.941Q756.519 259.876 755.283 259.841Q754.047 259.806 752.811 259.8Q751.574 259.795 750.338 259.819Q749.102 259.844 747.867 259.898Q746.632 259.953 745.399 260.037Q744.165 260.121 742.934 260.235Q741.703 260.349 740.475 260.492Q739.247 260.636 738.023 260.809Q736.799 260.982 735.579 261.185Q734.36 261.387 733.145 261.619Q731.931 261.851 730.723 262.113Q729.514 262.374 728.312 262.664Q727.111 262.955 725.916 263.274Q724.722 263.593 723.536 263.941Q722.349 264.289 721.172 264.666Q719.994 265.042 718.826 265.447Q717.658 265.852 716.5 266.285Q715.342 266.718 714.194 267.178Q713.047 267.639 711.911 268.128Q710.776 268.616 709.652 269.131Q708.528 269.647 707.417 270.19Q706.306 270.732 705.209 271.301Q704.111 271.87 703.028 272.466C699.017 274.718 695.205 277.273 691.402 279.852C680.379 275.925 665.744 275.433 654.438 278.382C649.326 270.488 645.199 261.637 640.651 253.385C637.119 247.017 633.639 238.89 628.938 233.379C626.051 229.994 621.038 227.823 617.178 225.64C609.127 221.087 585.562 208.922 579.86 203.628C575.317 199.409 571.942 192.053 568.546 186.844Q560.14 174.003 551.427 161.369Z"/>
	<path fill="#4DB9CA" d="M1024 162.182L1024 248.533C989.258 247.456 957.823 251.382 931.111 276.248C925.723 281.263 921.403 287.026 917.609 293.312C907.651 283.415 890.249 281.721 876.983 281.782C858.368 281.867 842.338 287.954 827.007 298.345C816.842 280.222 799.456 269.086 779.674 263.506Q778.482 263.176 777.283 262.876Q776.084 262.575 774.878 262.303Q773.672 262.032 772.46 261.789Q771.247 261.547 770.03 261.333Q768.812 261.12 767.589 260.937Q766.367 260.753 765.14 260.599Q763.913 260.445 762.683 260.32Q761.453 260.196 760.22 260.101Q758.988 260.006 757.753 259.941Q756.519 259.876 755.283 259.841Q754.047 259.806 752.811 259.8Q751.574 259.795 750.338 259.819Q749.102 259.844 747.867 259.898Q746.632 259.953 745.399 260.037Q744.165 260.121 742.934 260.235Q741.703 260.349 740.475 260.492Q739.247 260.636 738.023 260.809Q736.799 260.982 735.579 261.185Q734.36 261.387 733.145 261.619Q731.931 261.851 730.723 262.113Q729.514 262.374 728.312 262.664Q727.111 262.955 725.916 263.274Q724.722 263.593 723.536 263.941Q722.349 264.289 721.172 264.666Q719.994 265.042 718.826 265.447Q717.658 265.852 716.5 266.285Q715.342 266.718 714.194 267.178Q713.047 267.639 711.911 268.128Q710.776 268.616 709.652 269.131Q708.528 269.647 707.417 270.19Q706.306 270.732 705.209 271.301Q704.111 271.87 703.028 272.466C699.017 274.718 695.205 277.273 691.402 279.852C680.379 275.925 665.744 275.433 654.438 278.382C649.326 270.488 645.199 261.637 640.651 253.385C646.005 250.857 650.509 247.524 656.251 245.614C663.114 243.332 670.506 241.828 677.763 242.621C686.075 243.53 693.57 248.184 702.117 245.608C709.606 243.351 715.528 236.801 721.48 232.024C736.179 220.228 751.958 211.572 770.558 207.734C790.057 203.712 809.848 207.532 827.394 216.655C835.027 220.624 842.212 225.095 850.739 226.946C860.933 229.16 871.561 227.864 881.591 225.426C902.183 220.419 911.809 210.493 927.616 197.762C958.298 173.051 985.427 165.421 1024 162.182Z"/>
	<path fill="#1A1840" d="M0 725.008C10.3696 717.137 118.494 641.669 121.777 641.026C122.346 640.915 122.936 641.01 123.515 641.003C125.771 641.343 128.598 641.448 130.667 642.394C147.517 643.537 164.424 646.476 181.087 649.17C211.415 654.072 242.107 659.658 271.732 667.873C290.671 672.741 309.633 677.495 328.369 683.108C341.719 687.107 354.829 691.695 368.027 696.15C376.232 698.92 384.876 701.104 392.917 704.26C410.911 711.248 429.671 716.815 447.884 723.302C463.488 728.86 478.999 735.656 494.839 740.407Q515.74 748.366 536.831 755.804C551.376 761.015 565.575 767.129 579.882 772.945C599.326 780.85 618.781 788.638 637.872 797.379C641.779 797.799 666.916 790.182 672.782 788.678Q705.799 780.014 739.037 772.24C751.232 769.361 763.49 766.083 775.895 764.271Q787.374 762.494 798.831 760.578C805.732 766.555 856.569 780.775 867.027 781.63C868.407 776.624 869.542 771.568 870.882 766.557C872.787 771.799 874.222 777.241 876.195 782.439C878.861 790.577 881.316 798.837 884.183 806.903C895.143 807.737 906.314 810.553 917.269 810.578C925.054 810.596 933.121 809.058 940.835 808.057C958.228 805.799 975.557 803.027 992.96 800.887C993.665 798.911 994.708 796.948 995.567 795.025C996.174 796.62 996.56 798.33 997.007 799.979C1005.81 798.039 1015.03 797.146 1024 796.363L1024 858.709L1024 1024L721.033 1024L0 1024L0 863.365L0 725.008Z"/>
	<path fill="#1A775F" d="M997.007 799.979C1005.81 798.039 1015.03 797.146 1024 796.363L1024 858.709L1016.82 860.372C1010.77 840.089 1003.31 820.196 997.007 799.979Z"/>
	<path fill="#1A775F" d="M884.183 806.903C895.143 807.737 906.314 810.553 917.269 810.578C925.054 810.596 933.121 809.058 940.835 808.057C958.228 805.799 975.557 803.027 992.96 800.887C983.495 822.82 976.457 845.888 966.121 867.495C961.294 859.511 953.336 833.549 950.515 823.63C948.618 831.855 946.079 839.941 943.687 848.032C941.549 855.265 939.606 862.786 936.668 869.74C930.495 871.012 924.074 871.611 917.988 873.165Q913.962 862.789 910.237 852.301C908.447 857.391 906.807 862.609 904.576 867.524Q898.257 849.407 892.267 831.179C889.616 823.109 887.185 814.843 884.183 806.903Z"/>
	<path fill="#0A6758" d="M0 725.008C10.3696 717.137 118.494 641.669 121.777 641.026C122.346 640.915 122.936 641.01 123.515 641.003L123.47 641.49C124.384 649.948 132.319 664.93 135.892 673.101C145.455 694.978 160.217 727.61 175.855 745.364C183.701 754.27 193.097 761.949 201.881 769.904C209.216 776.546 216.249 783.614 223.953 789.828C231.972 796.296 240.543 802.065 249.017 807.912C254.065 811.395 259.284 815.583 264.917 818.062C271.729 821.06 279.979 822.128 287.237 823.632Q307.147 827.595 327.007 831.8C348.577 836.541 370.387 841.244 391.807 846.563C403.524 849.473 415.079 853.024 426.791 855.924C414.451 866.473 335.129 902.077 332.91 907.41C321.478 906.202 310.103 902.578 298.621 901.106Q291.524 881.333 284.921 861.389C281.319 850.513 277.672 839.868 275.502 828.594C272.562 835.995 270.628 844.105 268.23 851.72C263.499 866.747 258.487 881.762 252.544 896.354C247.35 884.207 243.666 870.951 240.251 858.204Q236.088 875.544 230.623 892.519C225.177 872.192 220.389 851.696 214.869 831.371C210.437 815.052 205.038 799.08 201.914 782.435C197.402 800.34 192.301 818.136 187.481 835.964C182.799 853.283 178.423 870.635 172.979 887.738Q168.526 887.481 164.082 887.094C159.395 873.507 156.765 859.376 152.554 845.679C149.278 858.937 145.087 872.036 141.132 885.108L132.636 886.276C129.998 877.511 128.189 868.417 125.856 859.556C118.362 831.082 111.395 802.603 104.537 773.976C100.152 791.6 95.3144 809.22 90.5588 826.751C87.1242 839.413 84.0229 852.358 79.4609 864.662C76.3183 852.271 73.7334 839.732 70.6968 827.311C65.0959 804.401 59.2631 781.546 54.9329 758.348Q41.7636 818.663 25.2168 878.141C19.1351 877.21 12.9328 876.896 6.80092 876.443C4.44095 872.132 2.39341 867.666 0 863.365L0 725.008Z"/>
	<path fill="#1A775F" d="M123.515 641.003C125.771 641.343 128.598 641.448 130.667 642.394C147.517 643.537 164.424 646.476 181.087 649.17C211.415 654.072 242.107 659.658 271.732 667.873C290.671 672.741 309.633 677.495 328.369 683.108C341.719 687.107 354.829 691.695 368.027 696.15C376.232 698.92 384.876 701.104 392.917 704.26C410.911 711.248 429.671 716.815 447.884 723.302C463.488 728.86 478.999 735.656 494.839 740.407Q515.74 748.366 536.831 755.804C551.376 761.015 565.575 767.129 579.882 772.945C599.326 780.85 618.781 788.638 637.872 797.379C641.779 797.799 666.916 790.182 672.782 788.678Q705.799 780.014 739.037 772.24C751.232 769.361 763.49 766.083 775.895 764.271Q787.374 762.494 798.831 760.578C805.732 766.555 856.569 780.775 867.027 781.63C864.421 789.248 861.446 796.932 859.282 804.681C856.245 814.546 852.957 824.333 849.97 834.212C845.317 849.603 840.92 865.074 835.537 880.233L818.649 833.865C815.069 823.943 811.803 813.723 807.696 804.018L788.261 866.433C785.329 875.697 782.888 885.84 779.021 894.729C775.422 895.637 771.825 896.62 768.208 897.449C763.923 880.756 758.352 864.494 753.951 847.859C750.34 858.346 746.625 868.842 743.337 879.436C741.027 886.882 739.297 894.994 736.178 902.125C715.288 906.736 694.693 911.983 673.936 917.116C653.341 922.209 632.382 927.178 612.226 933.793C587.546 941.577 562.498 949.043 538.361 958.346Q506.671 948.223 474.472 939.857C464.723 937.259 454.836 935.033 445.17 932.147C410.74 924.53 376.48 914.647 341.639 909.113C338.695 908.658 335.815 908.064 332.91 907.41C335.129 902.077 414.451 866.473 426.791 855.924C415.079 853.024 403.524 849.473 391.807 846.563C370.387 841.244 348.577 836.541 327.007 831.8Q307.147 827.595 287.237 823.632C279.979 822.128 271.729 821.06 264.917 818.062C259.284 815.583 254.065 811.395 249.017 807.912C240.543 802.065 231.972 796.296 223.953 789.828C216.249 783.614 209.216 776.546 201.881 769.904C193.097 761.949 183.701 754.27 175.855 745.364C160.217 727.61 145.455 694.978 135.892 673.101C132.319 664.93 124.384 649.948 123.47 641.49L123.515 641.003Z"/>
	<path fill="#43C563" d="M775.895 764.271Q787.374 762.494 798.831 760.578C805.732 766.555 856.569 780.775 867.027 781.63C864.421 789.248 861.446 796.932 859.282 804.681C854.076 804.475 848.734 803.522 843.554 802.87Q830.168 801.274 816.836 799.281C813.569 798.766 809.368 798.429 806.45 796.847C801.531 794.18 780.016 769.933 775.895 764.271Z"/>
	<path fill="#164137" d="M495.058 901.363C516.259 908.145 537.853 913.625 559.322 919.477Q578.807 924.856 598.373 929.928C602.999 931.151 607.579 932.69 612.226 933.793C587.546 941.577 562.498 949.043 538.361 958.346Q506.671 948.223 474.472 939.857C464.723 937.259 454.836 935.033 445.17 932.147C452.042 928.737 458.609 924.202 465.146 920.172C475.153 914.001 485.333 907.969 495.058 901.363Z"/>
	<path fill="#43C563" d="M123.515 641.003C125.771 641.343 128.598 641.448 130.667 642.394C147.517 643.537 164.424 646.476 181.087 649.17C211.415 654.072 242.107 659.658 271.732 667.873C290.671 672.741 309.633 677.495 328.369 683.108C341.719 687.107 354.829 691.695 368.027 696.15C376.232 698.92 384.876 701.104 392.917 704.26C410.911 711.248 429.671 716.815 447.884 723.302C463.488 728.86 478.999 735.656 494.839 740.407Q515.74 748.366 536.831 755.804C551.376 761.015 565.575 767.129 579.882 772.945C599.326 780.85 618.781 788.638 637.872 797.379C622.11 803.585 605.892 808.928 589.946 814.674C577.166 819.28 564.366 824.49 551.442 828.629C543.383 831.1 535.454 834.146 527.498 836.936Q504.255 844.881 481.3 853.622C473.495 856.567 461.105 860.367 454.189 863.872C448.607 858.257 400.837 819.477 396.33 817.831C391.455 816.052 376.582 816.172 370.621 815.767Q329.36 812.915 288.071 810.484C288.038 792.407 286.317 774.319 286.075 756.224C264.837 748.431 242.708 742.786 221.096 736.13C216.25 726.75 211.177 717.471 206.17 708.176C203.032 702.351 200.002 695.247 195.722 690.25C191.647 685.491 184.396 681.613 179.151 678.061C160.768 665.614 141.422 654.531 123.47 641.49L123.515 641.003Z"/>
	<path fill="#B8F461" d="M130.667 642.394C147.517 643.537 164.424 646.476 181.087 649.17C211.415 654.072 242.107 659.658 271.732 667.873C290.671 672.741 309.633 677.495 328.369 683.108C341.719 687.107 354.829 691.695 368.027 696.15C376.232 698.92 384.876 701.104 392.917 704.26C410.911 711.248 429.671 716.815 447.884 723.302C463.488 728.86 478.999 735.656 494.839 740.407Q515.74 748.366 536.831 755.804C551.376 761.015 565.575 767.129 579.882 772.945C599.326 780.85 618.781 788.638 637.872 797.379C622.11 803.585 605.892 808.928 589.946 814.674C577.166 819.28 564.366 824.49 551.442 828.629C547.524 823.833 542.839 819.583 538.385 815.288C527.976 805.25 516.956 795.726 507.149 785.099C491.917 788.663 476.721 793.031 461.536 796.866C437.007 773.755 410.895 752.405 386.162 729.504C377.34 730.182 354.449 733.159 346.942 731.748C338.319 730.127 326.523 724.277 318.094 721.01Q233.571 688.92 151.105 651.86C147.847 650.417 132.088 644.429 130.667 642.394Z"/>
</svg>
