<?xml version="1.0" encoding="utf-8" ?>
<svg xmlns="http://www.w3.org/2000/svg" xmlns:xlink="http://www.w3.org/1999/xlink" width="921" height="921">
	<path fill="#FEFEFE" transform="scale(0.899846 0.899846)" d="M0 0L1024 0L1024 1024L0 1024L0 0Z"/>
	<path fill="#18452E" transform="scale(0.899846 0.899846)" d="M571.5 840.834C588.765 848.078 604.938 859.159 621.25 868.33L660.071 890.385C670.91 896.483 682.602 902.499 692.601 909.849Q654.913 915 617.645 922.62C579.059 930.145 539.704 938.424 500.249 938.962C501.911 933.755 501.654 926.393 501.973 920.92C508.379 911.573 520.599 899.063 528.39 890.209C539.572 877.501 550.085 864.214 561.215 851.49C564.464 847.776 568.198 844.503 571.5 840.834Z"/>
	<path fill="#0C98B1" transform="scale(0.899846 0.899846)" d="M231.035 214.857C239.75 206.517 249.805 198.961 259.44 191.712C325.336 142.133 408.853 111.685 490.914 104.861L458.024 176.747C455.198 182.777 452.028 192.609 448.417 197.616C442.623 197.506 435.501 200.355 429.872 201.941C412.405 206.863 394.161 213.829 376.062 215.542C341.556 218.809 313.287 203.252 280.072 204.112Q274.678 204.29 269.328 204.996Q263.978 205.701 258.723 206.928C254.015 208.03 249.186 209.2 244.621 210.794C240.917 212.087 237.161 214.049 233.356 214.936C232.497 215.137 231.877 215.057 231.035 214.857Z"/>
	<path fill="#BBE2E6" transform="scale(0.899846 0.899846)" d="M855.505 563.745C869.273 555.859 882.348 546.405 897.134 540.453C912.85 534.127 930.29 532.36 946.123 539.154Q946.177 548.369 945.86 557.578Q945.543 566.787 944.855 575.976Q944.167 585.165 943.11 594.319Q942.052 603.473 940.627 612.577Q939.202 621.681 937.411 630.72Q935.62 639.759 933.467 648.718Q931.313 657.678 928.8 666.543Q926.288 675.409 923.42 684.166Q917.824 700.654 911.556 716.898C909.169 723.073 906.401 729.246 904.427 735.558C892.429 724.351 876.678 710.888 868.303 696.63C863.914 689.16 860.854 680.532 857.49 672.541C857.403 666.278 841.057 629.653 837.698 621.181C829.732 601.089 823.433 579.628 813.14 560.592Q816.576 559.698 820.025 558.858C832.335 555.934 844.639 557.039 855.505 563.745Z"/>
	<path fill="#0C98B1" transform="scale(0.899846 0.899846)" d="M516.04 104.332Q519.769 104.489 523.495 104.708Q527.221 104.926 530.943 105.207Q534.665 105.488 538.382 105.83Q542.099 106.173 545.81 106.577Q549.52 106.982 553.224 107.448Q556.927 107.914 560.622 108.441Q564.317 108.968 568.003 109.557Q571.689 110.146 575.364 110.796Q579.04 111.446 582.704 112.157Q586.368 112.868 590.02 113.64Q593.672 114.412 597.311 115.244Q600.949 116.077 604.573 116.969Q608.198 117.862 611.806 118.815Q615.415 119.768 619.008 120.781Q622.6 121.794 626.175 122.866Q629.751 123.938 633.308 125.07Q636.864 126.202 640.402 127.392Q643.94 128.583 647.457 129.832Q650.974 131.082 654.47 132.389Q657.966 133.697 661.44 135.062Q664.914 136.428 668.364 137.851Q671.815 139.274 675.241 140.754Q678.668 142.235 682.069 143.772Q685.471 145.309 688.846 146.902Q692.221 148.495 695.57 150.145Q698.918 151.794 702.239 153.498Q705.559 155.203 708.851 156.963Q712.143 158.722 715.405 160.537Q718.667 162.351 721.898 164.219Q725.13 166.087 728.33 168.009Q731.53 169.93 734.697 171.905Q737.865 173.879 740.999 175.906C754.967 184.863 768.834 194.053 781.462 204.861C775.804 208.554 766.53 210.43 759.952 212.233Q756.071 213.313 752.161 214.283Q748.25 215.253 744.314 216.113Q740.378 216.973 736.419 217.721Q732.461 218.469 728.482 219.105Q724.504 219.741 720.51 220.265Q716.515 220.789 712.507 221.2Q708.499 221.61 704.482 221.908Q700.464 222.206 696.439 222.39Q692.414 222.574 688.386 222.645Q684.358 222.715 680.33 222.672Q676.301 222.629 672.275 222.473Q668.25 222.316 664.23 222.046Q660.21 221.776 656.199 221.392Q652.189 221.009 648.191 220.512Q644.193 220.016 640.21 219.407Q636.228 218.798 632.264 218.077C621.739 216.058 610.973 213.743 600.768 210.453C594.511 208.435 588.278 205.264 581.844 203.987C581.66 203.95 581.476 203.92 581.292 203.886C560.469 180.497 542.315 147.121 525.775 120.134C523.36 116.194 517.136 108.049 516.04 104.332Z"/>
	<path fill="#3AB3C4" transform="scale(0.899846 0.899846)" d="M231.035 214.857C231.877 215.057 232.497 215.137 233.356 214.936C237.161 214.049 240.917 212.087 244.621 210.794C249.186 209.2 254.015 208.03 258.723 206.928Q263.978 205.701 269.328 204.996Q274.678 204.29 280.072 204.112C313.287 203.252 341.556 218.809 376.062 215.542C394.161 213.829 412.405 206.863 429.872 201.941C435.501 200.355 442.623 197.506 448.417 197.616C439.719 218.837 432.149 240.511 423.519 261.771C420.829 268.396 418.296 275.272 415.233 281.727C409.436 277.441 403.144 273.782 397.402 269.482C392.109 280.197 387.603 291.187 383.433 302.378C379.271 302.73 374.89 304.07 370.793 304.96C356.071 308.158 341.611 311.89 326.395 310.277C317.553 309.34 309.551 305.955 301.447 302.528C280.454 293.652 264.781 285.468 241.917 293.602C235.318 295.949 228.974 299.028 222.428 301.525C205.677 307.915 188.73 309.17 171.043 306.999C165 306.258 158.858 305.297 153.256 302.807C169.712 276.83 189.805 253.823 211.873 232.52C218.119 226.49 224.282 220.325 231.035 214.857Z"/>
	<path fill="#3AB3C4" transform="scale(0.899846 0.899846)" d="M581.292 203.886C581.476 203.92 581.66 203.95 581.844 203.987C588.278 205.264 594.511 208.435 600.768 210.453C610.973 213.743 621.739 216.058 632.264 218.077Q636.228 218.798 640.21 219.407Q644.193 220.016 648.191 220.512Q652.189 221.009 656.199 221.392Q660.21 221.776 664.23 222.046Q668.25 222.316 672.275 222.472Q676.301 222.629 680.33 222.672Q684.358 222.715 688.386 222.645Q692.414 222.574 696.439 222.39Q700.464 222.206 704.482 221.908Q708.499 221.61 712.507 221.2Q716.515 220.789 720.51 220.265Q724.504 219.741 728.482 219.105Q732.461 218.469 736.419 217.721Q740.378 216.973 744.314 216.113Q748.25 215.253 752.16 214.283Q756.071 213.313 759.952 212.233C766.53 210.43 775.804 208.554 781.462 204.861Q784.471 207.325 787.438 209.839Q790.404 212.353 793.328 214.917Q796.251 217.482 799.131 220.095Q802.011 222.709 804.845 225.371Q807.68 228.033 810.469 230.743Q813.258 233.453 816.001 236.21Q818.744 238.967 821.439 241.77Q824.135 244.573 826.782 247.422Q829.43 250.27 832.029 253.163Q834.627 256.056 837.177 258.993Q839.726 261.929 842.225 264.909Q844.724 267.889 847.172 270.91Q849.62 273.932 852.016 276.995Q854.412 280.057 856.756 283.161Q859.1 286.264 861.391 289.406Q863.682 292.548 865.919 295.729Q868.157 298.91 870.339 302.128Q872.522 305.347 874.65 308.602Q876.778 311.857 878.85 315.148Q880.923 318.438 882.939 321.764Q884.955 325.089 886.914 328.448Q888.874 331.807 890.776 335.199Q892.677 338.591 894.522 342.015Q896.366 345.439 898.151 348.893Q899.937 352.348 901.664 355.832Q903.391 359.317 905.058 362.83Q906.725 366.343 908.333 369.884Q909.94 373.426 911.487 376.993Q913.034 380.561 914.52 384.155Q916.006 387.749 917.431 391.367Q918.856 394.985 920.219 398.627Q921.583 402.269 922.884 405.934L922.483 406.025C914.284 407.925 902.321 405.297 894.188 403.517C850.23 393.902 817.25 366.07 783.033 338.877C769.857 328.405 757.075 317.659 741.484 310.88C715.831 299.725 690.627 309.423 669.328 298.526C662.368 294.966 656.607 289.987 650.787 284.85C634.151 270.17 619.315 256.01 595.554 255.984C594.68 245.847 592.066 223.541 588.322 214.772C586.573 210.676 584.029 207.358 581.292 203.886Z"/>
	<path fill="#69BCC4" transform="scale(0.899846 0.899846)" d="M153.256 302.807C158.858 305.297 165 306.258 171.043 306.999C188.73 309.17 205.677 307.915 222.428 301.525C228.974 299.028 235.318 295.949 241.917 293.602C264.781 285.468 280.454 293.652 301.447 302.528C309.551 305.955 317.553 309.34 326.395 310.277C341.611 311.89 356.071 308.158 370.793 304.96C374.89 304.07 379.271 302.73 383.433 302.378Q369.254 334.877 355.814 367.689C348.78 384.946 342.153 402.705 334.353 419.613L319.398 456.891C316.744 463.474 314.323 471.906 310.248 477.649C306.893 482.377 300.925 486.383 296.505 490.156C294.053 488.429 290.549 487.583 287.804 486.243C278.484 481.694 269.417 476.184 259.613 472.735C254.868 470.091 249.275 469.115 243.936 468.464C218.968 465.421 199.578 474.642 176.174 480.6C164.775 475.61 153.796 469.699 142.674 464.129Q129.03 457.369 115.138 451.133C112.494 449.917 92.5806 441.366 91.8131 440.768C91.4727 440.502 91.3883 440.016 91.1758 439.64C95.6559 423.322 101.178 407.673 106.608 391.667C119.566 360.562 133.794 330.471 153.256 302.807Z"/>
	<path fill="#69BCC4" transform="scale(0.899846 0.899846)" d="M595.554 255.984C619.315 256.01 634.151 270.17 650.787 284.85C656.607 289.987 662.368 294.966 669.328 298.526C690.627 309.423 715.831 299.725 741.484 310.88C757.075 317.659 769.857 328.405 783.033 338.877C817.25 366.07 850.23 393.902 894.188 403.517C902.321 405.297 914.284 407.925 922.483 406.025L922.884 405.934Q928.578 422.34 932.919 439.154Q937.261 455.968 940.223 473.079C943.301 495.183 946.042 516.792 946.123 539.154C930.29 532.36 912.85 534.127 897.134 540.453C882.348 546.405 869.273 555.859 855.505 563.745C844.639 557.039 832.335 555.934 820.025 558.858Q816.576 559.698 813.14 560.592C804.011 543.05 794.948 525.493 784.858 508.47C779.686 496.188 773.279 484.396 767.506 472.387C760.991 458.431 753.914 444.726 745.416 431.862C737.43 419.771 728.304 408.232 720.861 395.801C716.418 388.381 715.205 378.986 711.495 371.148C709.468 366.867 705.761 362.907 702.791 359.234C700.559 356.473 698.333 353.094 695.601 350.876L694.984 351.397C695.076 352.158 695.03 352.581 694.855 353.354C694.797 353.611 694.727 353.865 694.663 354.12L694.077 354.002C684.348 368.42 675.41 383.559 666.695 398.614C662.141 406.48 658.056 415.996 652.298 422.974C650.146 422.818 646.458 422.05 644.537 422.998L644.257 423.402C641.156 405.005 634.999 387.26 629.28 369.562Q617.804 334.918 606.786 300.126C602.437 286.221 596.417 270.589 595.554 255.984Z"/>
	<path fill="#123144" transform="scale(0.899846 0.899846)" d="M91.1758 439.64C91.3883 440.016 91.4727 440.502 91.8131 440.768C92.5806 441.366 112.494 449.917 115.138 451.133Q129.03 457.369 142.674 464.129C153.796 469.699 164.775 475.61 176.174 480.6C199.578 474.642 218.968 465.421 243.936 468.464C249.275 469.115 254.868 470.091 259.613 472.735C269.417 476.184 278.484 481.694 287.804 486.243C290.549 487.583 294.053 488.429 296.505 490.156C289.451 496.912 280.65 503.015 274.653 510.64C278.669 519.091 290.96 542.46 296.898 548.902C302.159 554.608 310.36 559.071 314.361 565.651C318.705 572.796 321.911 581.101 325.427 588.693C333.009 605.063 340.446 621.894 348.768 637.877C351.844 642.635 355.817 646.88 359.431 651.247C368.135 661.764 378.913 674.101 385.74 685.79L383.317 687.124C377.274 691.321 370.776 694.868 364.362 698.458C360.868 700.414 356.653 702.351 353.609 704.98C341.965 708.914 330.1 712.697 318.693 717.269C300.179 722.237 279.752 721.503 260.709 722.737C252.722 729.309 244.12 735.677 235.487 741.376C226.817 747.392 151.788 799.899 149.244 800.471C147.795 802.234 146.327 803.568 144.146 804.341C139.355 807.998 133.99 810.765 129.163 814.333C119.379 820.477 110.526 827.996 101.001 834.522C88.9713 842.764 76.3508 850.054 64.1443 858.02C55.4687 863.681 45.6636 871.388 35.8104 874.694C43.3694 843.748 52.7795 813.087 61.4885 782.441C63.3891 775.753 68.133 754.802 71.0628 749.984C77.6726 739.115 91.5196 725.38 100.128 715.122C103.901 710.625 107.119 705.702 110.386 700.834C105.659 694.275 103.259 685.396 100.754 677.784Q98.3101 670.231 96.1244 662.6Q93.9387 654.969 92.0138 647.268Q90.0888 639.567 88.4268 631.804Q86.7648 624.042 85.3677 616.228Q83.9706 608.414 82.84 600.557Q81.7094 592.699 80.8466 584.808Q79.9838 576.917 79.3898 569.001Q78.7958 561.085 78.4713 553.154C78.6711 513.695 81.7781 478.087 91.1758 439.64Z"/>
	<path fill="#2C596B" transform="scale(0.899846 0.899846)" d="M120.69 762.015L97.3126 811.344C94.3656 817.493 89.7151 824.055 88.1443 830.688C87.9074 831.689 87.8651 831.999 87.3129 832.913L87.7171 832.132L87.2883 832.153C89.4354 820.254 94.9148 808.356 99.178 797.026C103.656 785.124 107.319 772.634 112.46 761.023C117.77 749.027 124.837 737.817 130.868 726.182C144.515 699.854 158.16 673.528 173.125 647.914C179.776 636.531 187.128 625.592 194.021 614.358C188.206 634.011 180.353 653.634 171.537 672.118C167.581 680.412 162.848 688.372 158.649 696.55Q151.927 709.837 146.523 723.713C144.315 729.264 141.744 735.361 141.053 741.314C140.19 748.744 141.506 757.245 141.945 764.745L144.146 804.341C139.355 807.998 133.99 810.765 129.163 814.333C127.175 796.748 122.525 779.587 120.69 762.015Z"/>
	<path fill="#586341" transform="scale(0.899846 0.899846)" d="M216.191 581.858Q218.415 597.455 220.134 613.116C222.205 610.298 225.025 606.802 226.123 603.465C230.007 597.202 233.645 590.791 237.568 584.55C237.913 590.04 231.533 651.279 229.771 655.982C225.02 668.66 216.916 680.008 211.767 692.534C219.141 709.052 226.506 725.645 235.487 741.376C226.817 747.392 151.788 799.899 149.244 800.471C153.044 789.65 155.186 777.869 158.049 766.734C161.612 752.875 166.234 738.576 168.456 724.467C170.221 713.264 170.114 697.109 172.859 686.905C175.696 676.357 190.856 664.54 195.65 653.679C198.738 646.681 199.807 638.394 201.775 630.994C206.131 614.61 210.633 597.866 216.191 581.858Z"/>
	<path fill="#BBE2E6" transform="scale(0.899846 0.899846)" d="M78.4713 553.154C78.9219 554.383 78.5883 553.857 79.4342 554.757C92.5984 547.631 104.517 542.165 119.624 541.207C136.256 540.152 151.851 545.071 164.347 556.064C178.818 547.771 197.859 543.45 214.412 541.523C207.522 553.981 201.22 568.125 194.071 580.026C190.487 585.994 186.215 591.661 182.328 597.441C171.408 613.678 160.133 629.589 148.839 645.569C135.911 663.862 123.758 682.886 110.386 700.834C105.659 694.275 103.259 685.396 100.754 677.784Q98.3101 670.231 96.1244 662.6Q93.9387 654.969 92.0138 647.268Q90.0888 639.567 88.4268 631.804Q86.7648 624.042 85.3677 616.228Q83.9706 608.414 82.84 600.557Q81.7094 592.699 80.8466 584.808Q79.9838 576.917 79.3898 569.001Q78.7958 561.085 78.4713 553.154Z"/>
	<path fill="#3AB3C4" transform="scale(0.899846 0.899846)" d="M91.1758 439.64C91.3883 440.016 91.4727 440.502 91.8131 440.768C92.5806 441.366 112.494 449.917 115.138 451.133Q129.03 457.369 142.674 464.129C153.796 469.699 164.775 475.61 176.174 480.6C199.578 474.642 218.968 465.421 243.936 468.464C249.275 469.115 254.868 470.091 259.613 472.735C269.417 476.184 278.484 481.694 287.804 486.243C290.549 487.583 294.053 488.429 296.505 490.156C289.451 496.912 280.65 503.015 274.653 510.64C268.057 499.286 261.933 487.121 256.272 475.274C255.579 474.119 254.997 472.803 253.802 472.105L253.032 472.936C247.97 478.985 244.257 487.145 240.422 494.076L223.804 523.974C220.646 529.787 217.737 535.811 214.412 541.523C197.859 543.45 178.818 547.771 164.347 556.064C151.851 545.071 136.256 540.152 119.624 541.207C104.517 542.165 92.5984 547.631 79.4342 554.757C78.5883 553.857 78.9219 554.383 78.4713 553.154C78.6711 513.695 81.7781 478.087 91.1758 439.64Z"/>
	<path fill="#F9F6D3" transform="scale(0.899846 0.899846)" d="M253.032 472.936L253.802 472.105C254.997 472.803 255.579 474.119 256.272 475.274C261.933 487.121 268.057 499.286 274.653 510.64C278.669 519.091 290.96 542.46 296.898 548.902C302.159 554.608 310.36 559.071 314.361 565.651C318.705 572.796 321.911 581.101 325.427 588.693C333.009 605.063 340.446 621.894 348.768 637.877C351.844 642.635 355.817 646.88 359.431 651.247C368.135 661.764 378.913 674.101 385.74 685.79L383.317 687.124C377.274 691.321 370.776 694.868 364.362 698.458C360.868 700.414 356.653 702.351 353.609 704.98C341.965 708.914 330.1 712.697 318.693 717.269C300.179 722.237 279.752 721.503 260.709 722.737C252.722 729.309 244.12 735.677 235.487 741.376C226.506 725.645 219.141 709.052 211.767 692.534C216.916 680.008 225.02 668.66 229.771 655.982C231.533 651.279 237.913 590.04 237.568 584.55C233.645 590.791 230.007 597.202 226.123 603.465C225.025 606.802 222.205 610.298 220.134 613.116Q218.415 597.455 216.191 581.858C216.117 580.139 216.299 578.719 216.705 577.046C221.126 558.802 228.602 541.069 234.726 523.337C239.384 509.85 245.669 486.897 252.433 475.213L253.032 472.936Z"/>
	<path fill="#69BCC4" transform="scale(0.899846 0.899846)" d="M216.191 581.858C216.117 580.139 216.299 578.719 216.705 577.046C221.126 558.802 228.602 541.069 234.726 523.337C239.384 509.85 245.669 486.897 252.433 475.213C252.273 483.789 250.395 492.685 249.041 501.154Q243.144 537.663 234.201 573.548C232.452 580.435 226.14 597.602 226.123 603.465C225.025 606.802 222.205 610.298 220.134 613.116Q218.415 597.455 216.191 581.858Z"/>
	<path fill="#D6C763" transform="scale(0.899846 0.899846)" d="M267.456 620.806C267.511 620.669 267.568 620.532 267.621 620.394C270.029 614.081 271.186 599.187 274.178 594.615C277.495 598.198 277.892 604.654 281.236 608.633C284.459 612.467 289.578 615.972 293.432 619.254C305.213 629.286 316.169 638.53 328.835 647.472C324.759 637.931 319.876 628.652 315.066 619.462C312.685 614.913 309.805 610.329 307.988 605.524C307.261 603.6 307.092 602.324 307.381 600.297C308.097 599.254 308.052 599.49 309.197 599.224C317.272 600.905 337.334 626.807 344.283 633.898C345.499 635.138 347.153 637.361 348.768 637.877C351.844 642.635 355.817 646.88 359.431 651.247C368.135 661.764 378.913 674.101 385.74 685.79L383.317 687.124C377.274 691.321 370.776 694.868 364.362 698.458C360.868 700.414 356.653 702.351 353.609 704.98C341.965 708.914 330.1 712.697 318.693 717.269C313.005 709.92 308.466 701.443 303.344 693.672Q290.395 674.239 278.162 654.346C274.187 647.996 269.295 641.365 266.348 634.496C266.959 630.441 268.344 624.837 267.456 620.806Z"/>
	<path fill="#7F8350" transform="scale(0.899846 0.899846)" d="M338.442 652.595L365.674 674.429C371.11 678.736 376.971 684.299 383.317 687.124C377.274 691.321 370.776 694.868 364.362 698.458C360.868 700.414 356.653 702.351 353.609 704.98C351.125 699.605 349.612 693.109 347.95 687.407Q342.785 670.113 338.442 652.595Z"/>
	<path fill="#989E5A" transform="scale(0.899846 0.899846)" d="M237.568 584.55C241.833 575.155 248.853 566.647 254.004 557.649C257.651 571.727 261.094 585.994 263.902 600.261C265.24 607.056 265.965 614.07 267.456 620.806C268.344 624.837 266.959 630.441 266.348 634.496C269.295 641.365 274.187 647.996 278.162 654.346Q290.395 674.239 303.344 693.672C308.466 701.443 313.005 709.92 318.693 717.269C300.179 722.237 279.752 721.503 260.709 722.737C252.722 729.309 244.12 735.677 235.487 741.376C226.506 725.645 219.141 709.052 211.767 692.534C216.916 680.008 225.02 668.66 229.771 655.982C231.533 651.279 237.913 590.04 237.568 584.55Z"/>
	<path fill="#0B2822" transform="scale(0.899846 0.899846)" d="M539.901 575.567C539.822 583.72 538.158 592.046 537.665 600.217C536.548 618.763 536.08 637.448 534.41 655.947C531.644 670.548 526.729 685.204 522.404 699.434C519.851 707.835 515.807 717.534 515.605 726.318C515.373 736.366 518.471 747.612 520.226 757.508Q521.611 762.517 523.45 767.379Q525.289 772.24 527.566 776.912L551.314 813.517C556.24 821.274 560.98 830.343 566.902 837.345C568.288 838.983 569.59 839.895 571.5 840.834C568.198 844.503 564.464 847.776 561.215 851.49C550.085 864.214 539.572 877.501 528.39 890.209C520.599 899.063 508.379 911.573 501.973 920.92C501.654 926.393 501.911 933.755 500.249 938.962C431.015 940.089 365.498 914.272 297.013 908.692C288.333 907.984 279.56 907.361 270.849 907.683C253.81 908.312 236.915 911.272 219.943 912.706C200.368 914.36 180.317 914.413 160.843 911.585Q151.911 910.327 143.107 908.363Q134.302 906.399 125.682 903.742C100.361 895.744 81.4519 886.146 53.9548 884.825C48.786 884.338 22.7675 886.878 21.2414 885.891C21.8785 881.34 32.3026 878.264 35.4302 875.141C35.5687 875.003 35.6837 874.843 35.8104 874.694C45.6636 871.388 55.4687 863.681 64.1443 858.02C76.3508 850.054 88.9713 842.764 101.001 834.522C110.526 827.996 119.379 820.477 129.163 814.333C133.99 810.765 139.355 807.998 144.146 804.341C146.327 803.568 147.795 802.234 149.244 800.471C151.788 799.899 226.817 747.392 235.487 741.376C244.12 735.677 252.722 729.309 260.709 722.737C279.752 721.503 300.179 722.237 318.693 717.269C330.1 712.697 341.965 708.914 353.609 704.98C356.653 702.351 360.868 700.414 364.362 698.458C370.776 694.868 377.274 691.321 383.317 687.124L385.74 685.79C388.483 685.451 392.217 682.84 394.29 681.08C401.455 677.41 407.976 672.388 414.548 667.763C420.67 663.455 426.906 659.319 433.02 654.996Q452.156 641.651 471.01 627.912C489.386 614.275 507.368 600.095 525.641 586.319Q532.854 581.052 539.901 575.567Z"/>
	<path fill="#18452E" transform="scale(0.899846 0.899846)" d="M527.566 776.912L551.314 813.517C556.24 821.274 560.98 830.343 566.902 837.345C568.288 838.983 569.59 839.895 571.5 840.834C568.198 844.503 564.464 847.776 561.215 851.49C550.085 864.214 539.572 877.501 528.39 890.209C520.599 899.063 508.379 911.573 501.973 920.92C500.754 915.328 497.647 909.942 495.766 904.522C491.464 892.132 487.785 879.601 483.191 867.289C487.323 859.808 490.483 851.775 494.244 844.097C500.275 831.783 506.724 819.668 512.759 807.346C517.688 797.283 524.11 787.606 527.566 776.912Z"/>
	<path fill="#18452E" transform="scale(0.899846 0.899846)" d="M539.901 575.567C539.822 583.72 538.158 592.046 537.665 600.217C536.548 618.763 536.08 637.448 534.41 655.947C531.644 670.548 526.729 685.204 522.404 699.434C519.851 707.835 515.807 717.534 515.605 726.318C515.373 736.366 518.471 747.612 520.226 757.508C519.99 757.714 519.753 757.917 519.52 758.125C508.884 767.613 499.605 781.287 490.628 792.42C480.823 804.579 470.441 816.293 460.365 828.227C456.344 832.988 452.474 839.363 447.903 843.497C445.809 845.391 441.986 846.638 439.384 847.644C427.721 852.153 415.728 855.912 403.976 860.204L348.798 880.852L322.679 890.311C318.169 891.94 313.336 894.147 308.632 895.035C318.54 881.831 330.242 870.042 341.477 857.976C355.524 842.889 369.188 827.534 383.046 812.281C389.027 805.699 395.564 799.426 401.345 792.697C385.682 798.5 370.35 805.418 354.662 811.038Q361.608 790.795 368.169 770.424C377.32 741.376 386.169 710.598 400.773 683.765C391.03 693.184 377.001 702.09 366.063 710.65L288.506 771.452C282.561 776.019 269.261 787.857 263.249 789.992C258.856 791.553 253.157 791.42 248.488 792.169Q229.185 795.443 209.827 798.377C200.144 799.822 189.404 800.513 180.129 803.635L179.664 803.788L179.203 804.298C171.262 813.204 150.815 846.436 143.831 851.091C138.889 854.385 131.593 855.514 125.902 857.002L93.1691 865.57C88.1207 866.894 82.7416 867.852 77.8498 869.656C71.3434 872.055 57.6035 879.068 53.9548 884.825C48.786 884.338 22.7675 886.878 21.2414 885.891C21.8785 881.34 32.3026 878.264 35.4302 875.141C35.5687 875.003 35.6837 874.843 35.8104 874.694C45.6636 871.388 55.4687 863.681 64.1443 858.02C76.3508 850.054 88.9713 842.764 101.001 834.522C110.526 827.996 119.379 820.477 129.163 814.333C133.99 810.765 139.355 807.998 144.146 804.341C146.327 803.568 147.795 802.234 149.244 800.471C151.788 799.899 226.817 747.392 235.487 741.376C244.12 735.677 252.722 729.309 260.709 722.737C279.752 721.503 300.179 722.237 318.693 717.269C330.1 712.697 341.965 708.914 353.609 704.98C356.653 702.351 360.868 700.414 364.362 698.458C370.776 694.868 377.274 691.321 383.317 687.124L385.74 685.79C388.483 685.451 392.217 682.84 394.29 681.08C401.455 677.41 407.976 672.388 414.548 667.763C420.67 663.455 426.906 659.319 433.02 654.996Q452.156 641.651 471.01 627.912C489.386 614.275 507.368 600.095 525.641 586.319Q532.854 581.052 539.901 575.567Z"/>
	<path fill="#D6C763" transform="scale(0.899846 0.899846)" d="M490.914 104.861C494.252 97.3455 499.604 86.325 504.613 79.8487C504.7 79.8259 504.785 79.9027 504.869 79.9336C505.551 81.1253 505.421 82.1193 505.453 83.4587C505.527 85.5782 505.564 87.6209 505.376 89.7379C507.908 91.0559 513.727 99.9081 514.668 102.889C514.758 103.171 514.828 103.459 514.908 103.745L516.04 104.332C517.136 108.049 523.36 116.194 525.775 120.134C542.315 147.121 560.469 180.497 581.292 203.886C584.029 207.358 586.573 210.676 588.322 214.772C592.066 223.541 594.68 245.847 595.554 255.984C596.417 270.589 602.437 286.221 606.786 300.126Q617.804 334.918 629.28 369.562C634.999 387.26 641.156 405.005 644.257 423.402L644.537 422.998C646.458 422.05 650.146 422.818 652.298 422.974C658.056 415.996 662.141 406.48 666.695 398.614C675.41 383.559 684.348 368.42 694.077 354.002L694.663 354.12C694.727 353.865 694.797 353.611 694.855 353.354C695.03 352.581 695.076 352.158 694.984 351.397L695.601 350.876C698.333 353.094 700.559 356.473 702.791 359.234C705.761 362.907 709.468 366.867 711.495 371.148C715.205 378.986 716.418 388.381 720.861 395.801C728.304 408.232 737.43 419.771 745.416 431.862C753.914 444.726 760.991 458.431 767.506 472.387C773.279 484.396 779.686 496.188 784.858 508.47C794.948 525.493 804.011 543.05 813.14 560.592C823.433 579.628 829.732 601.089 837.698 621.181C841.057 629.653 857.403 666.278 857.49 672.541C860.854 680.532 863.914 689.16 868.303 696.63C876.678 710.888 892.429 724.351 904.427 735.558C909.64 740.727 915.877 745.884 920.033 751.907C923.39 756.772 925.811 762.804 928.395 768.128L941.782 795.726Q958.996 830.547 977.389 864.761C977.556 864.982 977.718 865.207 977.889 865.425C982.481 871.258 999.666 878.636 1002.23 885.324L1002.13 885.989C997.959 886.603 988.578 886.802 984.593 885.569C966.121 885.747 946.33 888.419 928.899 894.667C900.972 904.517 874.671 915.823 844.527 916.027C829.754 916.11 815.818 912.392 801.331 910.226C785.95 907.927 770.257 906.86 754.716 906.511Q723.56 906.339 692.601 909.849C682.602 902.499 670.91 896.483 660.071 890.385L621.25 868.33C604.938 859.159 588.765 848.078 571.5 840.834C569.59 839.895 568.288 838.983 566.902 837.345C560.98 830.343 556.24 821.274 551.314 813.517L527.566 776.912Q525.289 772.24 523.45 767.379Q521.611 762.517 520.226 757.508C518.471 747.612 515.373 736.366 515.605 726.318C515.807 717.534 519.851 707.835 522.404 699.434C526.729 685.204 531.644 670.548 534.41 655.947C536.08 637.448 536.548 618.763 537.665 600.217C538.158 592.046 539.822 583.72 539.901 575.567Q532.854 581.052 525.641 586.319C507.368 600.095 489.386 614.275 471.01 627.912Q452.156 641.651 433.02 654.996C426.906 659.319 420.67 663.455 414.548 667.763C407.976 672.388 401.455 677.41 394.29 681.08C392.217 682.84 388.483 685.451 385.74 685.79C378.913 674.101 368.135 661.764 359.431 651.247C355.817 646.88 351.844 642.635 348.768 637.877C340.446 621.894 333.009 605.063 325.427 588.693C321.911 581.101 318.705 572.796 314.361 565.651C310.36 559.071 302.159 554.608 296.898 548.902C290.96 542.46 278.669 519.091 274.653 510.64C280.65 503.015 289.451 496.912 296.505 490.156C300.925 486.383 306.893 482.377 310.248 477.649C314.323 471.906 316.744 463.474 319.398 456.891L334.353 419.613C342.153 402.705 348.78 384.946 355.814 367.689Q369.254 334.877 383.433 302.378C387.603 291.187 392.109 280.197 397.402 269.482C403.144 273.782 409.436 277.441 415.233 281.727C418.296 275.272 420.829 268.396 423.519 261.771C432.149 240.511 439.719 218.837 448.417 197.616C452.028 192.609 455.198 182.777 458.024 176.747L490.914 104.861Z"/>
	<path fill="#7F8350" transform="scale(0.899846 0.899846)" d="M573.94 596.368C573.892 587.291 571.406 575.376 570.762 565.612C569.533 546.979 569.824 528.227 568.172 509.607C572.284 522.66 574.952 536.482 580.829 548.891C584.375 556.377 588.879 562.495 593.969 568.973C596.198 571.81 598.734 574.632 600.587 577.725C605.394 585.748 608.486 602.935 611.08 612.46C612.462 617.533 614.339 622.556 615.52 627.667C606.086 622.015 597.088 614.549 588.387 607.82C583.541 604.072 578.409 600.568 573.94 596.368Z"/>
	<path fill="#7F8350" transform="scale(0.899846 0.899846)" d="M638.545 508.84C646.288 521.569 649.982 571.333 651.055 588.594C654.498 590.164 657.935 591.732 661.437 593.166C663.547 580.692 663.59 567.189 664.356 554.544C664.633 549.973 664.532 544.941 665.524 540.474L665.808 540.624C667.193 557.56 668.584 574.962 668.523 591.949C673.053 599.735 678.191 607.224 683.077 614.795Q693.261 630.919 703.848 646.781C710.986 657.69 718.77 668.539 725.054 679.958C716.056 670.233 707.931 659.623 698.752 650.104C693.17 644.315 687.078 638.943 681.269 633.377Q662.182 614.721 642.293 596.922C638.165 567.859 638.619 538.148 638.545 508.84Z"/>
	<path fill="#7F8350" transform="scale(0.899846 0.899846)" d="M423.804 621.396C424.002 621.369 424.21 621.382 424.398 621.316C434.912 617.604 512.599 526.621 524.507 511.564C533.501 500.192 542.827 487.742 549.968 475.14C548.399 490.67 549.708 506.688 546.233 522.031C542.598 538.083 536.004 553.883 530.781 569.501C528.933 575.026 526.87 580.62 525.641 586.319C507.368 600.095 489.386 614.275 471.01 627.912Q452.156 641.651 433.02 654.996C426.906 659.319 420.67 663.455 414.548 667.763C407.976 672.388 401.455 677.41 394.29 681.08C400.119 668.849 406.438 656.804 412.333 644.591C415.768 637.477 419.414 627.74 423.804 621.396Z"/>
	<defs>
		<linearGradient id="gradient_0" gradientUnits="userSpaceOnUse" x1="504.48346" y1="478.84616" x2="745.99445" y2="408.77127">
			<stop offset="0" stop-color="#FDF8C6"/>
			<stop offset="1" stop-color="#FBFAE5"/>
		</linearGradient>
	</defs>
	<path fill="url(#gradient_0)" transform="scale(0.899846 0.899846)" d="M505.453 83.4587C505.527 85.5782 505.564 87.6209 505.376 89.7379C507.908 91.0559 513.727 99.9081 514.668 102.889C514.758 103.171 514.828 103.459 514.908 103.745L516.04 104.332C517.136 108.049 523.36 116.194 525.775 120.134C542.315 147.121 560.469 180.497 581.292 203.886C584.029 207.358 586.573 210.676 588.322 214.772C592.066 223.541 594.68 245.847 595.554 255.984C596.417 270.589 602.437 286.221 606.786 300.126Q617.804 334.918 629.28 369.562C634.999 387.26 641.156 405.005 644.257 423.402C644.832 429.518 645.242 435.574 645.232 441.724C648.345 444.434 652.499 447.087 654.882 450.434C659.782 457.318 660.192 479.665 664.949 489.465C670.927 501.784 680.785 512.69 688.418 524.006C689.378 525.014 690.058 525.274 691.33 525.736C691.278 526.668 691.25 527.412 691.674 528.272C693.534 532.046 697.13 535.639 699.89 538.817C706.727 546.689 717.191 557.265 722.699 565.62C727.312 572.618 729.176 582.679 731.376 590.707L740.211 623.011C741.807 628.841 743.153 634.955 745.216 640.633C746.316 643.658 747.973 645.808 750.083 648.188C767.877 668.27 786.496 687.291 803.626 708.001L838.308 750.062C843.574 756.459 848.809 764.283 854.956 769.75C851.83 768.988 771.716 728.929 768.496 726.331Q755.23 697.066 743.003 667.353C738.549 656.639 733.6 645.824 730.1 634.76C725.015 618.687 720.583 596.231 720.45 579.313C707.446 566.182 696.119 551.712 684.1 537.704C676.269 528.576 667.205 519.959 660.741 509.787C649.945 492.8 644.644 476.201 638.034 457.488C634.434 447.297 631.329 437.011 627.962 426.75C622.275 409.424 616.608 392.187 611.947 374.544C608.948 363.188 606.914 351.61 604.257 340.176C602.056 330.707 599.288 321.358 596.747 311.976C593.046 298.312 589.7 284.573 585.928 270.919C584.298 265.018 582.958 258.755 580.735 253.054C580.671 252.89 580.603 252.728 580.538 252.565C579.644 278.942 577.387 304.808 574.533 331.029C573.331 342.068 571.151 353.071 570.455 364.15C586.834 377.863 587.998 380.737 591.357 401.792C592.11 406.515 592.863 411.245 594.294 415.821C598.328 428.724 610.372 446.578 619.348 456.897Q618.767 456.557 618.196 456.201C592.123 439.765 582.877 421.253 576.22 391.84C573.439 399.065 569.941 406.054 566.746 413.107Q555.705 436.963 545.601 461.23C542.464 468.839 539.125 476.451 536.664 484.308C535.672 478.13 535.618 471.655 535.168 465.402Q533.906 447.411 532.426 429.436C529.489 425.086 520.302 390.794 518.894 383.952C517.978 379.501 518.129 374.458 516.894 370.168C516.639 369.28 516.123 368.672 515.537 367.98C515.461 364.722 515.647 361.421 515.72 358.16C507.066 372.183 496.602 384.971 486.984 398.343C488.803 384.386 496.118 367.665 499.706 353.489C497.543 355.49 496.443 358.255 494.459 360.207C484.571 374.897 474.708 390.162 463.661 403.988C463.41 403.092 463.171 402.205 462.977 401.294L462.83 400.574C462.26 399.984 461.678 399.299 460.852 399.071C460.21 398.894 452.913 399.376 450.57 399.113C451.064 397.978 451.397 396.804 451.708 395.608C454.693 384.124 456.253 371.965 458.617 360.315C460.226 352.382 462.195 344.526 463.82 336.598Q478.361 265.205 490.795 193.415C493.085 179.529 494.639 165.499 496.715 151.574C497.798 144.306 503.918 109.793 501.065 104.902C502.124 97.6234 504.849 90.9401 505.453 83.4587Z"/>
	<path fill="#B0C7B4" transform="scale(0.899846 0.899846)" d="M505.453 83.4587C505.527 85.5782 505.564 87.6209 505.376 89.7379C507.62 120.418 507.787 151.179 508.63 181.917C508.988 194.983 510.975 215.895 509.158 228.298C508.036 235.958 504.223 243.787 501.518 251.038Q497.163 262.834 493.379 274.825C483.587 306.17 475.715 338.115 466.068 369.518C475.577 354.555 484.097 338.836 493.372 323.712Q507.321 301.202 522.741 279.674L528.797 372.375L531.276 408.08C531.746 415.141 532.457 422.366 532.426 429.436C529.489 425.086 520.302 390.794 518.894 383.952C517.978 379.501 518.129 374.458 516.894 370.168C516.639 369.28 516.123 368.672 515.537 367.98C515.461 364.722 515.647 361.421 515.72 358.16C507.066 372.183 496.602 384.971 486.984 398.343C488.803 384.386 496.118 367.665 499.706 353.489C497.543 355.49 496.443 358.255 494.459 360.207C484.571 374.897 474.708 390.162 463.661 403.988C463.41 403.092 463.171 402.205 462.977 401.294L462.83 400.574C462.26 399.984 461.678 399.299 460.852 399.071C460.21 398.894 452.913 399.376 450.57 399.113C451.064 397.978 451.397 396.804 451.708 395.608C454.693 384.124 456.253 371.965 458.617 360.315C460.226 352.382 462.195 344.526 463.82 336.598Q478.361 265.205 490.795 193.415C493.085 179.529 494.639 165.499 496.715 151.574C497.798 144.306 503.918 109.793 501.065 104.902C502.124 97.6234 504.849 90.9401 505.453 83.4587Z"/>
	<path fill="#69BCC4" transform="scale(0.899846 0.899846)" d="M494.459 360.207L493.765 360.22C493.43 360.414 493.099 360.612 492.76 360.797L493.709 359.533L492.854 360.015C496.791 347.589 503.068 335.303 508.321 323.335C506.42 333.104 503.749 344.407 499.706 353.489C497.543 355.49 496.443 358.255 494.459 360.207Z"/>
	<path fill="#D6C763" transform="scale(0.899846 0.899846)" d="M694.663 354.12C694.727 353.865 694.797 353.611 694.855 353.354C695.03 352.581 695.076 352.158 694.984 351.397L695.601 350.876C698.333 353.094 700.559 356.473 702.791 359.234C705.761 362.907 709.468 366.867 711.495 371.148C715.205 378.986 716.418 388.381 720.861 395.801C728.304 408.232 737.43 419.771 745.416 431.862C753.914 444.726 760.991 458.431 767.506 472.387C773.279 484.396 779.686 496.188 784.858 508.47C794.948 525.493 804.011 543.05 813.14 560.592C823.433 579.628 829.732 601.089 837.698 621.181C841.057 629.653 857.403 666.278 857.49 672.541C860.854 680.532 863.914 689.16 868.303 696.63C876.678 710.888 892.429 724.351 904.427 735.558C909.64 740.727 915.877 745.884 920.033 751.907C923.39 756.772 925.811 762.804 928.395 768.128L941.782 795.726Q958.996 830.547 977.389 864.761C973.529 863.636 918.49 818.776 909.948 811.32C899.012 803.914 888.421 795.753 878.042 787.582C871.839 782.699 861.608 772.61 854.956 769.75C848.809 764.283 843.574 756.459 838.308 750.062L803.626 708.001C786.496 687.291 767.877 668.27 750.083 648.188C747.973 645.808 746.316 643.658 745.216 640.633C743.153 634.955 741.807 628.841 740.211 623.011L731.376 590.707C729.176 582.679 727.312 572.618 722.699 565.62C717.191 557.265 706.727 546.689 699.89 538.817C697.13 535.639 693.534 532.046 691.674 528.272C691.25 527.412 691.278 526.668 691.33 525.736C690.058 525.274 689.378 525.014 688.418 524.006C680.785 512.69 670.927 501.784 664.949 489.465C660.192 479.665 659.782 457.318 654.882 450.434C652.499 447.087 648.345 444.434 645.232 441.724C645.242 435.574 644.832 429.518 644.257 423.402L644.537 422.998C646.458 422.05 650.146 422.818 652.298 422.974C658.056 415.996 662.141 406.48 666.695 398.614C675.41 383.559 684.348 368.42 694.077 354.002L694.663 354.12Z"/>
	<path fill="#F9F6D3" transform="scale(0.899846 0.899846)" d="M694.663 354.12C694.727 353.865 694.797 353.611 694.855 353.354C695.03 352.581 695.076 352.158 694.984 351.397L695.601 350.876C698.333 353.094 700.559 356.473 702.791 359.234C705.761 362.907 709.468 366.867 711.495 371.148C715.205 378.986 716.418 388.381 720.861 395.801C728.304 408.232 737.43 419.771 745.416 431.862C753.914 444.726 760.991 458.431 767.506 472.387C773.279 484.396 779.686 496.188 784.858 508.47Q779.017 504.049 773.645 499.07Q768.272 494.09 763.421 488.602C763.533 505.263 766.168 521.868 766.01 538.559C762.6 530.99 760.592 522.659 757.895 514.803C751.223 495.365 743.04 474.305 731.154 457.404C732.144 465.393 732.03 473.497 733.112 481.495C732.602 489.787 730.091 498.038 728.871 506.261C726.964 497.021 725.852 487.622 724.374 478.306C722.253 464.932 719.947 451.628 718.583 438.15C713.447 456.278 707.38 474 700.9 491.688C699.368 484.628 701.014 475.234 701.553 467.946L703.933 433.595C704.446 426.777 705.42 419.749 705.401 412.92C705.365 400.357 701.873 386.166 698.542 374.083C697.198 369.209 694.841 363.504 694.386 358.57C694.355 358.236 694.334 357.901 694.308 357.566L694.663 354.12Z"/>
	<path fill="#2C596B" transform="scale(0.899846 0.899846)" d="M652.298 422.974C658.056 415.996 662.141 406.48 666.695 398.614C675.41 383.559 684.348 368.42 694.077 354.002L694.663 354.12L694.308 357.566C694.334 357.901 694.355 358.236 694.386 358.57C694.841 363.504 697.198 369.209 698.542 374.083C701.873 386.166 705.365 400.357 705.401 412.92C705.42 419.749 704.446 426.777 703.933 433.595L701.553 467.946C701.014 475.234 699.368 484.628 700.9 491.688C699.564 497.107 693.412 522.831 691.33 525.736C690.058 525.274 689.378 525.014 688.418 524.006C680.785 512.69 670.927 501.784 664.949 489.465C660.192 479.665 659.782 457.318 654.882 450.434C652.499 447.087 648.345 444.434 645.232 441.724C645.242 435.574 644.832 429.518 644.257 423.402L644.537 422.998C646.458 422.05 650.146 422.818 652.298 422.974Z"/>
	<path fill="#B0C7B4" transform="scale(0.899846 0.899846)" d="M688.418 524.006C690.202 508.132 686.684 485.476 684.028 469.551C682.929 462.964 681.071 455.958 680.912 449.277C680.782 443.834 681.956 438.115 682.345 432.665C682.877 425.212 681.797 417.598 682.921 410.203C683.814 404.323 685.512 398.444 686.898 392.66C689.676 381.067 692.532 369.358 694.308 357.566C694.334 357.901 694.355 358.236 694.386 358.57C694.841 363.504 697.198 369.209 698.542 374.083C701.873 386.166 705.365 400.357 705.401 412.92C705.42 419.749 704.446 426.777 703.933 433.595L701.553 467.946C701.014 475.234 699.368 484.628 700.9 491.688C699.564 497.107 693.412 522.831 691.33 525.736C690.058 525.274 689.378 525.014 688.418 524.006Z"/>
	<path fill="#4F737B" transform="scale(0.899846 0.899846)" d="M774.582 540.329C783.612 552.488 792.718 564.708 802.306 576.433C807.595 582.901 814.472 588.546 818.823 595.68C822.12 601.087 824.89 606.939 827.815 612.563C834.972 626.323 841.674 640.241 848.467 654.179C851.409 660.217 854.1 666.766 857.49 672.541C860.854 680.532 863.914 689.16 868.303 696.63C876.678 710.888 892.429 724.351 904.427 735.558C909.64 740.727 915.877 745.884 920.033 751.907C923.39 756.772 925.811 762.804 928.395 768.128L941.782 795.726Q958.996 830.547 977.389 864.761C973.529 863.636 918.49 818.776 909.948 811.32C910.835 808.395 906.01 797.564 904.85 794.153C902.054 785.931 897.463 769.448 892.852 762.852C887.825 755.659 875.013 747.878 867.56 742.647C863.435 739.752 858.541 736.7 855.671 732.456C853.149 728.725 851.876 724.253 850.421 720.032C848.318 713.931 846.105 707.868 844.222 701.693C842.225 695.144 840.753 687.79 837.699 681.679C834.067 674.41 825.449 669.183 820.331 662.83C812.44 653.037 806.139 639.977 800.824 628.613C804.911 647.161 804.958 669.697 803.389 688.677C798.327 679.718 794.603 669.793 790.313 660.44C784.549 647.874 778.158 635.369 773.251 622.444C774.798 618.857 765.136 564.672 763.846 555.457C773.086 577.708 781.724 599.974 788.056 623.243Q792.003 637.573 795.306 652.064C796.848 658.647 797.932 666.118 800.652 672.299C797.429 639.483 790.832 606.917 783.38 574.829C780.716 563.353 778.573 551.413 774.582 540.329Z"/>
	<path fill="#2C596B" transform="scale(0.899846 0.899846)" d="M700.9 491.688C707.38 474 713.447 456.278 718.583 438.15C719.947 451.628 722.253 464.932 724.374 478.306C725.852 487.622 726.964 497.021 728.871 506.261C730.091 498.038 732.602 489.787 733.112 481.495C736.052 490.192 736.11 503.364 737.883 512.836C740.248 519.437 748.119 544.108 748.21 549.903C752.505 566.167 756.803 582.717 762.79 598.456C765.897 606.623 769.917 614.381 773.251 622.444C778.158 635.369 784.549 647.874 790.313 660.44C794.603 669.793 798.327 679.718 803.389 688.677C804.958 669.697 804.911 647.161 800.824 628.613C806.139 639.977 812.44 653.037 820.331 662.83C825.449 669.183 834.067 674.41 837.699 681.679C840.753 687.79 842.225 695.144 844.222 701.693C846.105 707.868 848.318 713.931 850.421 720.032C851.876 724.253 853.149 728.725 855.671 732.456C858.541 736.7 863.435 739.752 867.56 742.647C875.013 747.878 887.825 755.659 892.852 762.852C897.463 769.448 902.054 785.931 904.85 794.153C906.01 797.564 910.835 808.395 909.948 811.32C899.012 803.914 888.421 795.753 878.042 787.582C871.839 782.699 861.608 772.61 854.956 769.75C848.809 764.283 843.574 756.459 838.308 750.062L803.626 708.001C786.496 687.291 767.877 668.27 750.083 648.188C747.973 645.808 746.316 643.658 745.216 640.633C743.153 634.955 741.807 628.841 740.211 623.011L731.376 590.707C729.176 582.679 727.312 572.618 722.699 565.62C717.191 557.265 706.727 546.689 699.89 538.817C697.13 535.639 693.534 532.046 691.674 528.272C691.25 527.412 691.278 526.668 691.33 525.736C693.412 522.831 699.564 497.107 700.9 491.688Z"/>
	<path fill="#989E5A" transform="scale(0.899846 0.899846)" d="M737.883 512.836C740.248 519.437 748.119 544.108 748.21 549.903C747.731 556.691 749.817 566.608 750.592 573.613C752.457 590.481 754.372 607.521 754.526 624.507C751.485 613.818 749.618 602.631 747.673 591.691C744.209 572.209 741.292 552.801 739.431 533.093C738.807 526.488 737.656 519.459 737.883 512.836Z"/>
	<path fill="#123144" transform="scale(0.899846 0.899846)" d="M490.914 104.861C494.252 97.3455 499.604 86.325 504.613 79.8487C504.7 79.8259 504.785 79.9027 504.869 79.9336C505.551 81.1253 505.421 82.1193 505.453 83.4587C504.849 90.9401 502.124 97.6234 501.065 104.902C503.918 109.793 497.798 144.306 496.715 151.574C494.639 165.499 493.085 179.529 490.795 193.415Q478.361 265.205 463.82 336.598C462.195 344.526 460.226 352.382 458.617 360.315C456.253 371.965 454.693 384.124 451.708 395.608C451.397 396.804 451.064 397.978 450.57 399.113C452.913 399.376 460.21 398.894 460.852 399.071C461.678 399.299 462.26 399.984 462.83 400.574L462.977 401.294C463.171 402.205 463.41 403.092 463.661 403.988C474.708 390.162 484.571 374.897 494.459 360.207C496.443 358.255 497.543 355.49 499.706 353.489C496.118 367.665 488.803 384.386 486.984 398.343C496.602 384.971 507.066 372.183 515.72 358.16C515.647 361.421 515.461 364.722 515.537 367.98C513.832 396.693 509.371 426.171 502.3 454.056C499.418 465.42 495.733 476.576 492.384 487.809C490.279 494.869 488.593 502.141 486.281 509.125C488.036 515.529 489.48 521.997 490.941 528.471C487.947 533.406 483.459 537.734 479.803 542.221C471.55 552.35 463.513 562.674 454.764 572.39C451.606 575.898 447.661 578.9 444.753 582.583C440.381 588.121 437.391 595.121 434.13 601.365C430.666 607.996 426.927 614.602 423.804 621.396C419.414 627.74 415.768 637.477 412.333 644.591C406.438 656.804 400.119 668.849 394.29 681.08C392.217 682.84 388.483 685.451 385.74 685.79C378.913 674.101 368.135 661.764 359.431 651.247C355.817 646.88 351.844 642.635 348.768 637.877C340.446 621.894 333.009 605.063 325.427 588.693C321.911 581.101 318.705 572.796 314.361 565.651C310.36 559.071 302.159 554.608 296.898 548.902C290.96 542.46 278.669 519.091 274.653 510.64C280.65 503.015 289.451 496.912 296.505 490.156C300.925 486.383 306.893 482.377 310.248 477.649C314.323 471.906 316.744 463.474 319.398 456.891L334.353 419.613C342.153 402.705 348.78 384.946 355.814 367.689Q369.254 334.877 383.433 302.378C387.603 291.187 392.109 280.197 397.402 269.482C403.144 273.782 409.436 277.441 415.233 281.727C418.296 275.272 420.829 268.396 423.519 261.771C432.149 240.511 439.719 218.837 448.417 197.616C452.028 192.609 455.198 182.777 458.024 176.747L490.914 104.861Z"/>
	<path fill="#2C596B" transform="scale(0.899846 0.899846)" d="M337.256 483.364C338.295 490.755 333.112 517.73 331.951 527C330.714 536.876 330.18 546.875 329.884 556.82L326.494 548.351C325.065 544.046 323.033 539.851 321.458 535.582C320.426 532.783 319.309 529.55 319.578 526.537C320.338 518.019 332.896 492.741 337.256 483.364Z"/>
	<path fill="#D6C763" transform="scale(0.899846 0.899846)" d="M450.57 399.113C452.913 399.376 460.21 398.894 460.852 399.071C461.678 399.299 462.26 399.984 462.83 400.574L462.977 401.294C463.171 402.205 463.41 403.092 463.661 403.988C462.617 409 463.522 419.323 463.471 424.93C463.209 453.627 464.452 482.407 463.809 511.077C461.27 515.688 457.329 519.979 454.019 524.069L434.486 547.752C415.936 570.385 397.912 593.399 379.044 615.781C384.163 602.898 391.081 590.352 397.478 578.044C404.165 565.18 410.667 552.232 417.557 539.472C422.213 530.85 430.484 518.13 433.162 509.278C436.607 497.886 434.012 473.304 435.528 459.995C436.367 452.629 438.601 445.427 440.307 438.224C443.119 426.349 445.824 414.465 448.776 402.621L450.57 399.113Z"/>
	<path fill="#69BCC4" transform="scale(0.899846 0.899846)" d="M501.065 104.902C503.918 109.793 497.798 144.306 496.715 151.574C494.639 165.499 493.085 179.529 490.795 193.415Q478.361 265.205 463.82 336.598C462.195 344.526 460.226 352.382 458.617 360.315C456.253 371.965 454.693 384.124 451.708 395.608C451.397 396.804 451.064 397.978 450.57 399.113L448.776 402.621C440.582 414.353 434.751 427.372 428.097 439.987L395.507 502.897Q437.502 358.22 474.856 212.276C481.894 185.584 488.12 158.584 494.718 131.774C496.911 122.863 498.489 113.7 501.065 104.902Z"/>
	<path fill="#2C596B" transform="scale(0.899846 0.899846)" d="M400.286 360.367C401.249 366.802 394.523 399.888 393.274 408.559L383.278 483.017C381.937 492.743 377.64 513.373 380.069 522.269C381.385 527.091 383.935 532.118 382.988 537.208C381.159 547.046 377.495 556.911 374.437 566.435C371.548 575.432 368.894 584.515 365.916 593.482C362.259 604.491 358.271 615.358 355.015 626.5C351.76 619.049 349.621 610.618 348.098 602.668C346.248 591.649 346.709 582.897 351.602 572.729C351.181 566.664 350.335 560.642 349.557 554.615C343.079 554.325 338.594 551.872 333.281 548.427C340.299 532.381 347.868 516.659 354.584 500.461C356.417 496.041 359.352 490.617 359.99 485.897C360.568 481.63 359.859 476.618 358.368 472.594C357.121 469.228 356.224 468.281 352.951 466.837C351.997 466.415 352.43 466.762 351.77 465.789C353.733 459.06 357.174 452.505 360.082 446.128C365.818 433.549 371.813 421.148 377.716 408.654C385.305 392.593 391.913 376.065 400.286 360.367Z"/>
	<path fill="#18452E" transform="scale(0.899846 0.899846)" d="M539.901 575.567C540.408 575.11 541.084 574.162 541.807 574.208C545.084 574.417 569.323 593.142 573.94 596.368C578.409 600.568 583.541 604.072 588.387 607.82C597.088 614.549 606.086 622.015 615.52 627.667C619.775 630.087 623.721 633.446 627.583 636.449C635.075 642.272 642.452 648.381 650.16 653.91C678.183 674.011 707.251 691.822 737.158 708.97C747.275 714.77 757.763 721.85 768.496 726.331C771.716 728.929 851.83 768.988 854.956 769.75C861.608 772.61 871.839 782.699 878.042 787.582C888.421 795.753 899.012 803.914 909.948 811.32C918.49 818.776 973.529 863.636 977.389 864.761C977.556 864.982 977.718 865.207 977.889 865.425C982.481 871.258 999.666 878.636 1002.23 885.324L1002.13 885.989C997.959 886.603 988.578 886.802 984.593 885.569C966.121 885.747 946.33 888.419 928.899 894.667C900.972 904.517 874.671 915.823 844.527 916.027C829.754 916.11 815.818 912.392 801.331 910.226C785.95 907.927 770.257 906.86 754.716 906.511Q723.56 906.339 692.601 909.849C682.602 902.499 670.91 896.483 660.071 890.385L621.25 868.33C604.938 859.159 588.765 848.078 571.5 840.834C569.59 839.895 568.288 838.983 566.902 837.345C560.98 830.343 556.24 821.274 551.314 813.517L527.566 776.912Q525.289 772.24 523.45 767.379Q521.611 762.517 520.226 757.508C518.471 747.612 515.373 736.366 515.605 726.318C515.807 717.534 519.851 707.835 522.404 699.434C526.729 685.204 531.644 670.548 534.41 655.947C536.08 637.448 536.548 618.763 537.665 600.217C538.158 592.046 539.822 583.72 539.901 575.567Z"/>
	<path fill="#6E9847" transform="scale(0.899846 0.899846)" d="M534.41 655.947C540.432 657.887 545.34 671.63 550.749 673.207C561.327 688.303 570.699 707.304 579.33 723.683C583.599 731.785 587.692 740.735 593.258 748.02C596.579 752.368 601.355 755.805 605.548 759.275C612.728 765.218 620.172 771.007 626.996 777.357C633.284 783.21 638.364 790.771 643.403 797.688C649.565 806.144 655.797 814.693 661.374 823.549C665.586 830.237 671.11 843.233 676.006 848.119C682.543 854.643 691.198 859.914 698.723 865.266L736.681 892.385C742.724 896.731 749.723 900.97 754.716 906.511Q723.56 906.339 692.601 909.849C682.602 902.499 670.91 896.483 660.071 890.385L621.25 868.33C604.938 859.159 588.765 848.078 571.5 840.834C569.59 839.895 568.288 838.983 566.902 837.345C560.98 830.343 556.24 821.274 551.314 813.517L527.566 776.912Q525.289 772.24 523.45 767.379Q521.611 762.517 520.226 757.508C518.471 747.612 515.373 736.366 515.605 726.318C515.807 717.534 519.851 707.835 522.404 699.434C526.729 685.204 531.644 670.548 534.41 655.947Z"/>
	<defs>
		<linearGradient id="gradient_1" gradientUnits="userSpaceOnUse" x1="791.29022" y1="622.14984" x2="739.74359" y2="894.68677">
			<stop offset="0" stop-color="#5C8537"/>
			<stop offset="1" stop-color="#749C4B"/>
		</linearGradient>
	</defs>
	<path fill="url(#gradient_1)" transform="scale(0.899846 0.899846)" d="M539.901 575.567C540.408 575.11 541.084 574.162 541.807 574.208C545.084 574.417 569.323 593.142 573.94 596.368C578.409 600.568 583.541 604.072 588.387 607.82C597.088 614.549 606.086 622.015 615.52 627.667C619.775 630.087 623.721 633.446 627.583 636.449C635.075 642.272 642.452 648.381 650.16 653.91C678.183 674.011 707.251 691.822 737.158 708.97C747.275 714.77 757.763 721.85 768.496 726.331C771.716 728.929 851.83 768.988 854.956 769.75C861.608 772.61 871.839 782.699 878.042 787.582C888.421 795.753 899.012 803.914 909.948 811.32C918.49 818.776 973.529 863.636 977.389 864.761C977.556 864.982 977.718 865.207 977.889 865.425C982.481 871.258 999.666 878.636 1002.23 885.324L1002.13 885.989C997.959 886.603 988.578 886.802 984.593 885.569C966.121 885.747 946.33 888.419 928.899 894.667C900.972 904.517 874.671 915.823 844.527 916.027C840.616 911.534 835.353 907.863 830.763 904.06C821.028 895.995 811.037 888.076 801.675 879.581C787.824 867.012 774.71 853.589 761.493 840.362L725.543 804.806C737.842 809.547 750.354 813.696 762.643 818.439C772.468 822.232 782.037 826.685 791.694 830.883C810.015 838.848 828.286 846.832 845.47 857.082C826.348 830.323 808.006 803.805 787.955 777.651C781.125 775.529 725.728 749.714 721.794 746.559C716.577 742.375 712.331 735.896 707.994 730.787C697.738 718.705 686.798 706.753 677.522 693.907C683.058 712.698 689.595 731.239 695.607 749.887C688.706 743.037 682.65 734.907 676.478 727.39L647.988 692.85Q626.92 666.722 605.229 641.11C599.196 633.926 592.769 627.084 586.879 619.785C599.799 646.663 614.361 672.849 627.733 699.52C631.068 706.171 643.964 736.315 647.345 739.919C650.493 743.275 655.804 746.229 659.589 748.932C671.23 757.248 686.003 766.752 696.149 776.481C696.281 776.607 696.411 776.737 696.541 776.865C687.237 773.703 678.03 770.067 668.821 766.627C654.115 761.133 638.655 755.635 625.054 747.737C622.707 742.576 620.519 737.312 618.014 732.228C616.543 729.242 614.724 726.708 612.258 724.456C605.936 718.685 598.609 713.648 591.933 708.262C583.306 701.302 575.027 693.905 566.63 686.673C563.708 684.156 553.543 674.132 550.749 673.207C545.34 671.63 540.432 657.887 534.41 655.947C536.08 637.448 536.548 618.763 537.665 600.217C538.158 592.046 539.822 583.72 539.901 575.567Z"/>
	<path fill="#18452E" transform="scale(0.899846 0.899846)" d="M828.367 799.714C846.907 812.438 868.268 820.347 888.313 830.348C903.87 838.11 919.496 846.071 934.589 854.701C944.373 860.295 953.844 866.436 963.54 872.18C969.202 875.534 980.837 880.84 984.593 885.569C966.121 885.747 946.33 888.419 928.899 894.667C922.763 890.058 914.919 886.877 908.217 883.089C899.702 878.277 891.306 873.281 882.751 868.532C876 864.785 859.845 857.124 854.934 852.346C850.742 848.268 830.938 807.145 828.367 799.714Z"/>
</svg>
