<?xml version="1.0" encoding="utf-8" ?>
<svg xmlns="http://www.w3.org/2000/svg" xmlns:xlink="http://www.w3.org/1999/xlink" width="1024" height="1024">
	<path fill="#43A7C9" d="M0 0L376.897 0L871.132 0L1024 0L1024 34.4438L1024 145.198L1024 206.305L1024 270.173L1024 449.5L1024 592.222L1024 611.337L1024 645.025L1024 676.04L1024 686.578L1024 690.933L1024 853.976L1024 1024L0 1024L0 993.572L0 925.192L0 862.797L0 691.112L0 657.313L0 599.909L0 439.844L0 401.365L0 339.226L0 287.124L0 222.372L0 0Z"/>
	<path fill="#195785" d="M285.143 401.363C300.16 380.618 315.138 359.719 330.866 339.505Q322.124 363.939 312.385 387.993C307.961 398.827 303.504 409.816 297.877 420.099C293.845 413.729 289.418 407.573 285.143 401.363Z"/>
	<path fill="#FEFEFD" d="M278.535 187.09L279.634 186.28C281.749 186.967 333.441 235.967 341.085 243.032C346.301 247.853 351.631 253.974 357.652 257.636C352.598 263.434 348.067 270.081 343.319 276.164C328.74 294.844 314.61 313.881 300.187 332.682C294.995 339.45 290.464 347.684 284.552 353.751C280.118 358.302 273.76 362.114 268.677 365.985C262.773 370.482 257.19 375.359 251.39 379.985C247.045 362.749 244.208 344.979 240.476 327.583C244.82 317.701 254.578 302.146 257.134 292.666C259.575 283.61 258.439 265.908 258.4 255.791C266.789 263.499 275.621 271.335 284.831 278.045C281.482 271.813 276.448 264.323 274.88 257.472C273.481 251.355 275.196 242.058 275.55 235.612Q276.672 211.328 278.535 187.09Z"/>
	<path fill="#195785" d="M88.9815 360.603C90.9661 359.08 92.906 355.768 94.4749 353.731C100.769 345.562 107.04 335.911 114.712 328.994Q99.6545 376.363 81.1649 422.501C76.8792 433.282 73.0845 445.294 67.4246 455.376C64.9238 459.831 61.6997 463.989 58.7664 468.175C51.4793 478.574 43.6741 488.801 36.8555 499.501C54.3425 486.773 73.0427 476.466 92.0297 466.198C103.081 460.221 114.103 454.1 125.359 448.516L162.278 430.105C167.271 427.601 173.744 425.403 177.93 421.817C182.407 417.982 186.293 411.861 190.011 407.227C196.243 399.459 202.786 391.882 208.776 383.929C206.108 390.157 202.646 396.069 199.437 402.035C192.358 415.198 184.914 428.129 177.765 441.247L158.834 476.078C155.849 481.487 153.025 487.531 149.42 492.535C137.797 498.121 123.754 500.392 111.634 505.215Q100.279 526.902 90.1531 549.189C94.335 531.44 98.1931 513.14 101.233 495.157C87.6855 508.47 74.8871 522.589 61.862 536.408C53.1964 545.603 44.2221 554.495 35.5327 563.667C23.9156 575.929 12.3991 588.427 0 599.909L0 439.844L0 401.365C24.5243 389.13 48.412 376.086 73.5497 365.044C77.4777 363.318 85.021 359.061 88.9815 360.603Z"/>
	<path fill="#B77261" d="M0 401.365C24.5243 389.13 48.412 376.086 73.5497 365.044C77.4777 363.318 85.021 359.061 88.9815 360.603C80.2687 372.525 71.001 384.045 62.1214 395.842C54.7844 405.591 47.7903 415.792 40.1708 425.304C39.038 426.718 37.6287 428.576 36.0485 429.446C32.2474 431.54 27.2085 432.344 23.0237 433.385C15.3316 435.298 7.41538 436.998 0 439.844L0 401.365Z"/>
	<path fill="#195785" d="M455.331 231.677C463.657 217.239 470.993 201.781 480.546 188.13C479.629 194.232 477.453 200.107 476.694 206.223C472.505 216.561 470.104 228.162 467.197 238.953Q460.174 265.765 452.401 292.37C450.303 299.618 448.737 307.922 445.712 314.81C443.117 320.718 438.976 326.108 435.445 331.498L417.965 358.193Q419.711 368.084 421.326 377.998C422.153 383.338 422.654 388.844 424.286 394.011C427.337 403.672 434.762 415.882 436.24 425.267C437.522 433.407 433.766 454.396 432.679 463.697C432.239 467.465 431.517 471.456 432.053 475.245C433.054 482.316 437.683 490.429 440.555 496.95Q444.891 506.754 448.717 516.767Q432.248 538.943 416.239 561.454C412.166 567.087 407.051 572.559 403.358 578.382C396.339 569.383 390.644 559.41 384.271 549.959L341.536 485.994C335.951 477.555 331.261 468.327 324.935 460.408C320.917 452.456 314.978 445.008 310.029 437.579C328.102 412.111 344.271 385.146 360.641 358.569C360.615 364.461 359.86 370.436 359.373 376.307L356.786 406.437C359.64 400.561 363.206 394.913 366.502 389.271Q375.248 374.479 383.689 359.511C386.446 354.58 389.436 349.575 391.647 344.372C394.674 337.247 396.507 329.434 398.687 322.007C401.732 311.628 404.955 301.311 407.922 290.907C409.618 284.96 410.955 276.753 414.119 271.487C416.28 267.891 420.132 265.063 423.266 262.32Q430.721 255.675 438.352 249.234C442.929 245.435 448.226 241.762 452.137 237.282C453.612 235.593 454.758 233.851 455.331 231.677Z"/>
	<path fill="#091B33" d="M0 657.313C11.9824 647.205 23.2177 635.796 34.5611 624.944C39.525 620.195 44.6911 614.065 50.4732 610.465C57.0287 606.385 64.726 603.334 71.691 599.937Q92.8454 589.559 114.103 579.395C119.36 576.895 129.001 573.449 133.202 569.698C137.03 566.28 140.081 561.481 143.132 557.381Q153.911 542.921 164.002 527.974L227.317 434.234C236.022 421.083 244.549 407.875 253.484 394.875C257.143 389.552 260.667 383.987 264.684 378.937L265.074 378.454C264.879 380.162 264.611 381.892 264.642 383.613L264.109 384.654L263.79 384.352C257.464 395.089 255.014 431.804 253.075 446.051C251.718 456.028 249.885 465.933 248.565 475.92C247.715 482.356 247.252 493.77 244.906 499.488C242.257 505.945 231.794 515.601 227.084 521.202C220.335 529.226 214.375 537.977 207.931 546.252C202.333 553.439 195.342 560.683 190.912 568.612C192.224 588.835 194.47 609.044 195.264 629.294L194.764 630.103C175.425 661.033 158.351 670.016 152.047 709.285C146.891 707.749 141.087 707.158 135.77 706.256L103.524 701.009C79.1424 697.075 54.8963 692.124 30.3627 689.268C24.7448 687.626 7.27581 691.106 0 691.112L0 657.313Z"/>
	<path fill="#895A6E" d="M313.525 162.805C318.043 159.437 324.444 157.586 329.573 155.17C339.143 150.66 348.026 145.477 356.48 139.102C378.617 122.411 395.064 97.9394 422.93 90.0329C428.662 88.4064 434.743 87.4305 440.679 86.9536C449.6 86.2368 476.707 86.4156 484.348 90.6386C473.598 105.047 462.376 119.039 451.468 133.308L399.653 201.397C385.485 219.977 372.242 239.405 357.652 257.636C351.631 253.974 346.301 247.853 341.085 243.032C333.441 235.967 281.749 186.967 279.634 186.28L278.535 187.09C264.383 201.969 249.324 216.308 234.255 230.265C229.602 234.574 224.455 240.229 219.214 243.68C204.014 258.017 187.844 271.388 172.381 285.444C162.203 294.696 152.502 305.591 141.439 313.713C133.308 319.683 123.384 323.776 114.712 328.994C107.04 335.911 100.769 345.562 94.4749 353.731C92.906 355.768 90.9661 359.08 88.9815 360.603C85.021 359.061 77.4777 363.318 73.5497 365.044C48.412 376.086 24.5243 389.13 0 401.365L0 339.226L0 287.124C14.084 278.147 29.38 270.155 44.1545 262.352C53.6307 257.347 63.0985 251.995 72.8907 247.633C86.2101 241.699 100.052 236.876 113.45 231.089C136.257 221.239 157.818 209.953 179.225 197.356C185.37 193.741 192.84 190.649 198.182 185.941Q213.129 185.709 228.072 186.094C232.44 186.164 237.678 186.807 241.971 186.146C250.852 187.405 259.227 185.893 267.757 183.558C271.979 182.402 276.306 181.067 280.723 180.984C286.602 180.874 291.693 184.517 297.583 184.903C314.859 186.036 333.637 185.025 351.064 184.944C357.127 185.155 365.45 186.399 371.256 184.686L371.527 184.038C371.37 183.873 371.219 183.701 371.054 183.543C365.623 178.301 346.604 177.324 339.25 177.561C332.786 168.034 324.177 165.293 313.525 162.805Z"/>
	<path fill="#926865" d="M0 339.226C23.9424 330.387 47.6701 324.516 70.3135 312.253C87.1317 303.144 103.677 292.995 119.867 282.806C136.647 272.245 153.387 260.219 172.283 253.736C178.857 251.481 214.897 241.578 219.214 243.68C204.014 258.017 187.844 271.388 172.381 285.444C162.203 294.696 152.502 305.591 141.439 313.713C133.308 319.683 123.384 323.776 114.712 328.994C107.04 335.911 100.769 345.562 94.4749 353.731C92.906 355.768 90.9661 359.08 88.9815 360.603C85.021 359.061 77.4777 363.318 73.5497 365.044C48.412 376.086 24.5243 389.13 0 401.365L0 339.226Z"/>
	<path fill="#ECC69A" d="M508.374 66.5906C517.591 80.2203 526.165 94.2606 534.973 108.155L571.616 165.197L602.202 211.839C606.251 217.942 610.82 223.863 614.581 230.134C617.285 234.521 622.474 243.873 625.95 247.138C629.806 253.182 633.491 259.892 638.06 265.408C644.503 273.188 657.086 282.704 664.961 289.638C669.208 293.379 674.747 296.853 678.157 301.351C681.194 305.358 683.13 310.483 685.211 315.037C688.212 321.603 691.271 328.164 694.057 334.824C696.378 340.371 698.381 346.077 701.029 351.478C703.488 356.976 706.558 362.773 708.049 368.619C701.762 382.253 692.013 394.637 683.653 407.073C676.786 418.749 667.751 429.545 659.522 440.302Q649.348 453.634 639.308 467.067C633.011 475.601 624.408 490.214 615.983 496.294C609.289 501.237 603.029 506.896 596.274 511.704C587.025 518.923 578.317 526.87 569.492 534.601C564.658 538.836 559.568 542.848 554.84 547.193Q542.179 537.239 530.001 526.699C526.517 523.687 522.684 520.728 519.688 517.219C510.539 511.461 496.115 494.386 488.2 485.861C486.055 483.551 483.847 480.234 481.304 478.471L481.388 478.847L480.444 478.655L480.19 478.247L479.54 476.681L478.795 476.712C469.512 490.552 457.957 502.933 448.717 516.767Q444.891 506.754 440.555 496.95C437.683 490.429 433.054 482.316 432.053 475.245C431.517 471.456 432.239 467.465 432.679 463.697C433.766 454.396 437.522 433.407 436.24 425.267C434.762 415.882 427.337 403.672 424.286 394.011C422.654 388.844 422.153 383.338 421.326 377.998Q419.711 368.084 417.965 358.193L435.445 331.498C438.976 326.108 443.117 320.718 445.712 314.81C448.737 307.922 450.303 299.618 452.401 292.37Q460.174 265.765 467.197 238.953C470.104 228.162 472.505 216.561 476.694 206.223C477.453 200.107 479.629 194.232 480.546 188.13C470.993 201.781 463.657 217.239 455.331 231.677C455.175 230.369 455.433 229.366 455.81 228.129C457.381 222.961 459.922 217.885 461.86 212.824C464.532 205.849 466.754 198.66 469.063 191.556Q482.293 150.881 494.919 110.014C498.758 97.276 502.576 77.796 508.374 66.5906Z"/>
	<path fill="#195785" d="M587.788 386.68C589.998 373.733 592.172 360.731 593.611 347.671C596.008 325.918 597.065 303.892 598.292 282.041L611.954 323.197C614.475 330.764 617.429 338.461 619.253 346.226C621.723 356.739 618.628 372.845 622.327 381.985C625.164 388.994 630.105 395.885 634.182 402.246Q646.545 421.478 659.522 440.302Q649.348 453.634 639.308 467.067C633.011 475.601 624.408 490.214 615.983 496.294Q613.661 483.002 610.935 469.788C609.7 463.63 608.104 457.321 607.666 451.046C606.898 440.057 608.457 428.798 608.032 417.739Q597.418 402.53 587.788 386.68Z"/>
	<path fill="#195785" d="M525.202 365.387C526.063 374.735 532.181 421.405 535.221 428.213C537.014 432.226 541.404 436.45 544.127 439.969Q552.364 450.739 560.488 461.594Q578.719 486.407 596.274 511.704C587.025 518.923 578.317 526.87 569.492 534.601C564.658 538.836 559.568 542.848 554.84 547.193Q542.179 537.239 530.001 526.699C526.517 523.687 522.684 520.728 519.688 517.219C519.221 509.939 517.187 487.493 515.257 481.398C512.092 471.405 501.436 455.283 495.541 446.169C501.765 431.14 507.174 415.742 512.73 400.456C516.977 388.773 521.557 377.284 525.202 365.387Z"/>
	<path fill="#FEFEFD" d="M508.374 66.5906C517.591 80.2203 526.165 94.2606 534.973 108.155L571.616 165.197L602.202 211.839C606.251 217.942 610.82 223.863 614.581 230.134C617.285 234.521 622.474 243.873 625.95 247.138C629.806 253.182 633.491 259.892 638.06 265.408C644.503 273.188 657.086 282.704 664.961 289.638C669.208 293.379 674.747 296.853 678.157 301.351C681.194 305.358 683.13 310.483 685.211 315.037C688.212 321.603 691.271 328.164 694.057 334.824C696.378 340.371 698.381 346.077 701.029 351.478C703.488 356.976 706.558 362.773 708.049 368.619C701.762 382.253 692.013 394.637 683.653 407.073C681.005 404.099 668.639 376.174 665.464 369.804L642.854 324.873C637.91 314.902 633.426 304.485 627.655 294.965C621.241 284.382 612.585 274.662 605.514 264.449C599.178 255.297 593.29 245.106 585.867 236.823C586.29 255.683 585.692 274.519 585.762 293.375C585.835 313.051 586.537 332.767 585.707 352.435C575.622 332.846 568.925 311.554 558.752 292.076C557.476 299.679 557.185 307.655 556.323 315.337C554.782 329.056 552.874 342.854 551.763 356.6C543.614 344.49 536.16 331.84 528.704 319.295C524.748 312.638 520.972 305.805 516.581 299.423C514.773 309.328 511.507 319.269 508.941 329.021C505.788 341.003 503.095 353.218 499.361 365.024C494.711 327.091 488.503 289.267 482.985 251.449C480.785 236.374 478.373 221.367 476.694 206.223C477.453 200.107 479.629 194.232 480.546 188.13C470.993 201.781 463.657 217.239 455.331 231.677C455.175 230.369 455.433 229.366 455.81 228.129C457.381 222.961 459.922 217.885 461.86 212.824C464.532 205.849 466.754 198.66 469.063 191.556Q482.293 150.881 494.919 110.014C498.758 97.276 502.576 77.796 508.374 66.5906Z"/>
	<defs>
		<linearGradient id="gradient_0" gradientUnits="userSpaceOnUse" x1="501.78632" y1="287.72668" x2="370.28577" y2="3.3358202">
			<stop offset="0" stop-color="#9E6665"/>
			<stop offset="1" stop-color="#654E85"/>
		</linearGradient>
	</defs>
	<path fill="url(#gradient_0)" d="M0 0L376.897 0L871.132 0C865.802 6.08874 859.574 11.2905 853.783 16.9249C848.025 22.5265 842.526 28.9198 837.522 35.2086C819.271 58.1443 803.693 83.1526 784.953 105.7C778.833 113.063 772.069 120.029 765.29 126.783C756.957 135.085 747.616 143.508 737.495 149.563C731.191 153.334 715.717 159.325 712.429 165.293C712.293 165.539 712.147 165.78 712.005 166.023C699.375 172.748 690.147 181.414 685.871 195.409C685.382 197.012 684.993 198.64 684.625 200.274C673.843 201.219 663.676 204.422 656.463 212.958C654.558 215.213 653.102 217.68 651.924 220.382C644.369 216.564 638.057 213.852 629.496 216.563C622.769 218.693 617.877 223.47 614.787 229.71L614.581 230.134C610.82 223.863 606.251 217.942 602.202 211.839L571.616 165.197L534.973 108.155C526.165 94.2606 517.591 80.2203 508.374 66.5906C508.698 64.084 508.504 61.737 508.294 59.2367C499.406 68.8572 492.651 80.4923 484.348 90.6386C476.707 86.4156 449.6 86.2368 440.679 86.9536C434.743 87.4305 428.662 88.4064 422.93 90.0329C395.064 97.9394 378.617 122.411 356.48 139.102C348.026 145.477 339.143 150.66 329.573 155.17C324.444 157.586 318.043 159.437 313.525 162.805C324.177 165.293 332.786 168.034 339.25 177.561C346.604 177.324 365.623 178.301 371.054 183.543C371.219 183.701 371.37 183.873 371.527 184.038L371.256 184.686C365.45 186.399 357.127 185.155 351.064 184.944C333.637 185.025 314.859 186.036 297.583 184.903C291.693 184.517 286.602 180.874 280.723 180.984C276.306 181.067 271.979 182.402 267.757 183.558C259.227 185.893 250.852 187.405 241.971 186.146C237.678 186.807 232.44 186.164 228.072 186.094Q213.129 185.709 198.182 185.941C192.84 190.649 185.37 193.741 179.225 197.356C157.818 209.953 136.257 221.239 113.45 231.089C100.052 236.876 86.2101 241.699 72.8907 247.633C63.0985 251.995 53.6307 257.347 44.1545 262.352C29.38 270.155 14.084 278.147 0 287.124L0 222.372L0 0Z"/>
	<path fill="#95A1A9" d="M200.534 150.272C213.845 162.887 226.897 175.587 241.971 186.146C237.678 186.807 232.44 186.164 228.072 186.094Q213.129 185.709 198.182 185.941L157.64 185.985C147.705 185.999 137.332 186.35 127.498 184.792C128.778 182.287 130.124 180.474 132.373 178.718C140.594 172.3 149.893 172.491 159.69 173.745C162.042 170.639 164.363 167.469 167.186 164.766C175.416 156.885 184.277 157.239 194.776 157.506C197.247 155.401 198.872 153.007 200.534 150.272Z"/>
	<path fill="#ECC69A" d="M200.534 150.272Q203.685 144.524 207.081 138.917C210.605 133.148 215.373 126.265 222.413 124.756C236.543 121.728 242.252 140.369 250.535 145.51C256.47 149.194 265.648 142.464 271.729 141.04L272.42 140.885C279.652 139.935 285.774 140.587 291.783 145.136C297.476 149.447 301.286 155.391 304.551 161.645L313.525 162.805C324.177 165.293 332.786 168.034 339.25 177.561C346.604 177.324 365.623 178.301 371.054 183.543C371.219 183.701 371.37 183.873 371.527 184.038L371.256 184.686C365.45 186.399 357.127 185.155 351.064 184.944C333.637 185.025 314.859 186.036 297.583 184.903C291.693 184.517 286.602 180.874 280.723 180.984C276.306 181.067 271.979 182.402 267.757 183.558C259.227 185.893 250.852 187.405 241.971 186.146C226.897 175.587 213.845 162.887 200.534 150.272Z"/>
	<path fill="#FCF3AA" d="M272.42 140.885C279.652 139.935 285.774 140.587 291.783 145.136C297.476 149.447 301.286 155.391 304.551 161.645L313.525 162.805C324.177 165.293 332.786 168.034 339.25 177.561C346.604 177.324 365.623 178.301 371.054 183.543C371.219 183.701 371.37 183.873 371.527 184.038L371.256 184.686C365.45 186.399 357.127 185.155 351.064 184.944C342.932 183.865 337.003 178.959 330.882 174.028C322.403 167.199 313.241 169.749 303.479 170.766C295.313 166.617 278.782 148.246 272.42 140.885Z"/>
	<path fill="#5C4B81" d="M0 0L376.897 0C372.411 7.64739 365.653 14.537 359.703 21.0761C353.319 28.0926 346.923 35.1603 339.88 41.53C314.408 64.5668 283.291 80.3532 251.608 92.8615C241.059 97.0263 230.376 101.748 219.394 104.587C201.927 109.104 183.868 112.058 166.876 118.293C157.846 121.606 149.283 126.077 140.692 130.365C124.467 138.466 109.244 146.762 94.1794 156.898C87.362 161.484 80.8905 166.616 74.2353 171.437C49.9007 189.067 25.9858 207.207 0 222.372L0 0Z"/>
	<defs>
		<linearGradient id="gradient_1" gradientUnits="userSpaceOnUse" x1="178.88506" y1="574.7326" x2="680.2359" y2="673.22052">
			<stop offset="0" stop-color="#2A3249"/>
			<stop offset="1" stop-color="#553C41"/>
		</linearGradient>
	</defs>
	<path fill="url(#gradient_1)" d="M265.074 378.454L266.532 376.6C270.049 378.933 280.863 396.529 285.143 401.363C289.418 407.573 293.845 413.729 297.877 420.099C301.686 426.069 305.936 431.798 310.029 437.579C314.978 445.008 320.917 452.456 324.935 460.408C331.261 468.327 335.951 477.555 341.536 485.994L384.271 549.959C390.644 559.41 396.339 569.383 403.358 578.382C407.051 572.559 412.166 567.087 416.239 561.454Q432.248 538.943 448.717 516.767C457.957 502.933 469.512 490.552 478.795 476.712L479.54 476.681L480.19 478.247L480.444 478.655L481.388 478.847L481.304 478.471C483.847 480.234 486.055 483.551 488.2 485.861C496.115 494.386 510.539 511.461 519.688 517.219C522.684 520.728 526.517 523.687 530.001 526.699Q542.179 537.239 554.84 547.193C565.96 556.526 577.636 564.934 589.177 573.714C605.439 586.085 621.684 598.654 638.448 610.344C647.358 616.021 660.305 617.753 670.643 620.048C695.913 625.595 720.757 632.634 745.856 638.811C749.36 639.61 751.391 640.997 753.414 643.98C763.084 659.448 772.529 674.984 782.493 690.281C786.346 696.195 790.155 703.214 794.771 708.501C796.045 710.764 797.273 713.023 799.091 714.907C805.578 721.632 813.559 727.351 820.833 733.23C830.569 741.098 840.24 749.378 850.561 756.473C846.385 759 840.791 760.269 836.126 761.741C830.113 764.507 823.44 766.746 816.983 768.253C808.26 769.03 784.287 777.291 775.152 780.553C770.561 782.192 758.134 787.761 753.789 787.591C747.631 789.76 713.813 801.589 710.492 801.488C696.843 807.734 681.143 811.394 666.789 815.841C662.542 817.157 657.718 818.25 653.666 820.025C630.496 826.317 607.499 834.336 584.749 841.988C572.751 846.022 560.793 850.425 548.513 853.522C537.251 857.644 525.698 860.757 514.447 864.786C496.33 863.674 477.829 859.564 459.859 856.85L352.651 840.619C333.239 818.455 312.287 797.43 293.812 774.465C291.665 774.912 289.508 775.003 287.325 775.142C278.319 776.666 268.894 777.165 259.785 778.121L209.599 783.553C203.17 774.42 152.657 714.13 152.365 709.29L152.047 709.285C158.351 670.016 175.425 661.033 194.764 630.103L195.264 629.294C194.47 609.044 192.224 588.835 190.912 568.612C195.342 560.683 202.333 553.439 207.931 546.252C214.375 537.977 220.335 529.226 227.084 521.202C231.794 515.601 242.257 505.945 244.906 499.488C247.252 493.77 247.715 482.356 248.565 475.92C249.885 465.933 251.718 456.028 253.075 446.051C255.014 431.804 257.464 395.089 263.79 384.352L264.109 384.654L264.642 383.613C264.611 381.892 264.879 380.162 265.074 378.454Z"/>
	<defs>
		<linearGradient id="gradient_2" gradientUnits="userSpaceOnUse" x1="360.23889" y1="627.94598" x2="374.72659" y2="651.84729">
			<stop offset="0" stop-color="#CD8B55"/>
			<stop offset="1" stop-color="#AB947B"/>
		</linearGradient>
	</defs>
	<path fill="url(#gradient_2)" d="M364.782 625.334C368.1 637.089 372.733 648.78 375.233 660.71C371.052 653.835 360.662 634.078 355.867 629.337C358.628 626.261 361.696 627.597 364.782 625.334Z"/>
	<path fill="#947C6E" d="M402.263 682.284C408.572 686.426 422.134 701.526 428.483 707.669Q459.456 737.326 489.621 767.804C501.475 779.89 512.828 792.456 524.678 804.543C520.42 802.86 516.107 799.674 512.164 797.299C503.532 792.101 494.93 786.835 486.233 781.745C468.32 771.262 449.264 762.182 431.965 750.731C427.196 740.113 422.244 729.534 417.734 718.806C412.595 706.581 407.992 694.266 402.263 682.284Z"/>
	<path fill="#091B33" d="M259.932 637.484C264.611 643.073 268.129 649.954 271.873 656.206Q283.165 675.47 294.724 694.574L318.048 731.763C322.874 739.571 327.433 747.572 332.345 755.319L348.283 780.587C350.735 784.5 353.395 788.102 355.663 792.159L355.533 793.301C338.91 788.355 322.423 782.47 305.98 776.937C304.705 770.712 302.264 764.48 300.285 758.428L289.375 725.067C280.075 696.029 272.35 665.374 259.932 637.484Z"/>
	<path fill="#091B33" d="M224.726 579.341L248.913 633.948C252.735 642.673 258.259 652.144 259.74 661.644C260.912 669.161 260.645 677.172 260.614 684.768C260.55 700.223 259.739 715.769 259.996 731.206C243.077 728.53 226.212 724.453 209.437 720.973C209.879 713.076 212.045 705.095 213.703 697.369L220.606 664.203C221.787 658.669 223.414 653.154 224.347 647.581C225.955 637.971 225.001 627.156 224.98 617.423C224.951 604.781 225.395 591.964 224.726 579.341Z"/>
	<path fill="#A58D7A" d="M510.146 768.422C498.85 745.621 489.345 720.053 479.68 696.381C476.952 689.699 469.2 673.633 468.639 667.396C478.327 675.193 491.073 686.015 501.511 692.349C514.331 700.127 529.196 705.097 543.272 710.134C556.888 715.007 570.455 719.745 584.344 723.8Q594.284 726.679 604.369 728.998C609.848 730.299 615.864 731.265 620.978 733.688C627.615 736.831 634.144 742.601 639.942 747.091L664.572 766.177L694.081 788.937C699.524 793.093 705.255 797.086 710.492 801.488C696.843 807.734 681.143 811.394 666.789 815.841C662.542 817.157 657.718 818.25 653.666 820.025C645.783 813.868 635.915 809.272 627.057 804.611C611.037 796.182 594.629 788.096 579.051 778.871C572.736 775.131 566.842 770.426 560.953 766.05C544.974 754.176 529.944 741.541 514.45 729.087L514.68 730.554L515.013 729.87C520.466 736.687 525.541 743.805 530.97 750.642C542.606 765.293 556.671 781.58 569.675 794.974C581.019 806.659 593.852 816.882 605.417 828.341C599.147 824.071 592.472 820.397 585.977 816.484Q572.686 808.361 559.574 799.951C542.94 789.154 528.115 777.136 510.146 768.422Z"/>
	<path fill="#96CCA9" d="M152.365 709.29C171.27 713.615 190.442 717.028 209.437 720.973C226.212 724.453 243.077 728.53 259.996 731.206C269.536 744.737 283.119 756.021 291.408 770.438C292.571 771.437 293.398 772.637 294.296 773.866C298.264 774.655 302.105 775.789 305.98 776.937C322.423 782.47 338.91 788.355 355.533 793.301C393.043 806.057 430.794 818.796 468.769 830.089Q493.338 837.229 517.993 844.064C525.497 846.143 542.354 850.051 548.513 853.522C537.251 857.644 525.698 860.757 514.447 864.786C496.33 863.674 477.829 859.564 459.859 856.85L352.651 840.619C333.239 818.455 312.287 797.43 293.812 774.465C291.665 774.912 289.508 775.003 287.325 775.142C278.319 776.666 268.894 777.165 259.785 778.121L209.599 783.553C203.17 774.42 152.657 714.13 152.365 709.29Z"/>
	<path fill="#DF7C35" d="M265.074 378.454L266.532 376.6C270.049 378.933 280.863 396.529 285.143 401.363C289.418 407.573 293.845 413.729 297.877 420.099C301.686 426.069 305.936 431.798 310.029 437.579C314.978 445.008 320.917 452.456 324.935 460.408C331.261 468.327 335.951 477.555 341.536 485.994L384.271 549.959C390.644 559.41 396.339 569.383 403.358 578.382L407.169 584.43C411.819 595.037 417.338 605.29 421.79 615.958C407.866 597.111 393.204 578.924 379.598 559.817C382.451 568.87 386.238 577.483 389.642 586.328C392.459 593.649 394.763 601.181 397.701 608.452C400.477 615.322 403.881 621.976 406.97 628.712C395.082 615.745 381.56 604.195 368.524 592.412C361.733 586.273 355.313 579.723 348.505 573.615Q354.412 590.863 359.561 608.352C361.274 613.975 362.754 619.824 364.782 625.334C361.696 627.597 358.628 626.261 355.867 629.337C332.803 620.778 309.762 611.286 287.194 601.477C297.454 591.717 307.332 581.487 317.726 571.889C296.903 556.895 274.327 543.802 254.778 527.149C260.478 516.338 274.126 493.378 276.964 483.001C278.847 476.11 268.484 410.487 267.567 396.979L267.529 396.364C266.187 392.208 265.612 387.863 264.642 383.613C264.611 381.892 264.879 380.162 265.074 378.454Z"/>
	<path fill="#FCF3AA" d="M265.074 378.454L266.532 376.6C270.049 378.933 280.863 396.529 285.143 401.363C289.418 407.573 293.845 413.729 297.877 420.099C301.686 426.069 305.936 431.798 310.029 437.579C314.978 445.008 320.917 452.456 324.935 460.408C327.149 493.313 332.657 526.062 334.167 559.009C326.533 546.547 314.511 535.904 305.069 524.709C302.491 510.751 302.816 495.939 299.439 482.169C297.224 473.136 293.146 463.993 289.869 455.249C282.504 435.599 274.637 416.102 267.529 396.364C266.187 392.208 265.612 387.863 264.642 383.613C264.611 381.892 264.879 380.162 265.074 378.454Z"/>
	<path fill="#3B3142" d="M448.717 516.767C457.957 502.933 469.512 490.552 478.795 476.712L479.54 476.681L480.19 478.247L480.444 478.655L481.388 478.847L481.304 478.471C483.847 480.234 486.055 483.551 488.2 485.861C496.115 494.386 510.539 511.461 519.688 517.219C522.684 520.728 526.517 523.687 530.001 526.699Q542.179 537.239 554.84 547.193C565.96 556.526 577.636 564.934 589.177 573.714C605.439 586.085 621.684 598.654 638.448 610.344C647.358 616.021 660.305 617.753 670.643 620.048C695.913 625.595 720.757 632.634 745.856 638.811C749.36 639.61 751.391 640.997 753.414 643.98C763.084 659.448 772.529 674.984 782.493 690.281C786.346 696.195 790.155 703.214 794.771 708.501C796.045 710.764 797.273 713.023 799.091 714.907C805.578 721.632 813.559 727.351 820.833 733.23C830.569 741.098 840.24 749.378 850.561 756.473C846.385 759 840.791 760.269 836.126 761.741C830.113 764.507 823.44 766.746 816.983 768.253C808.26 769.03 784.287 777.291 775.152 780.553C770.561 782.192 758.134 787.761 753.789 787.591C747.631 789.76 713.813 801.589 710.492 801.488C705.255 797.086 699.524 793.093 694.081 788.937L664.572 766.177L639.942 747.091C634.144 742.601 627.615 736.831 620.978 733.688C615.864 731.265 609.848 730.299 604.369 728.998Q594.284 726.679 584.344 723.8C570.455 719.745 556.888 715.007 543.272 710.134C529.196 705.097 514.331 700.127 501.511 692.349C491.073 686.015 478.327 675.193 468.639 667.396C467.656 664.314 463.057 658.841 461.099 655.98C447.446 636.034 433.595 615.87 418.591 596.923C415.545 593.076 411.309 586.866 407.169 584.43L403.358 578.382C407.051 572.559 412.166 567.087 416.239 561.454Q432.248 538.943 448.717 516.767Z"/>
	<path fill="#947C6E" d="M589.103 625.421C593.785 622.02 638.406 627.443 646.691 628.762C652.713 629.72 660.65 632.486 666.585 631.304C676.176 633.381 749.208 645.81 753.414 643.98C763.084 659.448 772.529 674.984 782.493 690.281C786.346 696.195 790.155 703.214 794.771 708.501C796.045 710.764 797.273 713.023 799.091 714.907C805.578 721.632 813.559 727.351 820.833 733.23C830.569 741.098 840.24 749.378 850.561 756.473C846.385 759 840.791 760.269 836.126 761.741C823.747 756.933 812.035 748.298 801.074 740.902C769.347 719.494 740.177 694.887 708.725 673.129C697.543 665.394 686.179 657.282 673.935 651.286C678.637 660.078 682.528 669.501 686.871 678.498C691.93 688.978 697.459 699.24 702.337 709.802C694.758 703.141 686.337 697.188 678.426 690.893C658.339 674.908 637.93 658.964 617.023 644.067C607.947 637.6 597.877 632.225 589.103 625.421Z"/>
	<path fill="#DF7C35" d="M480.444 478.655L481.388 478.847L481.304 478.471C483.847 480.234 486.055 483.551 488.2 485.861C496.115 494.386 510.539 511.461 519.688 517.219C522.684 520.728 526.517 523.687 530.001 526.699Q542.179 537.239 554.84 547.193C565.96 556.526 577.636 564.934 589.177 573.714C605.439 586.085 621.684 598.654 638.448 610.344C647.358 616.021 660.305 617.753 670.643 620.048C695.913 625.595 720.757 632.634 745.856 638.811C749.36 639.61 751.391 640.997 753.414 643.98C749.208 645.81 676.176 633.381 666.585 631.304C660.65 632.486 652.713 629.72 646.691 628.762C638.406 627.443 593.785 622.02 589.103 625.421C591.822 643.647 597.134 661.497 602.962 678.937C594.697 669.764 582.89 656.493 573.376 649.173C565.338 642.989 552.259 636.829 543.17 631.347C528.444 622.464 514.316 612.651 499.874 603.32C496.815 586.724 495.365 569.6 492.931 552.872Q490.08 532.867 486.934 512.906C485.584 504.58 483.916 496.263 482.788 487.909C481.886 484.848 481.158 481.764 480.444 478.655Z"/>
	<path fill="#FCF3AA" d="M480.444 478.655L481.388 478.847L481.304 478.471C483.847 480.234 486.055 483.551 488.2 485.861C496.115 494.386 510.539 511.461 519.688 517.219C522.684 520.728 526.517 523.687 530.001 526.699Q542.179 537.239 554.84 547.193C565.96 556.526 577.636 564.934 589.177 573.714C605.439 586.085 621.684 598.654 638.448 610.344C647.358 616.021 660.305 617.753 670.643 620.048C695.913 625.595 720.757 632.634 745.856 638.811C749.36 639.61 751.391 640.997 753.414 643.98C749.208 645.81 676.176 633.381 666.585 631.304C658.482 629.856 650.089 628.077 642.371 625.195C630.9 620.911 619.869 614.325 608.999 608.7C589.644 598.683 569.953 588.846 551.515 577.194C558.517 592.105 564.831 607.14 571.272 622.289C561.684 609.996 550.541 598.516 539.799 587.231C534.26 581.412 527.735 575.514 523.215 568.896C518.692 562.275 515.767 553.451 512.24 546.174C502.743 526.578 493.489 506.888 482.788 487.909C481.886 484.848 481.158 481.764 480.444 478.655Z"/>
	<path fill="#091B33" d="M448.717 516.767C457.957 502.933 469.512 490.552 478.795 476.712L479.54 476.681L480.19 478.247C477.197 488.531 470.68 506.433 469.52 516.442C468.666 523.817 470.497 532.082 471.123 539.497C472.011 550 471.707 560.666 472.813 571.11C473.637 578.886 476.318 586.86 478.04 594.513C479.826 602.446 480.829 610.666 483.417 618.385C499.297 630.21 515.823 641.468 530.638 654.666C538.676 661.828 546.193 669.632 553.816 677.232C558.953 682.355 564.303 688.442 570.492 692.251C576.189 695.757 583.327 697.939 589.474 700.629C603.489 706.762 617.577 713.004 631.303 719.761C649.896 728.915 667.69 739.254 685.816 749.26L723.058 770.249C733.332 775.997 743.694 781.526 753.789 787.591C747.631 789.76 713.813 801.589 710.492 801.488C705.255 797.086 699.524 793.093 694.081 788.937L664.572 766.177L639.942 747.091C634.144 742.601 627.615 736.831 620.978 733.688C615.864 731.265 609.848 730.299 604.369 728.998Q594.284 726.679 584.344 723.8C570.455 719.745 556.888 715.007 543.272 710.134C529.196 705.097 514.331 700.127 501.511 692.349C491.073 686.015 478.327 675.193 468.639 667.396C467.656 664.314 463.057 658.841 461.099 655.98C447.446 636.034 433.595 615.87 418.591 596.923C415.545 593.076 411.309 586.866 407.169 584.43L403.358 578.382C407.051 572.559 412.166 567.087 416.239 561.454Q432.248 538.943 448.717 516.767Z"/>
	<path fill="#C47957" d="M871.132 0L1024 0L1024 34.4438L1024 145.198L1024 206.305L1024 270.173L1024 449.5L1024 592.222L1024 611.337L1024 645.025L1024 676.04L1024 686.578L1024 690.933C1009.98 696.891 996.075 703.039 981.966 708.784C973.305 713.144 964.106 716.246 955.077 719.734C943.352 724.263 931.759 729.084 919.929 733.346C912.085 736.172 904.02 738.43 896.207 741.289C891.553 742.643 887.022 744.39 882.36 745.711C875.155 747.737 856.164 752.325 850.561 756.473C840.24 749.378 830.569 741.098 820.833 733.23C813.559 727.351 805.578 721.632 799.091 714.907C797.273 713.023 796.045 710.764 794.771 708.501C790.155 703.214 786.346 696.195 782.493 690.281C772.529 674.984 763.084 659.448 753.414 643.98C751.391 640.997 749.36 639.61 745.856 638.811C720.757 632.634 695.913 625.595 670.643 620.048C660.305 617.753 647.358 616.021 638.448 610.344C621.684 598.654 605.439 586.085 589.177 573.714C577.636 564.934 565.96 556.526 554.84 547.193C559.568 542.848 564.658 538.836 569.492 534.601C578.317 526.87 587.025 518.923 596.274 511.704C603.029 506.896 609.289 501.237 615.983 496.294C624.408 490.214 633.011 475.601 639.308 467.067Q649.348 453.634 659.522 440.302C667.751 429.545 676.786 418.749 683.653 407.073C692.013 394.637 701.762 382.253 708.049 368.619C706.558 362.773 703.488 356.976 701.029 351.478C698.381 346.077 696.378 340.371 694.057 334.824C691.271 328.164 688.212 321.603 685.211 315.037C683.13 310.483 681.194 305.358 678.157 301.351C674.747 296.853 669.208 293.379 664.961 289.638C657.086 282.704 644.503 273.188 638.06 265.408C633.491 259.892 629.806 253.182 625.95 247.138C622.474 243.873 617.285 234.521 614.581 230.134L614.787 229.71C617.877 223.47 622.769 218.693 629.496 216.563C638.057 213.852 644.369 216.564 651.924 220.382C653.102 217.68 654.558 215.213 656.463 212.958C663.676 204.422 673.843 201.219 684.625 200.274C684.993 198.64 685.382 197.012 685.871 195.409C690.147 181.414 699.375 172.748 712.005 166.023C712.147 165.78 712.293 165.539 712.429 165.293C715.717 159.325 731.191 153.334 737.495 149.563C747.616 143.508 756.957 135.085 765.29 126.783C772.069 120.029 778.833 113.063 784.953 105.7C803.693 83.1526 819.271 58.1443 837.522 35.2086C842.526 28.9198 848.025 22.5265 853.783 16.9249C859.574 11.2905 865.802 6.08874 871.132 0Z"/>
	<path fill="#BAB794" d="M684.625 200.274C690.345 200.408 695.941 201.783 701.291 203.766C723.367 211.948 733.729 230.59 752.779 237.443C757.611 239.181 762.808 240.233 767.885 240.937C775.309 241.965 799.136 243.098 804.173 246.084C794.415 247.604 780.316 246.515 770.025 246.595L668.356 246.527L640.996 246.65C636.112 246.686 630.771 246.394 625.95 247.138C622.474 243.873 617.285 234.521 614.581 230.134L614.787 229.71C617.877 223.47 622.769 218.693 629.496 216.563C638.057 213.852 644.369 216.564 651.924 220.382C653.102 217.68 654.558 215.213 656.463 212.958C663.676 204.422 673.843 201.219 684.625 200.274Z"/>
	<path fill="#ECC69A" d="M712.005 166.023C725.484 160.688 740.313 159.907 753.842 165.678C761.206 168.818 768.235 174.242 772.228 181.288C779.228 175.674 786.556 172.607 795.73 173.682C806.703 174.968 817.031 181.163 823.82 189.796C826.9 193.714 829.014 197.995 830.85 202.602C834.467 201.26 838.043 200.007 841.879 199.453C852.273 198.364 864.126 199.963 872.429 206.802C878.213 211.566 881.559 217.618 883.512 224.767C889.045 226.012 894.339 227.563 899.616 229.641L905.52 232.786C921.938 236.734 938.397 240.309 954.39 245.83C925.305 247.121 896.029 246.301 866.913 246.197C846.07 246.123 824.985 247.014 804.173 246.084C799.136 243.098 775.309 241.965 767.885 240.937C762.808 240.233 757.611 239.181 752.779 237.443C733.729 230.59 723.367 211.948 701.291 203.766C695.941 201.783 690.345 200.408 684.625 200.274C684.993 198.64 685.382 197.012 685.871 195.409C690.147 181.414 699.375 172.748 712.005 166.023Z"/>
	<path fill="#FCF3AA" d="M772.228 181.288C779.228 175.674 786.556 172.607 795.73 173.682C806.703 174.968 817.031 181.163 823.82 189.796C826.9 193.714 829.014 197.995 830.85 202.602C834.467 201.26 838.043 200.007 841.879 199.453C852.273 198.364 864.126 199.963 872.429 206.802C878.213 211.566 881.559 217.618 883.512 224.767C889.045 226.012 894.339 227.563 899.616 229.641L905.52 232.786C899.276 233.896 891.736 232.577 885.308 232.932C879.575 233.249 873.945 234.693 868.233 235.166C865.699 235.376 863.943 235.549 861.925 233.832C861.722 233.238 861.421 232.88 861.697 232.263C862.654 230.125 866.745 228.547 868.761 227.491L868.955 226.664C866.837 224.095 862.181 222.123 859.034 221.131C843.613 216.274 829.219 222.296 815.545 229.208C815.118 227.648 814.592 226.106 814.075 224.574C810.511 214.011 802.904 200.208 792.398 195.253C783.204 190.916 769.136 192.036 760.273 196.881C757.848 198.207 756.304 201.394 753.785 202.246C753.897 202.081 754.002 201.911 754.122 201.752C758.569 195.84 761.773 193.711 768.886 192.493C768.977 188.012 769.549 184.953 772.228 181.288Z"/>
	<path fill="#DF7C35" d="M1024 206.305L1024 270.173C1020.05 274.825 1015.1 278.88 1010.87 283.341C996.445 298.533 980.922 317.116 963.498 328.678C944.825 341.07 923.637 350.531 905.997 364.31C897.134 371.233 891.187 380.1 883.654 388.205C876.589 395.808 862.602 403.987 852.763 407.661L826.861 374.202C829.211 373.641 831.042 372.861 833.107 371.608C839.81 367.539 845.95 362.218 852.273 357.569C861.424 350.841 870.82 344.563 879.465 337.162C884.367 332.965 889.163 328.475 893.22 323.442C905.976 307.616 911.931 291.8 927.318 276.677C937.92 266.256 950.441 258.489 962.233 249.567C978.161 237.516 993.386 223.913 1010.43 213.442C1014.76 210.779 1019.45 208.586 1024 206.305Z"/>
	<path fill="#43A7C9" d="M764.608 295.435L767.669 300.492C773.093 306.666 777.939 313.418 783.132 319.794L826.861 374.202L852.763 407.661L898.53 465.536C904.857 473.465 911.502 481.169 917.678 489.213C922.769 495.429 932.517 505.767 935.931 512.36C933.519 511.26 931.027 510.494 928.504 509.699C920.078 506.746 897.566 498.72 891.229 493.864C887.21 490.785 880.524 480.267 876.85 475.837Q856.977 451.4 835.738 428.14L834.588 426.733L833.888 426.801C828.88 433.133 824.051 439.627 819.042 445.971C816.508 450.885 804.754 457.27 799.679 459.989C792.307 456.664 785.426 452.896 778.597 448.549C774.953 444.32 773.741 438.378 770.35 433.967C764.24 424.014 723.602 357.768 718.285 355.644L717.363 355.071C713.794 357.52 710.406 364.746 708.049 368.619C706.558 362.773 703.488 356.976 701.029 351.478Q723.188 331.354 745.765 311.7C751.99 306.294 758.029 300.387 764.608 295.435Z"/>
	<defs>
		<linearGradient id="gradient_3" gradientUnits="userSpaceOnUse" x1="955.37347" y1="445.45563" x2="748.4455" y2="371.55121">
			<stop offset="0" stop-color="#F0F1D4"/>
			<stop offset="1" stop-color="white"/>
		</linearGradient>
	</defs>
	<path fill="url(#gradient_3)" d="M767.669 300.492C773.093 306.666 777.939 313.418 783.132 319.794L826.861 374.202L852.763 407.661L898.53 465.536C904.857 473.465 911.502 481.169 917.678 489.213C922.769 495.429 932.517 505.767 935.931 512.36C933.519 511.26 931.027 510.494 928.504 509.699C920.078 506.746 897.566 498.72 891.229 493.864C887.21 490.785 880.524 480.267 876.85 475.837Q856.977 451.4 835.738 428.14L834.588 426.733L833.888 426.801C828.88 433.133 824.051 439.627 819.042 445.971C817.063 441.878 815.928 436.975 814.451 432.659C809.189 417.287 804.752 401.693 799.604 386.291C796.345 376.542 792.423 367.06 788.971 357.386C784.892 345.959 781.199 334.393 776.82 323.073C773.89 315.498 770.554 308.085 767.669 300.492Z"/>
	<defs>
		<linearGradient id="gradient_4" gradientUnits="userSpaceOnUse" x1="983.64221" y1="468.48285" x2="926.94379" y2="304.98395">
			<stop offset="0" stop-color="#F09737"/>
			<stop offset="1" stop-color="#D68654"/>
		</linearGradient>
	</defs>
	<path fill="url(#gradient_4)" d="M852.763 407.661C862.602 403.987 876.589 395.808 883.654 388.205C891.187 380.1 897.134 371.233 905.997 364.31C923.637 350.531 944.825 341.07 963.498 328.678C980.922 317.116 996.445 298.533 1010.87 283.341C1015.1 278.88 1020.05 274.825 1024 270.173L1024 449.5C1001.95 463.114 976.39 473.042 951.453 479.891C944.083 481.915 923.469 486.093 917.678 489.213C911.502 481.169 904.857 473.465 898.53 465.536L852.763 407.661Z"/>
	<defs>
		<linearGradient id="gradient_5" gradientUnits="userSpaceOnUse" x1="924.79126" y1="142.1469" x2="829.4043" y2="38.885639">
			<stop offset="0" stop-color="#AE7069"/>
			<stop offset="1" stop-color="#996972"/>
		</linearGradient>
	</defs>
	<path fill="url(#gradient_5)" d="M871.132 0L1024 0L1024 34.4438L1024 145.198C1010.61 150.331 997.572 157.663 984.686 164.014C967.596 172.437 948.704 178.986 933.96 191.457C921.151 202.291 911.017 216.125 898.529 227.256L898.741 227.029L897.823 227.906L899.616 229.641C894.339 227.563 889.045 226.012 883.512 224.767C881.559 217.618 878.213 211.566 872.429 206.802C864.126 199.963 852.273 198.364 841.879 199.453C838.043 200.007 834.467 201.26 830.85 202.602C829.014 197.995 826.9 193.714 823.82 189.796C817.031 181.163 806.703 174.968 795.73 173.682C786.556 172.607 779.228 175.674 772.228 181.288C768.235 174.242 761.206 168.818 753.842 165.678C740.313 159.907 725.484 160.688 712.005 166.023C712.147 165.78 712.293 165.539 712.429 165.293C715.717 159.325 731.191 153.334 737.495 149.563C747.616 143.508 756.957 135.085 765.29 126.783C772.069 120.029 778.833 113.063 784.953 105.7C803.693 83.1526 819.271 58.1443 837.522 35.2086C842.526 28.9198 848.025 22.5265 853.783 16.9249C859.574 11.2905 865.802 6.08874 871.132 0Z"/>
	<path fill="#B77261" d="M841.879 199.453C843.402 191.963 850.556 181.833 854.507 175.188C873.577 143.111 894.571 133.544 928.703 122.411C943.441 117.604 956.545 112.623 968.796 102.725C991.862 84.0878 1004.24 56.0206 1024 34.4438L1024 145.198C1010.61 150.331 997.572 157.663 984.686 164.014C967.596 172.437 948.704 178.986 933.96 191.457C921.151 202.291 911.017 216.125 898.529 227.256L898.741 227.029L897.823 227.906L899.616 229.641C894.339 227.563 889.045 226.012 883.512 224.767C881.559 217.618 878.213 211.566 872.429 206.802C864.126 199.963 852.273 198.364 841.879 199.453Z"/>
	<defs>
		<linearGradient id="gradient_6" gradientUnits="userSpaceOnUse" x1="1006.3295" y1="650.2287" x2="661.73401" y2="494.52539">
			<stop offset="0" stop-color="#42313F"/>
			<stop offset="1" stop-color="#32324A"/>
		</linearGradient>
	</defs>
	<path fill="url(#gradient_6)" d="M708.049 368.619C710.406 364.746 713.794 357.52 717.363 355.071L718.285 355.644C723.602 357.768 764.24 424.014 770.35 433.967C773.741 438.378 774.953 444.32 778.597 448.549C785.426 452.896 792.307 456.664 799.679 459.989C804.754 457.27 816.508 450.885 819.042 445.971C824.051 439.627 828.88 433.133 833.888 426.801L834.588 426.733L835.738 428.14Q856.977 451.4 876.85 475.837C880.524 480.267 887.21 490.785 891.229 493.864C897.566 498.72 920.078 506.746 928.504 509.699C931.027 510.494 933.519 511.26 935.931 512.36C932.517 505.767 922.769 495.429 917.678 489.213C923.469 486.093 944.083 481.915 951.453 479.891C976.39 473.042 1001.95 463.114 1024 449.5L1024 592.222L1024 611.337L1024 645.025L1024 676.04L1024 686.578L1024 690.933C1009.98 696.891 996.075 703.039 981.966 708.784C973.305 713.144 964.106 716.246 955.077 719.734C943.352 724.263 931.759 729.084 919.929 733.346C912.085 736.172 904.02 738.43 896.207 741.289C891.553 742.643 887.022 744.39 882.36 745.711C875.155 747.737 856.164 752.325 850.561 756.473C840.24 749.378 830.569 741.098 820.833 733.23C813.559 727.351 805.578 721.632 799.091 714.907C797.273 713.023 796.045 710.764 794.771 708.501C790.155 703.214 786.346 696.195 782.493 690.281C772.529 674.984 763.084 659.448 753.414 643.98C751.391 640.997 749.36 639.61 745.856 638.811C720.757 632.634 695.913 625.595 670.643 620.048C660.305 617.753 647.358 616.021 638.448 610.344C621.684 598.654 605.439 586.085 589.177 573.714C577.636 564.934 565.96 556.526 554.84 547.193C559.568 542.848 564.658 538.836 569.492 534.601C578.317 526.87 587.025 518.923 596.274 511.704C603.029 506.896 609.289 501.237 615.983 496.294C624.408 490.214 633.011 475.601 639.308 467.067Q649.348 453.634 659.522 440.302C667.751 429.545 676.786 418.749 683.653 407.073C692.013 394.637 701.762 382.253 708.049 368.619Z"/>
	<path fill="#947C6E" d="M905.864 675.877C909.202 683.879 912.563 692.041 915.13 700.322C912.474 697.342 910.473 693.862 907.859 690.888C906.759 687.027 904.387 684.225 902.237 680.91C905.685 682.804 908.793 687.853 910.828 691.178C909.181 686.426 905.803 680.964 905.864 675.877Z"/>
	<path fill="#926865" d="M847.172 567.503L848.658 568.839C848.423 569.708 848.37 569.29 848.779 570.027C851.808 575.483 854.092 581.498 856.567 587.237Q862.736 601.861 869.321 616.302C879.359 638.24 890.91 659.621 902.237 680.91C904.387 684.225 906.759 687.027 907.859 690.888C902.97 685.771 898.566 680.244 893.901 674.929C888.834 669.157 883.437 663.564 878.674 657.542C873.731 651.292 870.348 643.899 867.3 636.576C863.408 627.224 846.303 575.206 847.172 567.503Z"/>
	<path fill="#926865" d="M806.581 589.264C810.724 592.168 820.139 603.611 824.088 607.999Q847.242 633.703 869.993 659.766C883.792 675.425 898.64 690.066 913.54 704.649C912.906 704.477 912.324 704.329 911.737 704.023C904.103 700.044 896.766 694.926 889.326 690.549C879.522 684.782 846.52 667.223 840.594 660.563C835.419 654.747 810.335 599.606 806.581 589.264Z"/>
	<path fill="#091B33" d="M691.713 494.347Q701.174 527.045 712.711 559.069Q724.248 591.094 737.814 622.313C740.234 627.957 743.43 633.225 745.856 638.811C720.757 632.634 695.913 625.595 670.643 620.048C672.354 613.119 674.462 606.287 676.051 599.329C681.195 576.814 685.025 553.708 688.144 530.83C689.789 518.764 691.555 506.538 691.713 494.347Z"/>
	<path fill="#091B33" d="M737.562 551.932C741.972 560.219 745.747 568.817 750.268 577.048C756.871 589.069 764.152 600.801 771.323 612.492C780.274 627.084 789.337 641.839 799.259 655.791Q808.181 668.283 817.87 680.189Q827.559 692.095 837.977 703.368Q848.396 714.642 859.503 725.238Q870.609 735.834 882.36 745.711C875.155 747.737 856.164 752.325 850.561 756.473C840.24 749.378 830.569 741.098 820.833 733.23C813.559 727.351 805.578 721.632 799.091 714.907C797.273 713.023 796.045 710.764 794.771 708.501C793.771 702.16 786.105 688.67 783.288 682.251C779.121 672.755 775.336 663.056 771.572 653.394C758.681 620.308 746.959 586.173 737.562 551.932Z"/>
	<path fill="#DF7C35" d="M718.285 355.644C723.602 357.768 764.24 424.014 770.35 433.967C773.741 438.378 774.953 444.32 778.597 448.549C785.183 463.26 793.709 477.353 801.392 491.519C814.019 514.802 827.411 540.309 841.853 562.341C836.366 559.298 790.851 509.147 785.478 501.709Q796.247 535.745 808.423 569.303C792.211 550.13 780.817 525.862 757.518 514.067Q764.358 533.832 770.321 553.879C758.702 534.801 749.422 517.429 730.655 504.303C737.257 496.905 742.795 488.078 748.54 479.991C735.479 472.528 720.933 465.126 706.584 460.599Q719.068 448.335 731.299 435.818C728.916 425.143 727.718 413.999 725.88 403.195C723.701 390.39 720.916 377.709 718.705 364.909C718.449 362.233 718.505 359.711 718.649 357.035L718.285 355.644Z"/>
	<path fill="#FCF3AA" d="M718.285 355.644C723.602 357.768 764.24 424.014 770.35 433.967C770.391 449.262 775.951 477.762 779.612 492.971C767.763 483.501 757.005 472.091 746.17 461.473C743.912 438.063 735.965 416.42 729.185 394.054C725.461 381.77 722.523 369.265 718.649 357.035L718.285 355.644Z"/>
	<path fill="#091B33" d="M708.049 368.619C710.406 364.746 713.794 357.52 717.363 355.071L718.285 355.644L718.649 357.035C718.505 359.711 718.449 362.233 718.705 364.909C713.861 377.973 718.774 414.216 718.316 430.362L717.881 431.066C713.9 437.458 708.917 443.356 704.338 449.335Q694.523 462.104 685.06 475.137C682.01 479.3 678.134 483.636 675.783 488.195C673.09 493.417 672.472 500.686 671.154 506.405C667.481 522.336 662.337 537.672 657.253 553.177C654.231 562.395 651.454 571.698 648.338 580.885C645.006 590.711 641.073 600.286 638.448 610.344C621.684 598.654 605.439 586.085 589.177 573.714C577.636 564.934 565.96 556.526 554.84 547.193C559.568 542.848 564.658 538.836 569.492 534.601C578.317 526.87 587.025 518.923 596.274 511.704C603.029 506.896 609.289 501.237 615.983 496.294C624.408 490.214 633.011 475.601 639.308 467.067Q649.348 453.634 659.522 440.302C667.751 429.545 676.786 418.749 683.653 407.073C692.013 394.637 701.762 382.253 708.049 368.619Z"/>
	<path fill="#091B33" d="M819.042 445.971C824.051 439.627 828.88 433.133 833.888 426.801L834.588 426.733L835.738 428.14C836.39 431.264 837.572 434.809 838.955 437.688C839.186 447.719 856.873 506.344 861.899 515.604Q865.471 521.649 869.345 527.506Q873.219 533.362 877.385 539.015Q881.551 544.668 885.998 550.102Q890.445 555.536 895.162 560.739Q899.878 565.941 904.852 570.897Q909.826 575.853 915.046 580.551Q920.264 585.249 925.715 589.676Q931.165 594.104 936.833 598.249C947.64 606.144 958.953 613.383 971.471 618.285C981.588 624.104 992.143 629.111 1002.54 634.398C1009.59 637.98 1016.63 642.168 1024 645.025L1024 676.04L1024 686.578L1024 690.933C1009.98 696.891 996.075 703.039 981.966 708.784C977.08 705.317 971.489 702.503 966.385 699.322C948.811 688.371 907.446 662.953 894.757 648.025C898.35 657.065 903.439 666.514 905.864 675.877C905.803 680.964 909.181 686.426 910.828 691.178C908.793 687.853 905.685 682.804 902.237 680.91C890.91 659.621 879.359 638.24 869.321 616.302Q862.736 601.861 856.567 587.237C854.092 581.498 851.808 575.483 848.779 570.027C848.37 569.29 848.423 569.708 848.658 568.839L847.172 567.503C845.122 566.138 843.916 563.8 841.853 562.341C827.411 540.309 814.019 514.802 801.392 491.519C793.709 477.353 785.183 463.26 778.597 448.549C785.426 452.896 792.307 456.664 799.679 459.989C804.754 457.27 816.508 450.885 819.042 445.971Z"/>
	<path fill="#A58D7A" d="M848.658 568.839C858.314 576.351 868.234 583.523 877.963 590.942C882.163 594.145 887.765 599.551 892.343 601.784C900.381 605.704 913.814 609.149 922.644 612.107C934.159 615.964 946.074 619.858 957.204 624.671C964.287 627.734 970.972 631.821 977.99 635.079C984.163 637.944 991.827 640.463 997.137 644.664C1004.18 650.231 1018.85 668.373 1024 676.04L1024 686.578C1015.51 680.756 1003.73 675.822 994.462 670.803C957.296 650.68 918.824 633.032 881.723 612.77C885.54 624.496 889.89 636.683 894.757 648.025C898.35 657.065 903.439 666.514 905.864 675.877C905.803 680.964 909.181 686.426 910.828 691.178C908.793 687.853 905.685 682.804 902.237 680.91C890.91 659.621 879.359 638.24 869.321 616.302Q862.736 601.861 856.567 587.237C854.092 581.498 851.808 575.483 848.779 570.027C848.37 569.29 848.423 569.708 848.658 568.839Z"/>
	<path fill="#926865" d="M881.723 612.77C918.824 633.032 957.296 650.68 994.462 670.803C1003.73 675.822 1015.51 680.756 1024 686.578L1024 690.933C1009.98 696.891 996.075 703.039 981.966 708.784C977.08 705.317 971.489 702.503 966.385 699.322C948.811 688.371 907.446 662.953 894.757 648.025C889.89 636.683 885.54 624.496 881.723 612.77Z"/>
	<path fill="#3B3142" d="M835.738 428.14Q856.977 451.4 876.85 475.837C880.524 480.267 887.21 490.785 891.229 493.864C897.566 498.72 920.078 506.746 928.504 509.699C931.027 510.494 933.519 511.26 935.931 512.36C932.517 505.767 922.769 495.429 917.678 489.213C923.469 486.093 944.083 481.915 951.453 479.891C976.39 473.042 1001.95 463.114 1024 449.5L1024 592.222L1024 611.337L1024 645.025C1016.63 642.168 1009.59 637.98 1002.54 634.398C992.143 629.111 981.588 624.104 971.471 618.285C958.953 613.383 947.64 606.144 936.833 598.249Q931.165 594.104 925.715 589.676Q920.264 585.249 915.046 580.551Q909.826 575.853 904.852 570.897Q899.878 565.941 895.162 560.739Q890.445 555.537 885.998 550.102Q881.551 544.668 877.385 539.015Q873.219 533.362 869.345 527.506Q865.471 521.649 861.899 515.604C856.873 506.344 839.186 447.719 838.955 437.688C837.572 434.809 836.39 431.264 835.738 428.14Z"/>
	<path fill="#947C6E" d="M928.504 509.699C931.027 510.494 933.519 511.26 935.931 512.36C937.481 513.999 940.046 516.04 941.22 517.913C942.353 521.741 944.112 525.512 945.558 529.241C950.46 541.888 956.279 554.882 959.537 568.056C953.233 561.074 906.269 513.511 901.502 512.59C905.335 512.512 926.344 510.995 928.504 509.699Z"/>
	<path fill="#926865" d="M944.178 579.169Q983.678 596.272 1024 611.337L1024 645.025C1016.63 642.168 1009.59 637.98 1002.54 634.398C992.143 629.111 981.588 624.104 971.471 618.285C962.989 604.797 952.782 592.555 944.178 579.169Z"/>
	<path fill="#DF7C35" d="M835.738 428.14Q856.977 451.4 876.85 475.837C880.524 480.267 887.21 490.785 891.229 493.864C897.566 498.72 920.078 506.746 928.504 509.699C926.344 510.995 905.335 512.512 901.502 512.59C901.481 512.621 901.45 512.648 901.44 512.684C900.442 516.297 908.593 541.002 910.157 546.07C901.802 534.17 892.735 522.715 884.212 510.917C880.568 511.262 876.99 511.691 873.385 512.328C869.629 513.305 865.464 514.073 861.899 515.604C856.873 506.344 839.186 447.719 838.955 437.688C837.572 434.809 836.39 431.264 835.738 428.14Z"/>
	<path fill="#7A3413" d="M838.955 437.688C851.38 460.997 860.069 485.537 871.084 509.43C871.627 510.607 872.134 511.795 873.385 512.328C869.629 513.305 865.464 514.073 861.899 515.604C856.873 506.344 839.186 447.719 838.955 437.688Z"/>
	<path fill="#EFAB41" d="M1024 449.5L1024 592.222C1012.29 579.918 997.863 569.524 984.99 558.416C970.003 545.485 955.715 531.416 941.22 517.913C940.046 516.04 937.481 513.999 935.931 512.36C932.517 505.767 922.769 495.429 917.678 489.213C923.469 486.093 944.083 481.915 951.453 479.891C976.39 473.042 1001.95 463.114 1024 449.5Z"/>
	<defs>
		<linearGradient id="gradient_7" gradientUnits="userSpaceOnUse" x1="480.4397" y1="1138.9952" x2="577.95905" y2="733.33221">
			<stop offset="0" stop-color="#071522"/>
			<stop offset="1" stop-color="#022523"/>
		</linearGradient>
	</defs>
	<path fill="url(#gradient_7)" d="M0 691.112C7.27581 691.106 24.7448 687.626 30.3627 689.268C54.8963 692.124 79.1424 697.075 103.524 701.009L135.77 706.256C141.087 707.158 146.891 707.749 152.047 709.285L152.365 709.29C152.657 714.13 203.17 774.42 209.599 783.553L259.785 778.121C268.894 777.165 278.319 776.666 287.325 775.142C289.508 775.003 291.665 774.912 293.812 774.465C312.287 797.43 333.239 818.455 352.651 840.619L459.859 856.85C477.829 859.564 496.33 863.674 514.447 864.786C525.698 860.757 537.251 857.644 548.513 853.522C560.793 850.425 572.751 846.022 584.749 841.988C607.499 834.336 630.496 826.317 653.666 820.025C657.718 818.25 662.542 817.157 666.789 815.841C681.143 811.394 696.843 807.734 710.492 801.488C713.813 801.589 747.631 789.76 753.789 787.591C758.134 787.761 770.561 782.192 775.152 780.553C784.287 777.291 808.26 769.03 816.983 768.253C823.44 766.746 830.113 764.507 836.126 761.741C840.791 760.269 846.385 759 850.561 756.473C856.164 752.325 875.155 747.737 882.36 745.711C887.022 744.39 891.553 742.643 896.207 741.289C904.02 738.43 912.085 736.172 919.929 733.346C931.759 729.084 943.352 724.263 955.077 719.734C964.106 716.246 973.305 713.144 981.966 708.784C996.075 703.039 1009.98 696.891 1024 690.933L1024 853.976L1024 1024L0 1024L0 993.572L0 925.192L0 862.797L0 691.112Z"/>
	<path fill="#6C6A2C" d="M891.116 899.693L896.27 900.809C895.166 903.209 894.484 906.056 893.675 908.585Q892.276 904.173 891.116 899.693Z"/>
	<path fill="#738444" d="M852.527 894.002C859.74 894.796 866.906 895.839 874.094 896.828C873.051 899.976 872.475 903.253 871.813 906.497C866.734 906.356 861.646 906.474 856.566 906.524C854.981 902.437 853.795 898.195 852.527 894.002Z"/>
	<path fill="#4E5D22" d="M856.566 906.524C861.646 906.474 866.734 906.356 871.813 906.497C869.364 915.763 867.808 925.323 865.596 934.66C862.921 925.221 859.526 915.889 856.566 906.524Z"/>
	<path fill="#0F2422" d="M696.98 977.727C704.567 976.879 716.239 971.847 723.757 969.406C762.326 956.885 794.265 941.634 835.896 944.411C857.861 947.025 877.871 954.36 898.963 960.488C926.113 968.376 953.469 975.982 980.31 984.856C963.28 985.525 946.327 986.887 929.32 987.858Q903.934 989.183 878.535 990.242C865.952 990.843 853.317 992.134 840.715 992.006C831.255 991.911 821.778 990.743 812.373 989.809L774.033 985.91C748.347 983.214 722.562 981.372 696.98 977.727Z"/>
	<path fill="#023B4D" d="M1024 690.933L1024 853.976C1020.59 861.014 1018.86 869.48 1016.73 877.023Q1011.3 896.563 1005.46 915.986L986.795 854.427C984.025 845.282 981.694 835.704 978.386 826.76C976.158 833.808 974.562 841.024 972.583 848.141L958.442 897.5Q954.197 883.223 951.678 868.543C948.703 883.73 944.703 898.944 940.452 913.823C935.955 895.067 929.737 876.483 924.415 857.925C921.611 848.144 919.714 838.004 916.6 828.34L902.746 878.956C900.715 886.124 899.093 893.946 896.27 900.809L891.116 899.693C887.044 887.788 884.316 872.352 881.758 859.893C879.635 872.135 877.437 884.866 874.094 896.828C866.906 895.839 859.74 894.796 852.527 894.002C851.236 891.816 850.725 888.586 850.027 886.126C849.727 888.677 849.386 891.109 848.724 893.601L583.404 871.791C573.413 870.908 519.732 867.105 514.447 864.786C525.698 860.757 537.251 857.644 548.513 853.522C560.793 850.425 572.751 846.022 584.749 841.988C607.499 834.336 630.496 826.317 653.666 820.025C657.718 818.25 662.542 817.157 666.789 815.841C681.143 811.394 696.843 807.734 710.492 801.488C713.813 801.589 747.631 789.76 753.789 787.591C758.134 787.761 770.561 782.192 775.152 780.553C784.287 777.291 808.26 769.03 816.983 768.253C823.44 766.746 830.113 764.507 836.126 761.741C840.791 760.269 846.385 759 850.561 756.473C856.164 752.325 875.155 747.737 882.36 745.711C887.022 744.39 891.553 742.643 896.207 741.289C904.02 738.43 912.085 736.172 919.929 733.346C931.759 729.084 943.352 724.263 955.077 719.734C964.106 716.246 973.305 713.144 981.966 708.784C996.075 703.039 1009.98 696.891 1024 690.933Z"/>
	<path fill="#0E737A" d="M882.36 745.711C887.022 744.39 891.553 742.643 896.207 741.289C906.675 750.166 920.639 756.382 932.627 763.019C942.145 768.288 951.351 774.04 960.703 779.588C965.041 782.161 969.552 784.432 973.868 787.038C957.913 794.525 941.37 800.921 924.999 807.428Q887.6 822.374 849.804 836.286Q830.575 843.452 811.419 850.814C805.132 853.221 798.827 855.946 792.434 858.037C776.236 848.351 758.776 840.303 743.077 829.835C768.061 809.668 793.808 790.569 816.983 768.253C823.44 766.746 830.113 764.507 836.126 761.741C840.791 760.269 846.385 759 850.561 756.473C856.164 752.325 875.155 747.737 882.36 745.711Z"/>
	<defs>
		<linearGradient id="gradient_8" gradientUnits="userSpaceOnUse" x1="831.32922" y1="970.83612" x2="185.73366" y2="836.36737">
			<stop offset="0" stop-color="#687C34"/>
			<stop offset="1" stop-color="#8B8540"/>
		</linearGradient>
	</defs>
	<path fill="url(#gradient_8)" d="M352.651 840.619L459.859 856.85C477.829 859.564 496.33 863.674 514.447 864.786C519.732 867.105 573.413 870.908 583.404 871.791L848.724 893.601Q847.076 900.455 845.501 907.326C842.255 919.66 838.509 931.926 835.896 944.411C794.265 941.634 762.326 956.885 723.757 969.406C716.239 971.847 704.567 976.879 696.98 977.727Q576.993 961.897 457.603 942.054L373.451 926.909C365.457 925.389 348.208 920.354 341.346 920.501C332.037 920.7 315.372 925.7 305.456 927.919C275.655 934.588 245.926 941.806 216.064 948.163C210.454 931.844 205.593 915.265 199.265 899.201L194.385 886.12C192.86 890.992 192.106 896.013 190.9 900.96C187.037 901.375 183.15 901.906 179.274 902.151C177.229 896.462 176.26 890.401 174.378 884.645C170.92 872.308 166.426 860.533 163.595 847.969C170.593 849.394 179.136 848.592 186.345 848.612Q213.55 848.694 240.724 847.378C249.089 847.006 257.626 846.949 265.931 845.957C283.73 846.358 302.042 844.269 319.787 842.883C328.929 842.169 338.019 841.282 347.201 841.677C348.983 841.217 350.84 840.953 352.651 840.619Z"/>
	<path fill="#4E5D22" d="M265.931 845.957C283.73 846.358 302.042 844.269 319.787 842.883C328.929 842.169 338.019 841.282 347.201 841.677C328.384 847.625 309.157 852.025 290.017 856.771C276.71 860.071 263.542 863.843 250.144 866.782C233.177 870.503 216.271 874.267 199.379 878.327C191.052 880.329 182.563 882.119 174.378 884.645C170.92 872.308 166.426 860.533 163.595 847.969C170.593 849.394 179.136 848.592 186.345 848.612Q213.55 848.694 240.724 847.378C249.089 847.006 257.626 846.949 265.931 845.957Z"/>
	<path fill="#4E5D22" d="M362.482 890.144C385.244 898.677 408.344 906.267 431.111 914.775C441.221 918.554 451.444 922.087 461.523 925.93C468.457 928.574 476.042 932.523 483.367 933.662C490.884 934.831 499.31 933.739 506.916 933.366L552.519 930.729Q699.213 921.574 845.501 907.326C842.255 919.66 838.509 931.926 835.896 944.411C794.265 941.634 762.326 956.885 723.757 969.406C716.239 971.847 704.567 976.879 696.98 977.727Q576.993 961.897 457.603 942.054L373.451 926.909C365.457 925.389 348.208 920.354 341.346 920.501C332.037 920.7 315.372 925.7 305.456 927.919C275.655 934.588 245.926 941.806 216.064 948.163C210.454 931.844 205.593 915.265 199.265 899.201C225.492 898.391 251.677 895.186 277.919 894.353Q253.615 912.782 227.593 928.692C258.559 922.333 288.818 912.365 319.01 903.055C333.43 898.609 348.199 894.956 362.482 890.144Z"/>
	<path fill="#0E737A" d="M0 691.112C7.27581 691.106 24.7448 687.626 30.3627 689.268C54.8963 692.124 79.1424 697.075 103.524 701.009L135.77 706.256C141.087 707.158 146.891 707.749 152.047 709.285L152.365 709.29C152.657 714.13 203.17 774.42 209.599 783.553L259.785 778.121C268.894 777.165 278.319 776.666 287.325 775.142C289.508 775.003 291.665 774.912 293.812 774.465C312.287 797.43 333.239 818.455 352.651 840.619C350.84 840.953 348.983 841.217 347.201 841.677C338.019 841.282 328.929 842.169 319.787 842.883C302.042 844.269 283.73 846.358 265.931 845.957C257.626 846.949 249.089 847.006 240.724 847.378Q213.55 848.694 186.345 848.612C179.136 848.592 170.593 849.394 163.595 847.969C166.426 860.533 170.92 872.308 174.378 884.645C176.26 890.401 177.229 896.462 179.274 902.151C183.15 901.906 187.037 901.375 190.9 900.96C192.106 896.013 192.86 890.992 194.385 886.12L199.265 899.201C205.593 915.265 210.454 931.844 216.064 948.163C197.799 951.695 179.794 956.646 161.608 960.576C130.484 967.302 99.1048 973.03 67.9736 979.764Q46.5764 984.512 25.1116 988.945C16.8498 990.669 8.41216 992.827 0 993.572L0 925.192L0 862.797L0 691.112Z"/>
	<path fill="#023B4D" d="M0 691.112C7.27581 691.106 24.7448 687.626 30.3627 689.268L29.6326 689.775C31.3873 695.928 34.8196 701.865 37.396 707.724L49.0787 734.943L71.8015 786.101C75.5032 794.364 78.9364 802.981 83.0804 811.023C105.714 796.433 129.475 784.216 152.671 770.607C160.783 776.98 169.609 782.599 178.188 788.329L220.567 816.478L247.711 834.725C253.37 838.519 259.576 843.598 265.931 845.957C257.626 846.949 249.089 847.006 240.724 847.378Q213.55 848.694 186.345 848.612C179.136 848.592 170.593 849.394 163.595 847.969L162.244 848.074C150.763 846.988 139.188 846.852 127.682 846.107C124.394 839.725 120.952 822.693 118.575 814.792C116.144 824.765 113.581 834.782 110.414 844.55C103.163 844.309 95.8986 844.238 88.6439 844.095C87.7988 840.846 87.09 837.62 86.4921 834.316C85.542 837.129 85.0061 841.734 83.4429 844.067C76.8302 844.62 69.8253 846.125 63.3959 847.748C59.7844 839.558 58.1385 830.558 55.5687 822.011Q51.9964 832.172 48.9237 842.494C48.0082 845.471 47.3053 848.799 46.1571 851.674C30.8135 855.238 15.1127 858.381 0 862.797L0 691.112Z"/>
	<path fill="#0F2422" d="M110.414 844.55C113.581 834.782 116.144 824.765 118.575 814.792C120.952 822.693 124.394 839.725 127.682 846.107C139.188 846.852 150.763 846.988 162.244 848.074L163.595 847.969C166.426 860.533 170.92 872.308 174.378 884.645C176.26 890.401 177.229 896.462 179.274 902.151C183.15 901.906 187.037 901.375 190.9 900.96C192.106 896.013 192.86 890.992 194.385 886.12L199.265 899.201C205.593 915.265 210.454 931.844 216.064 948.163C197.799 951.695 179.794 956.646 161.608 960.576C130.484 967.302 99.1048 973.03 67.9736 979.764Q46.5764 984.512 25.1116 988.945C16.8498 990.669 8.41216 992.827 0 993.572L0 925.192L0 862.797C15.1127 858.381 30.8135 855.238 46.1571 851.674C47.3053 848.799 48.0082 845.471 48.9237 842.494Q51.9964 832.172 55.5687 822.011C58.1385 830.558 59.7844 839.558 63.3959 847.748C69.8253 846.125 76.8302 844.62 83.4429 844.067C85.0061 841.734 85.542 837.129 86.4921 834.316C87.09 837.62 87.7988 840.846 88.6439 844.095C95.8986 844.238 103.163 844.309 110.414 844.55Z"/>
	<path fill="#6C6A2C" d="M140.15 891.672C143.525 890.466 147.587 888.689 151.179 888.604L151.804 889.348C150.525 894.479 149.614 901.192 147.019 905.744L146.059 906.203C143 904.356 141.141 895.015 140.15 891.672Z"/>
	<path fill="#6C6A2C" d="M179.274 902.151C183.15 901.906 187.037 901.375 190.9 900.96Q188.541 912.26 184.988 923.243C182.873 916.31 180.838 909.229 179.274 902.151Z"/>
	<path fill="#4E5D22" d="M63.3959 847.748C69.8253 846.125 76.8302 844.62 83.4429 844.067Q78.7295 863.075 73.4351 881.93C70.316 870.694 67.6964 858.536 63.3959 847.748Z"/>
	<path fill="#4E5D22" d="M88.6439 844.095C95.8986 844.238 103.163 844.309 110.414 844.55C106.343 857.813 104.551 871.733 99.4762 884.731C96.0073 871.172 92.7128 857.487 88.6439 844.095Z"/>
	<path fill="#4E5D22" d="M127.682 846.107C139.188 846.852 150.763 846.988 162.244 848.074C159.829 861.937 155.742 875.837 151.804 889.348L151.179 888.604C147.587 888.689 143.525 890.466 140.15 891.672C137.195 877.261 132.127 860.227 127.682 846.107Z"/>
	<path fill="#4E5D22" d="M0 862.797C15.1127 858.381 30.8135 855.238 46.1571 851.674C43.8036 859.115 41.9833 866.75 39.7667 874.242C36.3621 885.75 32.603 897.221 29.4616 908.798C25.4963 892.863 22.1379 876.479 17.3835 860.774C13.1521 873.887 9.61801 887.41 6.34356 900.793C4.44293 908.561 3.22321 917.971 0 925.192L0 862.797Z"/>
</svg>
